M48
INCH,TZ
T1C0.016
T2C0.025
T3C0.030
T4C0.031
T5C0.039
T6C0.039
T7C0.040
T8C0.040
T9C0.041
T10C0.055
T11C0.079
%
G90
G05
T1
X36600Y-45200
X37600Y-24400
X38600Y-23400
X43050Y-26700
X43930Y-27580
X44050Y-25550
X45600Y-35000
X45600Y-36600
X47000Y-43800
X47600Y-35800
X47800Y-39000
X49200Y-36600
X49600Y-37400
X50540Y-24290
X52200Y-41000
X54600Y-31600
X61700Y-51600
X63600Y-27200
X69440Y-46790
X72600Y-37600
T2
X44600Y-31500
X45400Y-30500
X55800Y-23600
X56300Y-27400
X70700Y-46400
T3
X57947Y-23616
X57947Y-24600
X57947Y-25584
X62647Y-28616
X62647Y-29600
X62647Y-30584
X63656Y-23616
X63656Y-25584
X68356Y-28616
X68356Y-30584
X71047Y-32416
X71047Y-33400
X71047Y-34384
X76756Y-32416
X76756Y-34384
T4
X46900Y-29500
X46900Y-30500
X46900Y-31500
X46900Y-32500
X46900Y-33500
X46900Y-34500
X46900Y-35500
X46900Y-36500
X46900Y-37500
X46900Y-38500
X46900Y-39500
X46900Y-40500
X46900Y-41500
X46900Y-42500
X49900Y-29500
X49900Y-30500
X49900Y-31500
X49900Y-32500
X49900Y-33500
X49900Y-34500
X49900Y-35500
X49900Y-36500
X49900Y-37500
X49900Y-38500
X49900Y-39500
X49900Y-40500
X49900Y-41500
X49900Y-42500
T5
X39550Y-36005
X39550Y-36950
X39550Y-37895
T6
X36600Y-35200
X37600Y-35200
X38200Y-43400
X39200Y-43400
T7
X35400Y-30500
X35400Y-31500
X36400Y-30500
X36400Y-31500
X37400Y-30500
X37400Y-31500
X38400Y-30500
X38400Y-31500
X39400Y-30500
X39400Y-31500
T8
X53208Y-57458
X53208Y-59427
X79192Y-37773
X79192Y-39742
T9
X48750Y-22266
X50750Y-22266
X52750Y-22266
X54750Y-22266
T10
X33700Y-48100
X33700Y-49100
X33700Y-50100
X33700Y-51100
X36700Y-48100
X36700Y-49100
X36700Y-50100
X36700Y-51100
X40200Y-48100
X40200Y-49100
X40200Y-50100
X40200Y-51100
X43200Y-48100
X43200Y-49100
X43200Y-50100
X43200Y-51100
T11
X32600Y-37431
X32600Y-41369
X32631Y-43400
X36569Y-43400
X60900Y-22868
X60900Y-26332
X65600Y-27868
X65600Y-31332
X74000Y-31668
X74000Y-35132
T0
M30
