G04 #@! TF.FileFunction,Copper,L1,Top,Signal*
%FSLAX46Y46*%
G04 Gerber Fmt 4.6, Leading zero omitted, Abs format (unit mm)*
G04 Created by KiCad (PCBNEW (2015-08-13 BZR 6091)-product) date Tuesday, February 23, 2016 'PMt' 10:41:28 PM*
%MOMM*%
G01*
G04 APERTURE LIST*
%ADD10C,0.100000*%
%ADD11C,0.300000*%
%ADD12C,1.600000*%
%ADD13C,2.000000*%
%ADD14R,1.597660X1.800860*%
%ADD15R,1.800860X1.597660*%
%ADD16O,2.300000X1.600000*%
%ADD17C,3.000000*%
%ADD18R,2.000000X2.000000*%
%ADD19C,1.500000*%
%ADD20R,1.270000X0.610000*%
%ADD21R,1.020000X0.610000*%
%ADD22R,3.810000X3.910000*%
%ADD23C,1.800000*%
%ADD24C,1.524000*%
%ADD25R,2.500000X2.500000*%
%ADD26R,1.727200X1.727200*%
%ADD27O,1.727200X1.727200*%
%ADD28C,4.100000*%
%ADD29C,0.600000*%
%ADD30C,0.800000*%
%ADD31C,1.000000*%
%ADD32C,0.400000*%
%ADD33C,1.900000*%
%ADD34C,2.000000*%
%ADD35C,0.500000*%
G04 APERTURE END LIST*
D10*
D11*
X80536903Y-137149762D02*
X80536903Y-135149762D01*
X81679761Y-137149762D01*
X81679761Y-135149762D01*
X82632141Y-135149762D02*
X82632141Y-136768810D01*
X82727380Y-136959286D01*
X82822618Y-137054524D01*
X83013094Y-137149762D01*
X83394046Y-137149762D01*
X83584522Y-137054524D01*
X83679761Y-136959286D01*
X83774999Y-136768810D01*
X83774999Y-135149762D01*
X86060713Y-135149762D02*
X86536904Y-137149762D01*
X86917856Y-135721190D01*
X87298809Y-137149762D01*
X87774999Y-135149762D01*
X88536903Y-137149762D02*
X88536903Y-135816429D01*
X88536903Y-135149762D02*
X88441665Y-135245000D01*
X88536903Y-135340238D01*
X88632142Y-135245000D01*
X88536903Y-135149762D01*
X88536903Y-135340238D01*
X89489284Y-137149762D02*
X89489284Y-135816429D01*
X89489284Y-136197381D02*
X89584523Y-136006905D01*
X89679761Y-135911667D01*
X89870237Y-135816429D01*
X90060713Y-135816429D01*
X91489284Y-137054524D02*
X91298808Y-137149762D01*
X90917856Y-137149762D01*
X90727379Y-137054524D01*
X90632141Y-136864048D01*
X90632141Y-136102143D01*
X90727379Y-135911667D01*
X90917856Y-135816429D01*
X91298808Y-135816429D01*
X91489284Y-135911667D01*
X91584522Y-136102143D01*
X91584522Y-136292619D01*
X90632141Y-136483095D01*
X92727380Y-137149762D02*
X92536904Y-137054524D01*
X92441665Y-136864048D01*
X92441665Y-135149762D01*
X94251189Y-137054524D02*
X94060713Y-137149762D01*
X93679761Y-137149762D01*
X93489284Y-137054524D01*
X93394046Y-136864048D01*
X93394046Y-136102143D01*
X93489284Y-135911667D01*
X93679761Y-135816429D01*
X94060713Y-135816429D01*
X94251189Y-135911667D01*
X94346427Y-136102143D01*
X94346427Y-136292619D01*
X93394046Y-136483095D01*
X95108332Y-137054524D02*
X95298809Y-137149762D01*
X95679761Y-137149762D01*
X95870237Y-137054524D01*
X95965475Y-136864048D01*
X95965475Y-136768810D01*
X95870237Y-136578333D01*
X95679761Y-136483095D01*
X95394047Y-136483095D01*
X95203570Y-136387857D01*
X95108332Y-136197381D01*
X95108332Y-136102143D01*
X95203570Y-135911667D01*
X95394047Y-135816429D01*
X95679761Y-135816429D01*
X95870237Y-135911667D01*
X96727380Y-137054524D02*
X96917857Y-137149762D01*
X97298809Y-137149762D01*
X97489285Y-137054524D01*
X97584523Y-136864048D01*
X97584523Y-136768810D01*
X97489285Y-136578333D01*
X97298809Y-136483095D01*
X97013095Y-136483095D01*
X96822618Y-136387857D01*
X96727380Y-136197381D01*
X96727380Y-136102143D01*
X96822618Y-135911667D01*
X97013095Y-135816429D01*
X97298809Y-135816429D01*
X97489285Y-135911667D01*
X101108334Y-136959286D02*
X101013096Y-137054524D01*
X100727381Y-137149762D01*
X100536905Y-137149762D01*
X100251191Y-137054524D01*
X100060715Y-136864048D01*
X99965476Y-136673571D01*
X99870238Y-136292619D01*
X99870238Y-136006905D01*
X99965476Y-135625952D01*
X100060715Y-135435476D01*
X100251191Y-135245000D01*
X100536905Y-135149762D01*
X100727381Y-135149762D01*
X101013096Y-135245000D01*
X101108334Y-135340238D01*
X102251191Y-137149762D02*
X102060715Y-137054524D01*
X101965476Y-136864048D01*
X101965476Y-135149762D01*
X103870238Y-135816429D02*
X103870238Y-137149762D01*
X103013095Y-135816429D02*
X103013095Y-136864048D01*
X103108334Y-137054524D01*
X103298810Y-137149762D01*
X103584524Y-137149762D01*
X103775000Y-137054524D01*
X103870238Y-136959286D01*
X104822619Y-137149762D02*
X104822619Y-135149762D01*
X104822619Y-135911667D02*
X105013096Y-135816429D01*
X105394048Y-135816429D01*
X105584524Y-135911667D01*
X105679762Y-136006905D01*
X105775000Y-136197381D01*
X105775000Y-136768810D01*
X105679762Y-136959286D01*
X105584524Y-137054524D01*
X105394048Y-137149762D01*
X105013096Y-137149762D01*
X104822619Y-137054524D01*
X109108334Y-137149762D02*
X108155953Y-137149762D01*
X108155953Y-135149762D01*
X109775001Y-136102143D02*
X110441668Y-136102143D01*
X110727382Y-137149762D02*
X109775001Y-137149762D01*
X109775001Y-135149762D01*
X110727382Y-135149762D01*
X111584525Y-137149762D02*
X111584525Y-135149762D01*
X112060716Y-135149762D01*
X112346430Y-135245000D01*
X112536906Y-135435476D01*
X112632145Y-135625952D01*
X112727383Y-136006905D01*
X112727383Y-136292619D01*
X112632145Y-136673571D01*
X112536906Y-136864048D01*
X112346430Y-137054524D01*
X112060716Y-137149762D01*
X111584525Y-137149762D01*
X116251193Y-136959286D02*
X116155955Y-137054524D01*
X115870240Y-137149762D01*
X115679764Y-137149762D01*
X115394050Y-137054524D01*
X115203574Y-136864048D01*
X115108335Y-136673571D01*
X115013097Y-136292619D01*
X115013097Y-136006905D01*
X115108335Y-135625952D01*
X115203574Y-135435476D01*
X115394050Y-135245000D01*
X115679764Y-135149762D01*
X115870240Y-135149762D01*
X116155955Y-135245000D01*
X116251193Y-135340238D01*
X117394050Y-137149762D02*
X117203574Y-137054524D01*
X117108335Y-136959286D01*
X117013097Y-136768810D01*
X117013097Y-136197381D01*
X117108335Y-136006905D01*
X117203574Y-135911667D01*
X117394050Y-135816429D01*
X117679764Y-135816429D01*
X117870240Y-135911667D01*
X117965478Y-136006905D01*
X118060716Y-136197381D01*
X118060716Y-136768810D01*
X117965478Y-136959286D01*
X117870240Y-137054524D01*
X117679764Y-137149762D01*
X117394050Y-137149762D01*
X118917859Y-135816429D02*
X118917859Y-137149762D01*
X118917859Y-136006905D02*
X119013098Y-135911667D01*
X119203574Y-135816429D01*
X119489288Y-135816429D01*
X119679764Y-135911667D01*
X119775002Y-136102143D01*
X119775002Y-137149762D01*
X120441669Y-135816429D02*
X121203574Y-135816429D01*
X120727383Y-135149762D02*
X120727383Y-136864048D01*
X120822622Y-137054524D01*
X121013098Y-137149762D01*
X121203574Y-137149762D01*
X121870240Y-137149762D02*
X121870240Y-135816429D01*
X121870240Y-136197381D02*
X121965479Y-136006905D01*
X122060717Y-135911667D01*
X122251193Y-135816429D01*
X122441669Y-135816429D01*
X123394050Y-137149762D02*
X123203574Y-137054524D01*
X123108335Y-136959286D01*
X123013097Y-136768810D01*
X123013097Y-136197381D01*
X123108335Y-136006905D01*
X123203574Y-135911667D01*
X123394050Y-135816429D01*
X123679764Y-135816429D01*
X123870240Y-135911667D01*
X123965478Y-136006905D01*
X124060716Y-136197381D01*
X124060716Y-136768810D01*
X123965478Y-136959286D01*
X123870240Y-137054524D01*
X123679764Y-137149762D01*
X123394050Y-137149762D01*
X125203574Y-137149762D02*
X125013098Y-137054524D01*
X124917859Y-136864048D01*
X124917859Y-135149762D01*
X126251193Y-137149762D02*
X126060717Y-137054524D01*
X125965478Y-136864048D01*
X125965478Y-135149762D01*
X127775002Y-137054524D02*
X127584526Y-137149762D01*
X127203574Y-137149762D01*
X127013097Y-137054524D01*
X126917859Y-136864048D01*
X126917859Y-136102143D01*
X127013097Y-135911667D01*
X127203574Y-135816429D01*
X127584526Y-135816429D01*
X127775002Y-135911667D01*
X127870240Y-136102143D01*
X127870240Y-136292619D01*
X126917859Y-136483095D01*
X128727383Y-137149762D02*
X128727383Y-135816429D01*
X128727383Y-136197381D02*
X128822622Y-136006905D01*
X128917860Y-135911667D01*
X129108336Y-135816429D01*
X129298812Y-135816429D01*
X97917857Y-138440238D02*
X98013095Y-138345000D01*
X98203572Y-138249762D01*
X98679762Y-138249762D01*
X98870238Y-138345000D01*
X98965476Y-138440238D01*
X99060715Y-138630714D01*
X99060715Y-138821190D01*
X98965476Y-139106905D01*
X97822619Y-140249762D01*
X99060715Y-140249762D01*
X101346429Y-138154524D02*
X99632143Y-140725952D01*
X101917857Y-138440238D02*
X102013095Y-138345000D01*
X102203572Y-138249762D01*
X102679762Y-138249762D01*
X102870238Y-138345000D01*
X102965476Y-138440238D01*
X103060715Y-138630714D01*
X103060715Y-138821190D01*
X102965476Y-139106905D01*
X101822619Y-140249762D01*
X103060715Y-140249762D01*
X104965477Y-140249762D02*
X103822619Y-140249762D01*
X104394048Y-140249762D02*
X104394048Y-138249762D01*
X104203572Y-138535476D01*
X104013096Y-138725952D01*
X103822619Y-138821190D01*
X107251191Y-138154524D02*
X105536905Y-140725952D01*
X107822619Y-138440238D02*
X107917857Y-138345000D01*
X108108334Y-138249762D01*
X108584524Y-138249762D01*
X108775000Y-138345000D01*
X108870238Y-138440238D01*
X108965477Y-138630714D01*
X108965477Y-138821190D01*
X108870238Y-139106905D01*
X107727381Y-140249762D01*
X108965477Y-140249762D01*
X110203572Y-138249762D02*
X110394048Y-138249762D01*
X110584524Y-138345000D01*
X110679762Y-138440238D01*
X110775000Y-138630714D01*
X110870239Y-139011667D01*
X110870239Y-139487857D01*
X110775000Y-139868810D01*
X110679762Y-140059286D01*
X110584524Y-140154524D01*
X110394048Y-140249762D01*
X110203572Y-140249762D01*
X110013096Y-140154524D01*
X109917858Y-140059286D01*
X109822619Y-139868810D01*
X109727381Y-139487857D01*
X109727381Y-139011667D01*
X109822619Y-138630714D01*
X109917858Y-138440238D01*
X110013096Y-138345000D01*
X110203572Y-138249762D01*
X112775001Y-140249762D02*
X111632143Y-140249762D01*
X112203572Y-140249762D02*
X112203572Y-138249762D01*
X112013096Y-138535476D01*
X111822620Y-138725952D01*
X111632143Y-138821190D01*
X114489286Y-138249762D02*
X114108334Y-138249762D01*
X113917858Y-138345000D01*
X113822620Y-138440238D01*
X113632143Y-138725952D01*
X113536905Y-139106905D01*
X113536905Y-139868810D01*
X113632143Y-140059286D01*
X113727382Y-140154524D01*
X113917858Y-140249762D01*
X114298810Y-140249762D01*
X114489286Y-140154524D01*
X114584524Y-140059286D01*
X114679763Y-139868810D01*
X114679763Y-139392619D01*
X114584524Y-139202143D01*
X114489286Y-139106905D01*
X114298810Y-139011667D01*
X113917858Y-139011667D01*
X113727382Y-139106905D01*
X113632143Y-139202143D01*
X113536905Y-139392619D01*
D12*
X118500000Y-129810000D03*
X118500000Y-127300000D03*
X118500000Y-124730000D03*
X118500000Y-122190000D03*
D13*
X139065000Y-56555000D03*
X133985000Y-56555000D03*
X128905000Y-56555000D03*
X123825000Y-56555000D03*
D14*
X168526460Y-109778800D03*
X165686740Y-109778800D03*
X191411860Y-123444000D03*
X188572140Y-123444000D03*
X167561260Y-135280400D03*
X164721540Y-135280400D03*
D15*
X162052000Y-103228140D03*
X162052000Y-106067860D03*
D14*
X164487860Y-131064000D03*
X161648140Y-131064000D03*
D15*
X184835800Y-116207540D03*
X184835800Y-119047260D03*
D12*
X201148000Y-95944000D03*
X201148000Y-100944000D03*
X135148000Y-150944000D03*
X135148000Y-145944000D03*
D16*
X119126000Y-74930000D03*
X119126000Y-77470000D03*
X119126000Y-80010000D03*
X119126000Y-82550000D03*
X119126000Y-85090000D03*
X119126000Y-87630000D03*
X119126000Y-90170000D03*
X119126000Y-92710000D03*
X119126000Y-95250000D03*
X119126000Y-97790000D03*
X119126000Y-100330000D03*
X119126000Y-102870000D03*
X119126000Y-105410000D03*
X119126000Y-107950000D03*
X126746000Y-107950000D03*
X126746000Y-105410000D03*
X126746000Y-102870000D03*
X126746000Y-100330000D03*
X126746000Y-97790000D03*
X126746000Y-95250000D03*
X126746000Y-92710000D03*
X126746000Y-90170000D03*
X126746000Y-87630000D03*
X126746000Y-85090000D03*
X126746000Y-82550000D03*
X126746000Y-80010000D03*
X126746000Y-77470000D03*
X126746000Y-74930000D03*
D17*
X92884000Y-110236000D03*
X82884000Y-110236000D03*
D18*
X92964000Y-89408000D03*
D13*
X95504000Y-89408000D03*
D18*
X99568000Y-110236000D03*
D13*
X97028000Y-110236000D03*
D19*
X100457000Y-93853000D03*
X100457000Y-96253000D03*
X100457000Y-91453000D03*
D20*
X161674000Y-137541000D03*
X161674000Y-136271000D03*
X161674000Y-135001000D03*
X161674000Y-133731000D03*
D21*
X156209000Y-133731000D03*
X156209000Y-135001000D03*
X156209000Y-136271000D03*
X156209000Y-137541000D03*
D22*
X158314000Y-135636000D03*
D20*
X185042000Y-125857000D03*
X185042000Y-124587000D03*
X185042000Y-123317000D03*
X185042000Y-122047000D03*
D21*
X179577000Y-122047000D03*
X179577000Y-123317000D03*
X179577000Y-124587000D03*
X179577000Y-125857000D03*
D22*
X181682000Y-123952000D03*
D20*
X161674000Y-112141000D03*
X161674000Y-110871000D03*
X161674000Y-109601000D03*
X161674000Y-108331000D03*
D21*
X156209000Y-108331000D03*
X156209000Y-109601000D03*
X156209000Y-110871000D03*
X156209000Y-112141000D03*
D22*
X158314000Y-110236000D03*
D23*
X161686000Y-64984000D03*
X161686000Y-59984000D03*
X147186000Y-62484000D03*
X147186000Y-64984000D03*
D24*
X147186000Y-59984000D03*
D25*
X154686000Y-66884000D03*
X154686000Y-58084000D03*
D23*
X173624000Y-77684000D03*
X173624000Y-72684000D03*
X159124000Y-75184000D03*
X159124000Y-77684000D03*
D24*
X159124000Y-72684000D03*
D25*
X166624000Y-79584000D03*
X166624000Y-70784000D03*
D23*
X194960000Y-87336000D03*
X194960000Y-82336000D03*
X180460000Y-84836000D03*
X180460000Y-87336000D03*
D24*
X180460000Y-82336000D03*
D25*
X187960000Y-89236000D03*
X187960000Y-80436000D03*
D26*
X100076000Y-77470000D03*
D27*
X100076000Y-80010000D03*
X97536000Y-77470000D03*
X97536000Y-80010000D03*
X94996000Y-77470000D03*
X94996000Y-80010000D03*
X92456000Y-77470000D03*
X92456000Y-80010000D03*
X89916000Y-77470000D03*
X89916000Y-80010000D03*
D17*
X82804000Y-105076000D03*
X82804000Y-95076000D03*
D12*
X109728000Y-129794000D03*
X109728000Y-127284000D03*
X109728000Y-124714000D03*
X109728000Y-122174000D03*
X102108000Y-129794000D03*
X102108000Y-127284000D03*
X102108000Y-124714000D03*
X102108000Y-122174000D03*
X93218000Y-129794000D03*
X93218000Y-127284000D03*
X93218000Y-124714000D03*
X93218000Y-122174000D03*
X85598000Y-129794000D03*
X85598000Y-127284000D03*
X85598000Y-124714000D03*
X85598000Y-122174000D03*
D28*
X85090000Y-59690000D03*
X196850000Y-59690000D03*
X196850000Y-146050000D03*
X85090000Y-146050000D03*
D29*
X111582200Y-70053200D03*
X128371600Y-61696600D03*
X124968000Y-92964000D03*
X120904000Y-90932000D03*
X125984000Y-94996000D03*
X92964000Y-114808000D03*
X111887000Y-64897000D03*
X109347000Y-67818000D03*
X95504000Y-61976000D03*
X98044000Y-59436000D03*
X119380000Y-111252000D03*
X184404000Y-95504000D03*
X132588000Y-104140000D03*
X138684000Y-80264000D03*
X161544000Y-69088000D03*
X121412000Y-99060000D03*
D30*
X115316000Y-77470000D03*
X143002000Y-69596000D03*
X141732000Y-59944000D03*
X113284000Y-80010000D03*
D29*
X156718000Y-131064000D03*
X115824000Y-92964000D03*
X115824000Y-88900000D03*
D30*
X179578000Y-117856000D03*
D29*
X176377600Y-118846600D03*
D31*
X111582200Y-70053200D02*
X119938800Y-61696600D01*
X119938800Y-61696600D02*
X128371600Y-61696600D01*
D32*
X122936000Y-92964000D02*
X124968000Y-92964000D01*
X120904000Y-90932000D02*
X122936000Y-92964000D01*
D31*
X161674000Y-109601000D02*
X165508940Y-109601000D01*
X165508940Y-109601000D02*
X165686740Y-109778800D01*
X161674000Y-135001000D02*
X164442140Y-135001000D01*
X164442140Y-135001000D02*
X164721540Y-135280400D01*
X185042000Y-123317000D02*
X188445140Y-123317000D01*
X188445140Y-123317000D02*
X188572140Y-123444000D01*
D32*
X164442140Y-135001000D02*
X164721540Y-135280400D01*
X188445140Y-123317000D02*
X188572140Y-123444000D01*
X165508940Y-109601000D02*
X165686740Y-109778800D01*
X165508940Y-109601000D02*
X165686740Y-109778800D01*
X164467540Y-135001000D02*
X164772340Y-135305800D01*
X185169000Y-123444000D02*
X185042000Y-123317000D01*
D33*
X118500000Y-122190000D02*
X109901998Y-122190000D01*
X109901998Y-122190000D02*
X109728000Y-122363998D01*
X109728000Y-122363998D02*
X109728000Y-122174000D01*
X118500000Y-122190000D02*
X118500000Y-121500000D01*
X118500000Y-121500000D02*
X113000000Y-116000000D01*
X113000000Y-116000000D02*
X105840000Y-116000000D01*
X85598000Y-122174000D02*
X92964000Y-114808000D01*
X93218000Y-115062000D02*
X93218000Y-122174000D01*
X92964000Y-114808000D02*
X93218000Y-115062000D01*
X102108000Y-122174000D02*
X100330000Y-122174000D01*
X100330000Y-122174000D02*
X93980000Y-115824000D01*
X109728000Y-122174000D02*
X109728000Y-119888000D01*
X93980000Y-115824000D02*
X92964000Y-114808000D01*
X109728000Y-119888000D02*
X105840000Y-116000000D01*
X105840000Y-116000000D02*
X105664000Y-115824000D01*
X105664000Y-115824000D02*
X93980000Y-115824000D01*
X85598000Y-122174000D02*
X109728000Y-122174000D01*
D32*
X111887000Y-65278000D02*
X111887000Y-64897000D01*
X109347000Y-67818000D02*
X111887000Y-65278000D01*
X95504000Y-61976000D02*
X98044000Y-59436000D01*
X121920000Y-113792000D02*
X119380000Y-111252000D01*
X131064000Y-113792000D02*
X121920000Y-113792000D01*
X150368000Y-94488000D02*
X131064000Y-113792000D01*
X183388000Y-94488000D02*
X150368000Y-94488000D01*
X184404000Y-95504000D02*
X183388000Y-94488000D01*
X138684000Y-80264000D02*
X132588000Y-86360000D01*
X132588000Y-86360000D02*
X132588000Y-104140000D01*
X123952000Y-108712000D02*
X123952000Y-101600000D01*
X127000000Y-111760000D02*
X123952000Y-108712000D01*
X161544000Y-80772000D02*
X130556000Y-111760000D01*
X161544000Y-69596000D02*
X161544000Y-80772000D01*
X161544000Y-69088000D02*
X161544000Y-69596000D01*
X130556000Y-111760000D02*
X127000000Y-111760000D01*
X123952000Y-101600000D02*
X121412000Y-99060000D01*
X114554000Y-76708000D02*
X115316000Y-77470000D01*
X114300000Y-76708000D02*
X114554000Y-76708000D01*
X114300000Y-74930000D02*
X114300000Y-76708000D01*
X117348000Y-71882000D02*
X114300000Y-74930000D01*
X140716000Y-71882000D02*
X117348000Y-71882000D01*
X143002000Y-69596000D02*
X140716000Y-71882000D01*
X110998000Y-77724000D02*
X113284000Y-80010000D01*
X110998000Y-74676000D02*
X110998000Y-77724000D01*
X118364000Y-67310000D02*
X110998000Y-74676000D01*
X134366000Y-67310000D02*
X118364000Y-67310000D01*
X141732000Y-59944000D02*
X134366000Y-67310000D01*
X161648140Y-131064000D02*
X156718000Y-131064000D01*
X115824000Y-88900000D02*
X115824000Y-92964000D01*
X163296600Y-137236200D02*
X166065200Y-137236200D01*
X161674000Y-136271000D02*
X162331400Y-136271000D01*
X162331400Y-136271000D02*
X163296600Y-137236200D01*
X166141400Y-137160000D02*
X166141400Y-132810250D01*
X166065200Y-137236200D02*
X166141400Y-137160000D01*
X161674000Y-133731000D02*
X162534600Y-133731000D01*
X163455350Y-132810250D02*
X166141400Y-132810250D01*
X162534600Y-133731000D02*
X163455350Y-132810250D01*
X161648140Y-131064000D02*
X161648140Y-133705140D01*
X161648140Y-133705140D02*
X161674000Y-133731000D01*
X180769260Y-119047260D02*
X184835800Y-119047260D01*
X179578000Y-117856000D02*
X180769260Y-119047260D01*
X189992000Y-121412000D02*
X189992000Y-125476000D01*
X186309000Y-122047000D02*
X186944000Y-121412000D01*
X186944000Y-121412000D02*
X189992000Y-121412000D01*
X185042000Y-122047000D02*
X186309000Y-122047000D01*
X186055000Y-124587000D02*
X187452000Y-125984000D01*
X187452000Y-125984000D02*
X189484000Y-125984000D01*
X189484000Y-125984000D02*
X189992000Y-125476000D01*
X186055000Y-124587000D02*
X185042000Y-124587000D01*
X184912000Y-119275860D02*
X184912000Y-121917000D01*
X184912000Y-121917000D02*
X185042000Y-122047000D01*
D33*
X158314000Y-135636000D02*
X132080000Y-135636000D01*
X126238000Y-129794000D02*
X109728000Y-129794000D01*
X132080000Y-135636000D02*
X126238000Y-129794000D01*
X156209000Y-137541000D02*
X156209000Y-136271000D01*
X156209000Y-136271000D02*
X156209000Y-135001000D01*
X156209000Y-135001000D02*
X156844000Y-135636000D01*
X156844000Y-135636000D02*
X158314000Y-135636000D01*
X156209000Y-133731000D02*
X156209000Y-137541000D01*
X102108000Y-129794000D02*
X93218000Y-129794000D01*
X93218000Y-129794000D02*
X85598000Y-129794000D01*
D34*
X109728000Y-129794000D02*
X102197998Y-129794000D01*
X102197998Y-129794000D02*
X102108000Y-129704002D01*
D33*
X109728000Y-127284000D02*
X118484000Y-127284000D01*
X118484000Y-127284000D02*
X118500000Y-127300000D01*
X179577000Y-122047000D02*
X179577000Y-123317000D01*
X179577000Y-123317000D02*
X179577000Y-124587000D01*
X179577000Y-124587000D02*
X179577000Y-125857000D01*
X179577000Y-125857000D02*
X181482000Y-123952000D01*
X181482000Y-123952000D02*
X181682000Y-123952000D01*
X179577000Y-122047000D02*
X179577000Y-125857000D01*
X109728000Y-127254000D02*
X176022000Y-127254000D01*
X176022000Y-127254000D02*
X179832000Y-123444000D01*
X179832000Y-123444000D02*
X179577000Y-123317000D01*
D34*
X109728000Y-127254000D02*
X102108000Y-127254000D01*
X102108000Y-127254000D02*
X93218000Y-127254000D01*
X93218000Y-127254000D02*
X85598000Y-127254000D01*
D33*
X118500000Y-124730000D02*
X109744000Y-124730000D01*
X109744000Y-124730000D02*
X109728000Y-124714000D01*
X156209000Y-109601000D02*
X156209000Y-110871000D01*
X156209000Y-110871000D02*
X156209000Y-108331000D01*
X156209000Y-108331000D02*
X156209000Y-110236000D01*
X158314000Y-110236000D02*
X156209000Y-110236000D01*
X127254000Y-124714000D02*
X141732000Y-110236000D01*
X156209000Y-110236000D02*
X141732000Y-110236000D01*
X127254000Y-124714000D02*
X109728000Y-124714000D01*
X156209000Y-108331000D02*
X156209000Y-112141000D01*
X93218000Y-124714000D02*
X85598000Y-124714000D01*
D34*
X109728000Y-124714000D02*
X102108000Y-124714000D01*
X102108000Y-124714000D02*
X93218000Y-124714000D01*
D33*
X82804000Y-110156000D02*
X82884000Y-110236000D01*
D32*
X176377600Y-118846600D02*
X176377600Y-117221000D01*
X170992800Y-111836200D02*
X166547800Y-111836200D01*
X176377600Y-117221000D02*
X170992800Y-111836200D01*
X161674000Y-110871000D02*
X162610800Y-110871000D01*
X162610800Y-110871000D02*
X163576000Y-111836200D01*
X163576000Y-111836200D02*
X166547800Y-111836200D01*
X162232800Y-107772200D02*
X161674000Y-108331000D01*
X166547800Y-111836200D02*
X167106600Y-111277400D01*
X167106600Y-111277400D02*
X167106600Y-108254800D01*
X167106600Y-108254800D02*
X166624000Y-107772200D01*
X166624000Y-107772200D02*
X162232800Y-107772200D01*
X161750200Y-108280200D02*
X161674000Y-108331000D01*
X161674000Y-106575860D02*
X161674000Y-108461000D01*
D35*
G36*
X203637000Y-152837000D02*
X78303000Y-152837000D01*
X78303000Y-151252546D01*
X133589730Y-151252546D01*
X133826422Y-151825383D01*
X134264312Y-152264038D01*
X134836735Y-152501729D01*
X135456546Y-152502270D01*
X136029383Y-152265578D01*
X136468038Y-151827688D01*
X136705729Y-151255265D01*
X136706270Y-150635454D01*
X136469578Y-150062617D01*
X136031688Y-149623962D01*
X135459265Y-149386271D01*
X134839454Y-149385730D01*
X134266617Y-149622422D01*
X133827962Y-150060312D01*
X133590271Y-150632735D01*
X133589730Y-151252546D01*
X78303000Y-151252546D01*
X78303000Y-146828890D01*
X81156319Y-146828890D01*
X81753821Y-148274955D01*
X82859226Y-149382291D01*
X84304246Y-149982316D01*
X85868890Y-149983681D01*
X87314955Y-149386179D01*
X88422291Y-148280774D01*
X89022316Y-146835754D01*
X89022824Y-146252546D01*
X133589730Y-146252546D01*
X133826422Y-146825383D01*
X134264312Y-147264038D01*
X134836735Y-147501729D01*
X135456546Y-147502270D01*
X136029383Y-147265578D01*
X136466833Y-146828890D01*
X192916319Y-146828890D01*
X193513821Y-148274955D01*
X194619226Y-149382291D01*
X196064246Y-149982316D01*
X197628890Y-149983681D01*
X199074955Y-149386179D01*
X200182291Y-148280774D01*
X200782316Y-146835754D01*
X200783681Y-145271110D01*
X200186179Y-143825045D01*
X199080774Y-142717709D01*
X197635754Y-142117684D01*
X196071110Y-142116319D01*
X194625045Y-142713821D01*
X193517709Y-143819226D01*
X192917684Y-145264246D01*
X192916319Y-146828890D01*
X136466833Y-146828890D01*
X136468038Y-146827688D01*
X136705729Y-146255265D01*
X136706270Y-145635454D01*
X136469578Y-145062617D01*
X136031688Y-144623962D01*
X135459265Y-144386271D01*
X134839454Y-144385730D01*
X134266617Y-144622422D01*
X133827962Y-145060312D01*
X133590271Y-145632735D01*
X133589730Y-146252546D01*
X89022824Y-146252546D01*
X89023681Y-145271110D01*
X88426179Y-143825045D01*
X87320774Y-142717709D01*
X85875754Y-142117684D01*
X84311110Y-142116319D01*
X82865045Y-142713821D01*
X81757709Y-143819226D01*
X81157684Y-145264246D01*
X81156319Y-146828890D01*
X78303000Y-146828890D01*
X78303000Y-133637000D01*
X79152713Y-133637000D01*
X79152713Y-141653000D01*
X130397288Y-141653000D01*
X130397288Y-136368765D01*
X130872262Y-136843739D01*
X131426377Y-137213986D01*
X132080000Y-137344000D01*
X154501000Y-137344000D01*
X154501000Y-137541000D01*
X154631014Y-138194623D01*
X155001262Y-138748738D01*
X155555377Y-139118986D01*
X156209000Y-139249000D01*
X156862623Y-139118986D01*
X157416738Y-138748738D01*
X157673912Y-138363850D01*
X160219000Y-138363850D01*
X160442770Y-138321744D01*
X160609627Y-138488601D01*
X160888224Y-138604000D01*
X161480500Y-138604000D01*
X161670000Y-138414500D01*
X161670000Y-137545000D01*
X161650000Y-137545000D01*
X161650000Y-137537000D01*
X161670000Y-137537000D01*
X161670000Y-137517000D01*
X161678000Y-137517000D01*
X161678000Y-137537000D01*
X161698000Y-137537000D01*
X161698000Y-137545000D01*
X161678000Y-137545000D01*
X161678000Y-138414500D01*
X161867500Y-138604000D01*
X162459776Y-138604000D01*
X162738373Y-138488601D01*
X162951602Y-138275372D01*
X163008926Y-138136978D01*
X163296600Y-138194200D01*
X166065200Y-138194200D01*
X166431811Y-138121277D01*
X166742608Y-137913608D01*
X166818808Y-137837408D01*
X167026477Y-137526611D01*
X167099400Y-137160000D01*
X167099400Y-136938830D01*
X167367760Y-136938830D01*
X167557260Y-136749330D01*
X167557260Y-135284400D01*
X167565260Y-135284400D01*
X167565260Y-136749330D01*
X167754760Y-136938830D01*
X168510866Y-136938830D01*
X168789463Y-136823431D01*
X169002692Y-136610202D01*
X169118090Y-136331605D01*
X169118090Y-135473900D01*
X168928590Y-135284400D01*
X167565260Y-135284400D01*
X167557260Y-135284400D01*
X167537260Y-135284400D01*
X167537260Y-135276400D01*
X167557260Y-135276400D01*
X167557260Y-133811470D01*
X167565260Y-133811470D01*
X167565260Y-135276400D01*
X168928590Y-135276400D01*
X169118090Y-135086900D01*
X169118090Y-134229195D01*
X169002692Y-133950598D01*
X168789463Y-133737369D01*
X168510866Y-133621970D01*
X167754760Y-133621970D01*
X167565260Y-133811470D01*
X167557260Y-133811470D01*
X167367760Y-133621970D01*
X167099400Y-133621970D01*
X167099400Y-132810250D01*
X167026477Y-132443639D01*
X166818808Y-132132842D01*
X166508011Y-131925173D01*
X166141400Y-131852250D01*
X166044690Y-131852250D01*
X166044690Y-131257500D01*
X165855190Y-131068000D01*
X164491860Y-131068000D01*
X164491860Y-131088000D01*
X164483860Y-131088000D01*
X164483860Y-131068000D01*
X164463860Y-131068000D01*
X164463860Y-131060000D01*
X164483860Y-131060000D01*
X164483860Y-129595070D01*
X164491860Y-129595070D01*
X164491860Y-131060000D01*
X165855190Y-131060000D01*
X166044690Y-130870500D01*
X166044690Y-130012795D01*
X165929292Y-129734198D01*
X165716063Y-129520969D01*
X165437466Y-129405570D01*
X164681360Y-129405570D01*
X164491860Y-129595070D01*
X164483860Y-129595070D01*
X164294360Y-129405570D01*
X163538254Y-129405570D01*
X163259657Y-129520969D01*
X163061638Y-129718988D01*
X163000955Y-129624684D01*
X162747652Y-129451610D01*
X162446970Y-129390720D01*
X160849310Y-129390720D01*
X160568412Y-129443575D01*
X160310424Y-129609585D01*
X160137350Y-129862888D01*
X160088118Y-130106000D01*
X157169754Y-130106000D01*
X156929372Y-130006184D01*
X156508474Y-130005817D01*
X156119474Y-130166549D01*
X155821595Y-130463909D01*
X155660184Y-130852628D01*
X155659817Y-131273526D01*
X155820549Y-131662526D01*
X156117909Y-131960405D01*
X156323506Y-132045777D01*
X156209000Y-132023000D01*
X155555377Y-132153014D01*
X155001262Y-132523262D01*
X154631014Y-133077377D01*
X154501000Y-133731000D01*
X154501000Y-133928000D01*
X132787477Y-133928000D01*
X127821476Y-128962000D01*
X176022000Y-128962000D01*
X176675623Y-128831986D01*
X177229738Y-128461738D01*
X178523608Y-127167869D01*
X178923377Y-127434986D01*
X179577000Y-127565000D01*
X180230623Y-127434986D01*
X180784738Y-127064738D01*
X181169626Y-126679850D01*
X183587000Y-126679850D01*
X183810770Y-126637744D01*
X183977627Y-126804601D01*
X184256224Y-126920000D01*
X184848500Y-126920000D01*
X185038000Y-126730500D01*
X185038000Y-125861000D01*
X185018000Y-125861000D01*
X185018000Y-125853000D01*
X185038000Y-125853000D01*
X185038000Y-125833000D01*
X185046000Y-125833000D01*
X185046000Y-125853000D01*
X185066000Y-125853000D01*
X185066000Y-125861000D01*
X185046000Y-125861000D01*
X185046000Y-126730500D01*
X185235500Y-126920000D01*
X185827776Y-126920000D01*
X186106373Y-126804601D01*
X186319602Y-126591372D01*
X186432352Y-126319168D01*
X186774591Y-126661408D01*
X186988894Y-126804601D01*
X187085389Y-126869077D01*
X187452000Y-126942000D01*
X189484000Y-126942000D01*
X189850611Y-126869077D01*
X190161408Y-126661408D01*
X190669408Y-126153409D01*
X190877077Y-125842611D01*
X190886599Y-125794738D01*
X190950000Y-125476000D01*
X190950000Y-125102430D01*
X191218360Y-125102430D01*
X191407860Y-124912930D01*
X191407860Y-123448000D01*
X191415860Y-123448000D01*
X191415860Y-124912930D01*
X191605360Y-125102430D01*
X192361466Y-125102430D01*
X192640063Y-124987031D01*
X192853292Y-124773802D01*
X192968690Y-124495205D01*
X192968690Y-123637500D01*
X192779190Y-123448000D01*
X191415860Y-123448000D01*
X191407860Y-123448000D01*
X191387860Y-123448000D01*
X191387860Y-123440000D01*
X191407860Y-123440000D01*
X191407860Y-121975070D01*
X191415860Y-121975070D01*
X191415860Y-123440000D01*
X192779190Y-123440000D01*
X192968690Y-123250500D01*
X192968690Y-122392795D01*
X192853292Y-122114198D01*
X192640063Y-121900969D01*
X192361466Y-121785570D01*
X191605360Y-121785570D01*
X191415860Y-121975070D01*
X191407860Y-121975070D01*
X191218360Y-121785570D01*
X190950000Y-121785570D01*
X190950000Y-121412000D01*
X190877077Y-121045389D01*
X190669408Y-120734592D01*
X190358611Y-120526923D01*
X189992000Y-120454000D01*
X186944000Y-120454000D01*
X186577389Y-120526923D01*
X186266592Y-120734591D01*
X185972245Y-121028939D01*
X185870000Y-121008234D01*
X185870000Y-120593769D01*
X186017128Y-120566085D01*
X186275116Y-120400075D01*
X186448190Y-120146772D01*
X186509080Y-119846090D01*
X186509080Y-118248430D01*
X186456225Y-117967532D01*
X186290215Y-117709544D01*
X186180200Y-117634374D01*
X186378831Y-117435743D01*
X186494230Y-117157146D01*
X186494230Y-116401040D01*
X186304730Y-116211540D01*
X184839800Y-116211540D01*
X184839800Y-116231540D01*
X184831800Y-116231540D01*
X184831800Y-116211540D01*
X183366870Y-116211540D01*
X183177370Y-116401040D01*
X183177370Y-117157146D01*
X183292769Y-117435743D01*
X183490788Y-117633762D01*
X183396484Y-117694445D01*
X183223410Y-117947748D01*
X183194753Y-118089260D01*
X181166076Y-118089260D01*
X180736172Y-117659356D01*
X180736201Y-117626670D01*
X180560277Y-117200902D01*
X180234811Y-116874867D01*
X179809351Y-116698201D01*
X179348670Y-116697799D01*
X178922902Y-116873723D01*
X178596867Y-117199189D01*
X178420201Y-117624649D01*
X178419799Y-118085330D01*
X178595723Y-118511098D01*
X178921189Y-118837133D01*
X179346649Y-119013799D01*
X179381013Y-119013829D01*
X180091852Y-119724668D01*
X180402649Y-119932337D01*
X180769260Y-120005260D01*
X183192470Y-120005260D01*
X183215375Y-120126988D01*
X183381385Y-120384976D01*
X183634688Y-120558050D01*
X183935370Y-120618940D01*
X183954000Y-120618940D01*
X183954000Y-121132749D01*
X183868114Y-121188015D01*
X183812256Y-121269766D01*
X183587000Y-121224150D01*
X181041912Y-121224150D01*
X180784738Y-120839262D01*
X180230623Y-120469014D01*
X179577000Y-120339000D01*
X178923377Y-120469014D01*
X178369262Y-120839262D01*
X177999014Y-121393377D01*
X177869000Y-122047000D01*
X177869000Y-122991523D01*
X175314524Y-125546000D01*
X128837476Y-125546000D01*
X142439476Y-111944000D01*
X154501000Y-111944000D01*
X154501000Y-112141000D01*
X154631014Y-112794623D01*
X155001262Y-113348738D01*
X155555377Y-113718986D01*
X156209000Y-113849000D01*
X156862623Y-113718986D01*
X157416738Y-113348738D01*
X157673912Y-112963850D01*
X160219000Y-112963850D01*
X160442770Y-112921744D01*
X160609627Y-113088601D01*
X160888224Y-113204000D01*
X161480500Y-113204000D01*
X161670000Y-113014500D01*
X161670000Y-112145000D01*
X161650000Y-112145000D01*
X161650000Y-112137000D01*
X161670000Y-112137000D01*
X161670000Y-112117000D01*
X161678000Y-112117000D01*
X161678000Y-112137000D01*
X161698000Y-112137000D01*
X161698000Y-112145000D01*
X161678000Y-112145000D01*
X161678000Y-113014500D01*
X161867500Y-113204000D01*
X162459776Y-113204000D01*
X162738373Y-113088601D01*
X162951602Y-112875372D01*
X163057475Y-112619771D01*
X163209389Y-112721277D01*
X163576000Y-112794200D01*
X170595984Y-112794200D01*
X175419600Y-117617816D01*
X175419600Y-118394846D01*
X175319784Y-118635228D01*
X175319417Y-119056126D01*
X175480149Y-119445126D01*
X175777509Y-119743005D01*
X176166228Y-119904416D01*
X176587126Y-119904783D01*
X176976126Y-119744051D01*
X177274005Y-119446691D01*
X177435416Y-119057972D01*
X177435783Y-118637074D01*
X177335600Y-118394613D01*
X177335600Y-117221000D01*
X177262677Y-116854389D01*
X177055008Y-116543592D01*
X175769350Y-115257934D01*
X183177370Y-115257934D01*
X183177370Y-116014040D01*
X183366870Y-116203540D01*
X184831800Y-116203540D01*
X184831800Y-114840210D01*
X184839800Y-114840210D01*
X184839800Y-116203540D01*
X186304730Y-116203540D01*
X186494230Y-116014040D01*
X186494230Y-115257934D01*
X186378831Y-114979337D01*
X186165602Y-114766108D01*
X185887005Y-114650710D01*
X185029300Y-114650710D01*
X184839800Y-114840210D01*
X184831800Y-114840210D01*
X184642300Y-114650710D01*
X183784595Y-114650710D01*
X183505998Y-114766108D01*
X183292769Y-114979337D01*
X183177370Y-115257934D01*
X175769350Y-115257934D01*
X171670208Y-111158792D01*
X171359411Y-110951123D01*
X170992800Y-110878200D01*
X170063327Y-110878200D01*
X170083290Y-110830005D01*
X170083290Y-109972300D01*
X169893790Y-109782800D01*
X168530460Y-109782800D01*
X168530460Y-109802800D01*
X168522460Y-109802800D01*
X168522460Y-109782800D01*
X168502460Y-109782800D01*
X168502460Y-109774800D01*
X168522460Y-109774800D01*
X168522460Y-108309870D01*
X168530460Y-108309870D01*
X168530460Y-109774800D01*
X169893790Y-109774800D01*
X170083290Y-109585300D01*
X170083290Y-108727595D01*
X169967892Y-108448998D01*
X169754663Y-108235769D01*
X169476066Y-108120370D01*
X168719960Y-108120370D01*
X168530460Y-108309870D01*
X168522460Y-108309870D01*
X168332960Y-108120370D01*
X168037860Y-108120370D01*
X167991677Y-107888189D01*
X167914175Y-107772200D01*
X167784008Y-107577391D01*
X167301408Y-107094792D01*
X166990611Y-106887123D01*
X166624000Y-106814200D01*
X163725280Y-106814200D01*
X163725280Y-105269030D01*
X163672425Y-104988132D01*
X163506415Y-104730144D01*
X163396400Y-104654974D01*
X163595031Y-104456343D01*
X163710430Y-104177746D01*
X163710430Y-103421640D01*
X163520930Y-103232140D01*
X162056000Y-103232140D01*
X162056000Y-103252140D01*
X162048000Y-103252140D01*
X162048000Y-103232140D01*
X160583070Y-103232140D01*
X160393570Y-103421640D01*
X160393570Y-104177746D01*
X160508969Y-104456343D01*
X160706988Y-104654362D01*
X160612684Y-104715045D01*
X160439610Y-104968348D01*
X160378720Y-105269030D01*
X160378720Y-106866690D01*
X160431575Y-107147588D01*
X160597585Y-107405576D01*
X160600388Y-107407491D01*
X160500114Y-107472015D01*
X160444256Y-107553766D01*
X160219000Y-107508150D01*
X157673912Y-107508150D01*
X157416738Y-107123262D01*
X156862623Y-106753014D01*
X156209000Y-106623000D01*
X155555377Y-106753014D01*
X155001262Y-107123262D01*
X154631014Y-107677377D01*
X154501000Y-108331000D01*
X154501000Y-108528000D01*
X141732000Y-108528000D01*
X141189049Y-108636000D01*
X141078377Y-108658014D01*
X140524262Y-109028262D01*
X126546524Y-123006000D01*
X119969489Y-123006000D01*
X120077986Y-122843623D01*
X120208000Y-122190000D01*
X120208000Y-121500000D01*
X120077986Y-120846377D01*
X119934925Y-120632271D01*
X119707739Y-120292262D01*
X114207738Y-114792262D01*
X113653623Y-114422014D01*
X113585060Y-114408376D01*
X113000000Y-114292000D01*
X106386446Y-114292000D01*
X106317623Y-114246014D01*
X105664000Y-114116000D01*
X94687476Y-114116000D01*
X94425740Y-113854264D01*
X94425738Y-113854261D01*
X94171738Y-113600262D01*
X93617623Y-113230014D01*
X92964000Y-113100001D01*
X92310377Y-113230014D01*
X91756262Y-113600262D01*
X84390262Y-120966262D01*
X84020014Y-121520377D01*
X83890000Y-122174000D01*
X84020014Y-122827623D01*
X84390262Y-123381738D01*
X84483444Y-123444000D01*
X84390262Y-123506262D01*
X84020014Y-124060377D01*
X83890000Y-124714000D01*
X84020014Y-125367623D01*
X84390262Y-125921738D01*
X84439309Y-125954510D01*
X84354906Y-126010906D01*
X83973820Y-126581243D01*
X83840000Y-127254000D01*
X83973820Y-127926757D01*
X84354906Y-128497094D01*
X84439309Y-128553490D01*
X84390262Y-128586262D01*
X84020014Y-129140377D01*
X83890000Y-129794000D01*
X84020014Y-130447623D01*
X84390262Y-131001738D01*
X84944377Y-131371986D01*
X85598000Y-131502000D01*
X101946632Y-131502000D01*
X102197998Y-131552000D01*
X109728000Y-131552000D01*
X109979366Y-131502000D01*
X125530524Y-131502000D01*
X127665524Y-133637000D01*
X79152713Y-133637000D01*
X78303000Y-133637000D01*
X78303000Y-110683174D01*
X80625609Y-110683174D01*
X80968644Y-111513383D01*
X81603276Y-112149123D01*
X82432886Y-112493607D01*
X83331174Y-112494391D01*
X84161383Y-112151356D01*
X84797123Y-111516724D01*
X85141607Y-110687114D01*
X85141610Y-110683174D01*
X90625609Y-110683174D01*
X90968644Y-111513383D01*
X91603276Y-112149123D01*
X92432886Y-112493607D01*
X93331174Y-112494391D01*
X94161383Y-112151356D01*
X94797123Y-111516724D01*
X95141607Y-110687114D01*
X95141696Y-110584154D01*
X95269696Y-110584154D01*
X95536771Y-111230526D01*
X96030873Y-111725491D01*
X96676778Y-111993694D01*
X97376154Y-111994304D01*
X97991577Y-111740017D01*
X98014015Y-111774886D01*
X98267318Y-111947960D01*
X98568000Y-112008850D01*
X100568000Y-112008850D01*
X100848898Y-111955995D01*
X101106886Y-111789985D01*
X101279960Y-111536682D01*
X101340850Y-111236000D01*
X101340850Y-109236000D01*
X101287995Y-108955102D01*
X101121985Y-108697114D01*
X100868682Y-108524040D01*
X100568000Y-108463150D01*
X98568000Y-108463150D01*
X98287102Y-108516005D01*
X98029114Y-108682015D01*
X97993905Y-108733545D01*
X97379222Y-108478306D01*
X96679846Y-108477696D01*
X96033474Y-108744771D01*
X95538509Y-109238873D01*
X95270306Y-109884778D01*
X95269696Y-110584154D01*
X95141696Y-110584154D01*
X95142391Y-109788826D01*
X94799356Y-108958617D01*
X94164724Y-108322877D01*
X93335114Y-107978393D01*
X92436826Y-107977609D01*
X91606617Y-108320644D01*
X90970877Y-108955276D01*
X90626393Y-109784886D01*
X90625609Y-110683174D01*
X85141610Y-110683174D01*
X85142391Y-109788826D01*
X84799356Y-108958617D01*
X84164724Y-108322877D01*
X83335114Y-107978393D01*
X82436826Y-107977609D01*
X81606617Y-108320644D01*
X80970877Y-108955276D01*
X80626393Y-109784886D01*
X80625609Y-110683174D01*
X78303000Y-110683174D01*
X78303000Y-105523174D01*
X80545609Y-105523174D01*
X80888644Y-106353383D01*
X81523276Y-106989123D01*
X82352886Y-107333607D01*
X83251174Y-107334391D01*
X84081383Y-106991356D01*
X84717123Y-106356724D01*
X85061607Y-105527114D01*
X85062391Y-104628826D01*
X84719356Y-103798617D01*
X84084724Y-103162877D01*
X83255114Y-102818393D01*
X82356826Y-102817609D01*
X81526617Y-103160644D01*
X80890877Y-103795276D01*
X80546393Y-104624886D01*
X80545609Y-105523174D01*
X78303000Y-105523174D01*
X78303000Y-96572756D01*
X81312901Y-96572756D01*
X81454016Y-96940897D01*
X82270443Y-97315556D01*
X83168099Y-97349263D01*
X84010324Y-97036886D01*
X84153984Y-96940897D01*
X84295099Y-96572756D01*
X82804000Y-95081657D01*
X81312901Y-96572756D01*
X78303000Y-96572756D01*
X78303000Y-95440099D01*
X80530737Y-95440099D01*
X80843114Y-96282324D01*
X80939103Y-96425984D01*
X81307244Y-96567099D01*
X82798343Y-95076000D01*
X82809657Y-95076000D01*
X84300756Y-96567099D01*
X84341075Y-96551644D01*
X98948739Y-96551644D01*
X99177835Y-97106097D01*
X99601672Y-97530674D01*
X100155724Y-97760737D01*
X100755644Y-97761261D01*
X101310097Y-97532165D01*
X101734674Y-97108328D01*
X101964737Y-96554276D01*
X101965261Y-95954356D01*
X101736165Y-95399903D01*
X101369039Y-95032136D01*
X101407378Y-94809035D01*
X100457000Y-93858657D01*
X99506622Y-94809035D01*
X99545040Y-95032595D01*
X99179326Y-95397672D01*
X98949263Y-95951724D01*
X98948739Y-96551644D01*
X84341075Y-96551644D01*
X84668897Y-96425984D01*
X85043556Y-95609557D01*
X85077263Y-94711901D01*
X84849376Y-94097475D01*
X98939017Y-94097475D01*
X99148123Y-94659773D01*
X99210754Y-94753506D01*
X99500965Y-94803378D01*
X100451343Y-93853000D01*
X100462657Y-93853000D01*
X101413035Y-94803378D01*
X101703246Y-94753506D01*
X101952990Y-94208042D01*
X101974983Y-93608525D01*
X101765877Y-93046227D01*
X101703246Y-92952494D01*
X101413035Y-92902622D01*
X100462657Y-93853000D01*
X100451343Y-93853000D01*
X99500965Y-92902622D01*
X99210754Y-92952494D01*
X98961010Y-93497958D01*
X98939017Y-94097475D01*
X84849376Y-94097475D01*
X84764886Y-93869676D01*
X84668897Y-93726016D01*
X84300756Y-93584901D01*
X82809657Y-95076000D01*
X82798343Y-95076000D01*
X81307244Y-93584901D01*
X80939103Y-93726016D01*
X80564444Y-94542443D01*
X80530737Y-95440099D01*
X78303000Y-95440099D01*
X78303000Y-93579244D01*
X81312901Y-93579244D01*
X82804000Y-95070343D01*
X84295099Y-93579244D01*
X84153984Y-93211103D01*
X83337557Y-92836444D01*
X82439901Y-92802737D01*
X81597676Y-93115114D01*
X81454016Y-93211103D01*
X81312901Y-93579244D01*
X78303000Y-93579244D01*
X78303000Y-91751644D01*
X98948739Y-91751644D01*
X99177835Y-92306097D01*
X99544961Y-92673864D01*
X99506622Y-92896965D01*
X100457000Y-93847343D01*
X101407378Y-92896965D01*
X101368960Y-92673405D01*
X101734674Y-92308328D01*
X101964737Y-91754276D01*
X101965261Y-91154356D01*
X101736165Y-90599903D01*
X101312328Y-90175326D01*
X100758276Y-89945263D01*
X100158356Y-89944739D01*
X99603903Y-90173835D01*
X99179326Y-90597672D01*
X98949263Y-91151724D01*
X98948739Y-91751644D01*
X78303000Y-91751644D01*
X78303000Y-88408000D01*
X91191150Y-88408000D01*
X91191150Y-90408000D01*
X91244005Y-90688898D01*
X91410015Y-90946886D01*
X91663318Y-91119960D01*
X91964000Y-91180850D01*
X93964000Y-91180850D01*
X94244898Y-91127995D01*
X94502886Y-90961985D01*
X94538095Y-90910455D01*
X95152778Y-91165694D01*
X95852154Y-91166304D01*
X96498526Y-90899229D01*
X96993491Y-90405127D01*
X97261694Y-89759222D01*
X97262260Y-89109526D01*
X114765817Y-89109526D01*
X114866000Y-89351987D01*
X114866000Y-92512246D01*
X114766184Y-92752628D01*
X114765817Y-93173526D01*
X114926549Y-93562526D01*
X115223909Y-93860405D01*
X115612628Y-94021816D01*
X116033526Y-94022183D01*
X116422526Y-93861451D01*
X116720405Y-93564091D01*
X116881816Y-93175372D01*
X116882183Y-92754474D01*
X116782000Y-92512013D01*
X116782000Y-89351754D01*
X116881816Y-89111372D01*
X116882183Y-88690474D01*
X116721451Y-88301474D01*
X116424091Y-88003595D01*
X116035372Y-87842184D01*
X115614474Y-87841817D01*
X115225474Y-88002549D01*
X114927595Y-88299909D01*
X114766184Y-88688628D01*
X114765817Y-89109526D01*
X97262260Y-89109526D01*
X97262304Y-89059846D01*
X96995229Y-88413474D01*
X96501127Y-87918509D01*
X95855222Y-87650306D01*
X95155846Y-87649696D01*
X94540423Y-87903983D01*
X94517985Y-87869114D01*
X94264682Y-87696040D01*
X93964000Y-87635150D01*
X91964000Y-87635150D01*
X91683102Y-87688005D01*
X91425114Y-87854015D01*
X91252040Y-88107318D01*
X91191150Y-88408000D01*
X78303000Y-88408000D01*
X78303000Y-80267624D01*
X88314995Y-80267624D01*
X88338276Y-80384664D01*
X88601751Y-80959913D01*
X89065308Y-81390547D01*
X89658376Y-81611005D01*
X89912000Y-81442095D01*
X89912000Y-80014000D01*
X89920000Y-80014000D01*
X89920000Y-81442095D01*
X90173624Y-81611005D01*
X90766692Y-81390547D01*
X91186000Y-81001019D01*
X91605308Y-81390547D01*
X92198376Y-81611005D01*
X92452000Y-81442095D01*
X92452000Y-80014000D01*
X92460000Y-80014000D01*
X92460000Y-81442095D01*
X92713624Y-81611005D01*
X93306692Y-81390547D01*
X93726000Y-81001019D01*
X94145308Y-81390547D01*
X94738376Y-81611005D01*
X94992000Y-81442095D01*
X94992000Y-80014000D01*
X95000000Y-80014000D01*
X95000000Y-81442095D01*
X95253624Y-81611005D01*
X95846692Y-81390547D01*
X96266000Y-81001019D01*
X96685308Y-81390547D01*
X97278376Y-81611005D01*
X97532000Y-81442095D01*
X97532000Y-80014000D01*
X95000000Y-80014000D01*
X94992000Y-80014000D01*
X92460000Y-80014000D01*
X92452000Y-80014000D01*
X89920000Y-80014000D01*
X89912000Y-80014000D01*
X88483906Y-80014000D01*
X88314995Y-80267624D01*
X78303000Y-80267624D01*
X78303000Y-77470000D01*
X88262631Y-77470000D01*
X88386068Y-78090559D01*
X88737587Y-78616644D01*
X88936224Y-78749369D01*
X88601751Y-79060087D01*
X88338276Y-79635336D01*
X88314995Y-79752376D01*
X88483906Y-80006000D01*
X89912000Y-80006000D01*
X89912000Y-79986000D01*
X89920000Y-79986000D01*
X89920000Y-80006000D01*
X92452000Y-80006000D01*
X92452000Y-79986000D01*
X92460000Y-79986000D01*
X92460000Y-80006000D01*
X94992000Y-80006000D01*
X94992000Y-79986000D01*
X95000000Y-79986000D01*
X95000000Y-80006000D01*
X97532000Y-80006000D01*
X97532000Y-79986000D01*
X97540000Y-79986000D01*
X97540000Y-80006000D01*
X97560000Y-80006000D01*
X97560000Y-80014000D01*
X97540000Y-80014000D01*
X97540000Y-81442095D01*
X97793624Y-81611005D01*
X98386692Y-81390547D01*
X98798350Y-81008126D01*
X98897587Y-81156644D01*
X99423672Y-81508163D01*
X100044231Y-81631600D01*
X100107769Y-81631600D01*
X100728328Y-81508163D01*
X101254413Y-81156644D01*
X101605932Y-80630559D01*
X101729369Y-80010000D01*
X101605932Y-79389441D01*
X101333109Y-78981132D01*
X101478486Y-78887585D01*
X101651560Y-78634282D01*
X101712450Y-78333600D01*
X101712450Y-76606400D01*
X101659595Y-76325502D01*
X101493585Y-76067514D01*
X101240282Y-75894440D01*
X100939600Y-75833550D01*
X99212400Y-75833550D01*
X98931502Y-75886405D01*
X98673514Y-76052415D01*
X98559235Y-76219669D01*
X98188328Y-75971837D01*
X97567769Y-75848400D01*
X97504231Y-75848400D01*
X96883672Y-75971837D01*
X96357587Y-76323356D01*
X96266000Y-76460426D01*
X96174413Y-76323356D01*
X95648328Y-75971837D01*
X95027769Y-75848400D01*
X94964231Y-75848400D01*
X94343672Y-75971837D01*
X93817587Y-76323356D01*
X93726000Y-76460426D01*
X93634413Y-76323356D01*
X93108328Y-75971837D01*
X92487769Y-75848400D01*
X92424231Y-75848400D01*
X91803672Y-75971837D01*
X91277587Y-76323356D01*
X91186000Y-76460426D01*
X91094413Y-76323356D01*
X90568328Y-75971837D01*
X89947769Y-75848400D01*
X89884231Y-75848400D01*
X89263672Y-75971837D01*
X88737587Y-76323356D01*
X88386068Y-76849441D01*
X88262631Y-77470000D01*
X78303000Y-77470000D01*
X78303000Y-74676000D01*
X110040000Y-74676000D01*
X110040000Y-77724000D01*
X110112923Y-78090611D01*
X110320592Y-78401408D01*
X112125828Y-80206644D01*
X112125799Y-80239330D01*
X112301723Y-80665098D01*
X112627189Y-80991133D01*
X113052649Y-81167799D01*
X113513330Y-81168201D01*
X113939098Y-80992277D01*
X114265133Y-80666811D01*
X114441799Y-80241351D01*
X114442201Y-79780670D01*
X114266277Y-79354902D01*
X113940811Y-79028867D01*
X113515351Y-78852201D01*
X113480987Y-78852171D01*
X111956000Y-77327184D01*
X111956000Y-75072816D01*
X112098816Y-74930000D01*
X113342000Y-74930000D01*
X113342000Y-76708000D01*
X113414923Y-77074611D01*
X113622592Y-77385408D01*
X113933389Y-77593077D01*
X114121723Y-77630539D01*
X114157828Y-77666644D01*
X114157799Y-77699330D01*
X114333723Y-78125098D01*
X114659189Y-78451133D01*
X115084649Y-78627799D01*
X115545330Y-78628201D01*
X115971098Y-78452277D01*
X116297133Y-78126811D01*
X116473799Y-77701351D01*
X116474201Y-77240670D01*
X116298277Y-76814902D01*
X115972811Y-76488867D01*
X115547351Y-76312201D01*
X115512987Y-76312171D01*
X115258000Y-76057184D01*
X115258000Y-75326816D01*
X115654816Y-74930000D01*
X117180620Y-74930000D01*
X117299216Y-75526221D01*
X117636948Y-76031672D01*
X117888868Y-76200000D01*
X117636948Y-76368328D01*
X117299216Y-76873779D01*
X117180620Y-77470000D01*
X117299216Y-78066221D01*
X117636948Y-78571672D01*
X117888868Y-78740000D01*
X117636948Y-78908328D01*
X117299216Y-79413779D01*
X117180620Y-80010000D01*
X117299216Y-80606221D01*
X117636948Y-81111672D01*
X117888868Y-81280000D01*
X117636948Y-81448328D01*
X117299216Y-81953779D01*
X117180620Y-82550000D01*
X117299216Y-83146221D01*
X117636948Y-83651672D01*
X117888868Y-83820000D01*
X117636948Y-83988328D01*
X117299216Y-84493779D01*
X117180620Y-85090000D01*
X117299216Y-85686221D01*
X117636948Y-86191672D01*
X117888868Y-86360000D01*
X117636948Y-86528328D01*
X117299216Y-87033779D01*
X117180620Y-87630000D01*
X117299216Y-88226221D01*
X117636948Y-88731672D01*
X117888868Y-88900000D01*
X117636948Y-89068328D01*
X117299216Y-89573779D01*
X117180620Y-90170000D01*
X117299216Y-90766221D01*
X117636948Y-91271672D01*
X117907603Y-91452518D01*
X117671499Y-91611156D01*
X117335065Y-92117475D01*
X117237812Y-92462325D01*
X117407506Y-92706000D01*
X119122000Y-92706000D01*
X119122000Y-92686000D01*
X119130000Y-92686000D01*
X119130000Y-92706000D01*
X120844494Y-92706000D01*
X121014188Y-92462325D01*
X120988531Y-92371347D01*
X122258592Y-93641408D01*
X122569389Y-93849077D01*
X122936000Y-93922000D01*
X124516246Y-93922000D01*
X124756628Y-94021816D01*
X125177526Y-94022183D01*
X125421271Y-93921469D01*
X125508868Y-93980000D01*
X125256948Y-94148328D01*
X125099381Y-94384144D01*
X125087595Y-94395909D01*
X125081152Y-94411424D01*
X124919216Y-94653779D01*
X124800620Y-95250000D01*
X124919216Y-95846221D01*
X125256948Y-96351672D01*
X125508868Y-96520000D01*
X125256948Y-96688328D01*
X124919216Y-97193779D01*
X124800620Y-97790000D01*
X124919216Y-98386221D01*
X125256948Y-98891672D01*
X125508868Y-99060000D01*
X125256948Y-99228328D01*
X124919216Y-99733779D01*
X124800620Y-100330000D01*
X124919216Y-100926221D01*
X125256948Y-101431672D01*
X125508868Y-101600000D01*
X125256948Y-101768328D01*
X124919216Y-102273779D01*
X124910000Y-102320111D01*
X124910000Y-101600000D01*
X124837077Y-101233389D01*
X124631833Y-100926221D01*
X124629408Y-100922591D01*
X122408848Y-98702032D01*
X122309451Y-98461474D01*
X122012091Y-98163595D01*
X121623372Y-98002184D01*
X121202474Y-98001817D01*
X121013735Y-98079803D01*
X121071380Y-97790000D01*
X120952784Y-97193779D01*
X120615052Y-96688328D01*
X120363132Y-96520000D01*
X120615052Y-96351672D01*
X120952784Y-95846221D01*
X121071380Y-95250000D01*
X120952784Y-94653779D01*
X120615052Y-94148328D01*
X120344397Y-93967482D01*
X120580501Y-93808844D01*
X120916935Y-93302525D01*
X121014188Y-92957675D01*
X120844494Y-92714000D01*
X119130000Y-92714000D01*
X119130000Y-92734000D01*
X119122000Y-92734000D01*
X119122000Y-92714000D01*
X117407506Y-92714000D01*
X117237812Y-92957675D01*
X117335065Y-93302525D01*
X117671499Y-93808844D01*
X117907603Y-93967482D01*
X117636948Y-94148328D01*
X117299216Y-94653779D01*
X117180620Y-95250000D01*
X117299216Y-95846221D01*
X117636948Y-96351672D01*
X117888868Y-96520000D01*
X117636948Y-96688328D01*
X117299216Y-97193779D01*
X117180620Y-97790000D01*
X117299216Y-98386221D01*
X117636948Y-98891672D01*
X117888868Y-99060000D01*
X117636948Y-99228328D01*
X117299216Y-99733779D01*
X117180620Y-100330000D01*
X117299216Y-100926221D01*
X117636948Y-101431672D01*
X117888868Y-101600000D01*
X117636948Y-101768328D01*
X117299216Y-102273779D01*
X117180620Y-102870000D01*
X117299216Y-103466221D01*
X117636948Y-103971672D01*
X117888868Y-104140000D01*
X117636948Y-104308328D01*
X117299216Y-104813779D01*
X117180620Y-105410000D01*
X117299216Y-106006221D01*
X117636948Y-106511672D01*
X117888868Y-106680000D01*
X117636948Y-106848328D01*
X117299216Y-107353779D01*
X117180620Y-107950000D01*
X117299216Y-108546221D01*
X117636948Y-109051672D01*
X118142399Y-109389404D01*
X118738620Y-109508000D01*
X119513380Y-109508000D01*
X120109601Y-109389404D01*
X120615052Y-109051672D01*
X120952784Y-108546221D01*
X121071380Y-107950000D01*
X120952784Y-107353779D01*
X120615052Y-106848328D01*
X120363132Y-106680000D01*
X120615052Y-106511672D01*
X120952784Y-106006221D01*
X121071380Y-105410000D01*
X120952784Y-104813779D01*
X120615052Y-104308328D01*
X120363132Y-104140000D01*
X120615052Y-103971672D01*
X120952784Y-103466221D01*
X121071380Y-102870000D01*
X120952784Y-102273779D01*
X120615052Y-101768328D01*
X120363132Y-101600000D01*
X120615052Y-101431672D01*
X120952784Y-100926221D01*
X121071380Y-100330000D01*
X121013737Y-100040212D01*
X121054195Y-100057012D01*
X122994000Y-101996817D01*
X122994000Y-108712000D01*
X123066923Y-109078611D01*
X123274592Y-109389408D01*
X126322592Y-112437408D01*
X126633389Y-112645077D01*
X127000000Y-112718000D01*
X130556000Y-112718000D01*
X130839594Y-112661590D01*
X130667184Y-112834000D01*
X122316817Y-112834000D01*
X120376848Y-110894032D01*
X120277451Y-110653474D01*
X119980091Y-110355595D01*
X119591372Y-110194184D01*
X119170474Y-110193817D01*
X118781474Y-110354549D01*
X118483595Y-110651909D01*
X118322184Y-111040628D01*
X118321817Y-111461526D01*
X118482549Y-111850526D01*
X118779909Y-112148405D01*
X119022195Y-112249012D01*
X121242591Y-114469408D01*
X121432989Y-114596628D01*
X121553389Y-114677077D01*
X121920000Y-114750000D01*
X131064000Y-114750000D01*
X131430611Y-114677077D01*
X131741408Y-114469408D01*
X143932282Y-102278534D01*
X160393570Y-102278534D01*
X160393570Y-103034640D01*
X160583070Y-103224140D01*
X162048000Y-103224140D01*
X162048000Y-101860810D01*
X162056000Y-101860810D01*
X162056000Y-103224140D01*
X163520930Y-103224140D01*
X163710430Y-103034640D01*
X163710430Y-102278534D01*
X163595031Y-101999937D01*
X163381802Y-101786708D01*
X163103205Y-101671310D01*
X162245500Y-101671310D01*
X162056000Y-101860810D01*
X162048000Y-101860810D01*
X161858500Y-101671310D01*
X161000795Y-101671310D01*
X160722198Y-101786708D01*
X160508969Y-101999937D01*
X160393570Y-102278534D01*
X143932282Y-102278534D01*
X144958270Y-101252546D01*
X199589730Y-101252546D01*
X199826422Y-101825383D01*
X200264312Y-102264038D01*
X200836735Y-102501729D01*
X201456546Y-102502270D01*
X202029383Y-102265578D01*
X202468038Y-101827688D01*
X202705729Y-101255265D01*
X202706270Y-100635454D01*
X202469578Y-100062617D01*
X202031688Y-99623962D01*
X201459265Y-99386271D01*
X200839454Y-99385730D01*
X200266617Y-99622422D01*
X199827962Y-100060312D01*
X199590271Y-100632735D01*
X199589730Y-101252546D01*
X144958270Y-101252546D01*
X150764817Y-95446000D01*
X182991184Y-95446000D01*
X183407152Y-95861968D01*
X183506549Y-96102526D01*
X183803909Y-96400405D01*
X184192628Y-96561816D01*
X184613526Y-96562183D01*
X185002526Y-96401451D01*
X185151690Y-96252546D01*
X199589730Y-96252546D01*
X199826422Y-96825383D01*
X200264312Y-97264038D01*
X200836735Y-97501729D01*
X201456546Y-97502270D01*
X202029383Y-97265578D01*
X202468038Y-96827688D01*
X202705729Y-96255265D01*
X202706270Y-95635454D01*
X202469578Y-95062617D01*
X202031688Y-94623962D01*
X201459265Y-94386271D01*
X200839454Y-94385730D01*
X200266617Y-94622422D01*
X199827962Y-95060312D01*
X199590271Y-95632735D01*
X199589730Y-96252546D01*
X185151690Y-96252546D01*
X185300405Y-96104091D01*
X185461816Y-95715372D01*
X185462183Y-95294474D01*
X185301451Y-94905474D01*
X185004091Y-94607595D01*
X184761804Y-94506988D01*
X184065408Y-93810592D01*
X183754611Y-93602923D01*
X183388000Y-93530000D01*
X150368000Y-93530000D01*
X150084406Y-93586410D01*
X158506466Y-85164350D01*
X178801713Y-85164350D01*
X179053597Y-85773955D01*
X179365233Y-86086135D01*
X179055236Y-86395592D01*
X178802289Y-87004757D01*
X178801713Y-87664350D01*
X179053597Y-88273955D01*
X179519592Y-88740764D01*
X180128757Y-88993711D01*
X180788350Y-88994287D01*
X181397955Y-88742403D01*
X181864764Y-88276408D01*
X181985351Y-87986000D01*
X185937150Y-87986000D01*
X185937150Y-90486000D01*
X185990005Y-90766898D01*
X186156015Y-91024886D01*
X186409318Y-91197960D01*
X186710000Y-91258850D01*
X189210000Y-91258850D01*
X189490898Y-91205995D01*
X189748886Y-91039985D01*
X189921960Y-90786682D01*
X189982850Y-90486000D01*
X189982850Y-87986000D01*
X189929995Y-87705102D01*
X189903772Y-87664350D01*
X193301713Y-87664350D01*
X193553597Y-88273955D01*
X194019592Y-88740764D01*
X194628757Y-88993711D01*
X195288350Y-88994287D01*
X195897955Y-88742403D01*
X196364764Y-88276408D01*
X196617711Y-87667243D01*
X196618287Y-87007650D01*
X196366403Y-86398045D01*
X195900408Y-85931236D01*
X195291243Y-85678289D01*
X194631650Y-85677713D01*
X194022045Y-85929597D01*
X193555236Y-86395592D01*
X193302289Y-87004757D01*
X193301713Y-87664350D01*
X189903772Y-87664350D01*
X189763985Y-87447114D01*
X189510682Y-87274040D01*
X189210000Y-87213150D01*
X186710000Y-87213150D01*
X186429102Y-87266005D01*
X186171114Y-87432015D01*
X185998040Y-87685318D01*
X185937150Y-87986000D01*
X181985351Y-87986000D01*
X182117711Y-87667243D01*
X182118287Y-87007650D01*
X181866403Y-86398045D01*
X181554767Y-86085865D01*
X181864764Y-85776408D01*
X182117711Y-85167243D01*
X182118287Y-84507650D01*
X181866403Y-83898045D01*
X181457272Y-83488199D01*
X181747842Y-83198135D01*
X181969489Y-82664350D01*
X193301713Y-82664350D01*
X193553597Y-83273955D01*
X194019592Y-83740764D01*
X194628757Y-83993711D01*
X195288350Y-83994287D01*
X195897955Y-83742403D01*
X196364764Y-83276408D01*
X196617711Y-82667243D01*
X196618287Y-82007650D01*
X196366403Y-81398045D01*
X195900408Y-80931236D01*
X195291243Y-80678289D01*
X194631650Y-80677713D01*
X194022045Y-80929597D01*
X193555236Y-81395592D01*
X193302289Y-82004757D01*
X193301713Y-82664350D01*
X181969489Y-82664350D01*
X181979736Y-82639673D01*
X181980264Y-82034980D01*
X181749345Y-81476114D01*
X181322135Y-81048158D01*
X180763673Y-80816264D01*
X180158980Y-80815736D01*
X179600114Y-81046655D01*
X179172158Y-81473865D01*
X178940264Y-82032327D01*
X178939736Y-82637020D01*
X179170655Y-83195886D01*
X179462899Y-83488640D01*
X179055236Y-83895592D01*
X178802289Y-84504757D01*
X178801713Y-85164350D01*
X158506466Y-85164350D01*
X162221408Y-81449408D01*
X162429077Y-81138611D01*
X162502000Y-80772000D01*
X162502000Y-78334000D01*
X164601150Y-78334000D01*
X164601150Y-80834000D01*
X164654005Y-81114898D01*
X164820015Y-81372886D01*
X165073318Y-81545960D01*
X165374000Y-81606850D01*
X167874000Y-81606850D01*
X168154898Y-81553995D01*
X168412886Y-81387985D01*
X168585960Y-81134682D01*
X168646850Y-80834000D01*
X168646850Y-78334000D01*
X168593995Y-78053102D01*
X168567772Y-78012350D01*
X171965713Y-78012350D01*
X172217597Y-78621955D01*
X172683592Y-79088764D01*
X173292757Y-79341711D01*
X173952350Y-79342287D01*
X174330592Y-79186000D01*
X185937150Y-79186000D01*
X185937150Y-81686000D01*
X185990005Y-81966898D01*
X186156015Y-82224886D01*
X186409318Y-82397960D01*
X186710000Y-82458850D01*
X189210000Y-82458850D01*
X189490898Y-82405995D01*
X189748886Y-82239985D01*
X189921960Y-81986682D01*
X189982850Y-81686000D01*
X189982850Y-79186000D01*
X189929995Y-78905102D01*
X189763985Y-78647114D01*
X189510682Y-78474040D01*
X189210000Y-78413150D01*
X186710000Y-78413150D01*
X186429102Y-78466005D01*
X186171114Y-78632015D01*
X185998040Y-78885318D01*
X185937150Y-79186000D01*
X174330592Y-79186000D01*
X174561955Y-79090403D01*
X175028764Y-78624408D01*
X175281711Y-78015243D01*
X175282287Y-77355650D01*
X175030403Y-76746045D01*
X174564408Y-76279236D01*
X173955243Y-76026289D01*
X173295650Y-76025713D01*
X172686045Y-76277597D01*
X172219236Y-76743592D01*
X171966289Y-77352757D01*
X171965713Y-78012350D01*
X168567772Y-78012350D01*
X168427985Y-77795114D01*
X168174682Y-77622040D01*
X167874000Y-77561150D01*
X165374000Y-77561150D01*
X165093102Y-77614005D01*
X164835114Y-77780015D01*
X164662040Y-78033318D01*
X164601150Y-78334000D01*
X162502000Y-78334000D01*
X162502000Y-73012350D01*
X171965713Y-73012350D01*
X172217597Y-73621955D01*
X172683592Y-74088764D01*
X173292757Y-74341711D01*
X173952350Y-74342287D01*
X174561955Y-74090403D01*
X175028764Y-73624408D01*
X175281711Y-73015243D01*
X175282287Y-72355650D01*
X175030403Y-71746045D01*
X174564408Y-71279236D01*
X173955243Y-71026289D01*
X173295650Y-71025713D01*
X172686045Y-71277597D01*
X172219236Y-71743592D01*
X171966289Y-72352757D01*
X171965713Y-73012350D01*
X162502000Y-73012350D01*
X162502000Y-69539754D01*
X162504389Y-69534000D01*
X164601150Y-69534000D01*
X164601150Y-72034000D01*
X164654005Y-72314898D01*
X164820015Y-72572886D01*
X165073318Y-72745960D01*
X165374000Y-72806850D01*
X167874000Y-72806850D01*
X168154898Y-72753995D01*
X168412886Y-72587985D01*
X168585960Y-72334682D01*
X168646850Y-72034000D01*
X168646850Y-69534000D01*
X168593995Y-69253102D01*
X168427985Y-68995114D01*
X168174682Y-68822040D01*
X167874000Y-68761150D01*
X165374000Y-68761150D01*
X165093102Y-68814005D01*
X164835114Y-68980015D01*
X164662040Y-69233318D01*
X164601150Y-69534000D01*
X162504389Y-69534000D01*
X162601816Y-69299372D01*
X162602183Y-68878474D01*
X162441451Y-68489474D01*
X162144091Y-68191595D01*
X161755372Y-68030184D01*
X161334474Y-68029817D01*
X160945474Y-68190549D01*
X160647595Y-68487909D01*
X160486184Y-68876628D01*
X160485817Y-69297526D01*
X160586000Y-69539987D01*
X160586000Y-72241971D01*
X160413345Y-71824114D01*
X159986135Y-71396158D01*
X159427673Y-71164264D01*
X158822980Y-71163736D01*
X158264114Y-71394655D01*
X157836158Y-71821865D01*
X157604264Y-72380327D01*
X157603736Y-72985020D01*
X157834655Y-73543886D01*
X158126899Y-73836640D01*
X157719236Y-74243592D01*
X157466289Y-74852757D01*
X157465713Y-75512350D01*
X157717597Y-76121955D01*
X158029233Y-76434135D01*
X157719236Y-76743592D01*
X157466289Y-77352757D01*
X157465713Y-78012350D01*
X157717597Y-78621955D01*
X158183592Y-79088764D01*
X158792757Y-79341711D01*
X159452350Y-79342287D01*
X160061955Y-79090403D01*
X160528764Y-78624408D01*
X160586000Y-78486568D01*
X160586000Y-80375184D01*
X130159184Y-110802000D01*
X127396816Y-110802000D01*
X126039299Y-109444483D01*
X126358620Y-109508000D01*
X127133380Y-109508000D01*
X127729601Y-109389404D01*
X128235052Y-109051672D01*
X128572784Y-108546221D01*
X128691380Y-107950000D01*
X128572784Y-107353779D01*
X128235052Y-106848328D01*
X127983132Y-106680000D01*
X128235052Y-106511672D01*
X128572784Y-106006221D01*
X128691380Y-105410000D01*
X128572784Y-104813779D01*
X128262580Y-104349526D01*
X131529817Y-104349526D01*
X131690549Y-104738526D01*
X131987909Y-105036405D01*
X132376628Y-105197816D01*
X132797526Y-105198183D01*
X133186526Y-105037451D01*
X133484405Y-104740091D01*
X133645816Y-104351372D01*
X133646183Y-103930474D01*
X133546000Y-103688013D01*
X133546000Y-86756816D01*
X139041968Y-81260848D01*
X139282526Y-81161451D01*
X139580405Y-80864091D01*
X139741816Y-80475372D01*
X139742183Y-80054474D01*
X139581451Y-79665474D01*
X139284091Y-79367595D01*
X138895372Y-79206184D01*
X138474474Y-79205817D01*
X138085474Y-79366549D01*
X137787595Y-79663909D01*
X137686988Y-79906196D01*
X131910592Y-85682592D01*
X131702923Y-85993389D01*
X131630000Y-86360000D01*
X131630000Y-103688246D01*
X131530184Y-103928628D01*
X131529817Y-104349526D01*
X128262580Y-104349526D01*
X128235052Y-104308328D01*
X127983132Y-104140000D01*
X128235052Y-103971672D01*
X128572784Y-103466221D01*
X128691380Y-102870000D01*
X128572784Y-102273779D01*
X128235052Y-101768328D01*
X127983132Y-101600000D01*
X128235052Y-101431672D01*
X128572784Y-100926221D01*
X128691380Y-100330000D01*
X128572784Y-99733779D01*
X128235052Y-99228328D01*
X127983132Y-99060000D01*
X128235052Y-98891672D01*
X128572784Y-98386221D01*
X128691380Y-97790000D01*
X128572784Y-97193779D01*
X128235052Y-96688328D01*
X127983132Y-96520000D01*
X128235052Y-96351672D01*
X128572784Y-95846221D01*
X128691380Y-95250000D01*
X128572784Y-94653779D01*
X128235052Y-94148328D01*
X127983132Y-93980000D01*
X128235052Y-93811672D01*
X128572784Y-93306221D01*
X128691380Y-92710000D01*
X128572784Y-92113779D01*
X128235052Y-91608328D01*
X127964397Y-91427482D01*
X128200501Y-91268844D01*
X128536935Y-90762525D01*
X128634188Y-90417675D01*
X128464494Y-90174000D01*
X126750000Y-90174000D01*
X126750000Y-90194000D01*
X126742000Y-90194000D01*
X126742000Y-90174000D01*
X125027506Y-90174000D01*
X124857812Y-90417675D01*
X124955065Y-90762525D01*
X125291499Y-91268844D01*
X125527603Y-91427482D01*
X125256948Y-91608328D01*
X125057997Y-91906078D01*
X124758474Y-91905817D01*
X124516013Y-92006000D01*
X123332816Y-92006000D01*
X121900848Y-90574032D01*
X121801451Y-90333474D01*
X121504091Y-90035595D01*
X121115372Y-89874184D01*
X121012521Y-89874094D01*
X120952784Y-89573779D01*
X120615052Y-89068328D01*
X120363132Y-88900000D01*
X120615052Y-88731672D01*
X120952784Y-88226221D01*
X121071380Y-87630000D01*
X120952784Y-87033779D01*
X120615052Y-86528328D01*
X120363132Y-86360000D01*
X120615052Y-86191672D01*
X120952784Y-85686221D01*
X121071380Y-85090000D01*
X120952784Y-84493779D01*
X120615052Y-83988328D01*
X120363132Y-83820000D01*
X120615052Y-83651672D01*
X120952784Y-83146221D01*
X121071380Y-82550000D01*
X120952784Y-81953779D01*
X120615052Y-81448328D01*
X120363132Y-81280000D01*
X120615052Y-81111672D01*
X120952784Y-80606221D01*
X121071380Y-80010000D01*
X120952784Y-79413779D01*
X120615052Y-78908328D01*
X120363132Y-78740000D01*
X120615052Y-78571672D01*
X120952784Y-78066221D01*
X121071380Y-77470000D01*
X120952784Y-76873779D01*
X120615052Y-76368328D01*
X120363132Y-76200000D01*
X120615052Y-76031672D01*
X120952784Y-75526221D01*
X121071380Y-74930000D01*
X124800620Y-74930000D01*
X124919216Y-75526221D01*
X125256948Y-76031672D01*
X125508868Y-76200000D01*
X125256948Y-76368328D01*
X124919216Y-76873779D01*
X124800620Y-77470000D01*
X124919216Y-78066221D01*
X125256948Y-78571672D01*
X125508868Y-78740000D01*
X125256948Y-78908328D01*
X124919216Y-79413779D01*
X124800620Y-80010000D01*
X124919216Y-80606221D01*
X125256948Y-81111672D01*
X125508868Y-81280000D01*
X125256948Y-81448328D01*
X124919216Y-81953779D01*
X124800620Y-82550000D01*
X124919216Y-83146221D01*
X125256948Y-83651672D01*
X125508868Y-83820000D01*
X125256948Y-83988328D01*
X124919216Y-84493779D01*
X124800620Y-85090000D01*
X124919216Y-85686221D01*
X125256948Y-86191672D01*
X125508868Y-86360000D01*
X125256948Y-86528328D01*
X124919216Y-87033779D01*
X124800620Y-87630000D01*
X124919216Y-88226221D01*
X125256948Y-88731672D01*
X125527603Y-88912518D01*
X125291499Y-89071156D01*
X124955065Y-89577475D01*
X124857812Y-89922325D01*
X125027506Y-90166000D01*
X126742000Y-90166000D01*
X126742000Y-90146000D01*
X126750000Y-90146000D01*
X126750000Y-90166000D01*
X128464494Y-90166000D01*
X128634188Y-89922325D01*
X128536935Y-89577475D01*
X128200501Y-89071156D01*
X127964397Y-88912518D01*
X128235052Y-88731672D01*
X128572784Y-88226221D01*
X128691380Y-87630000D01*
X128572784Y-87033779D01*
X128235052Y-86528328D01*
X127983132Y-86360000D01*
X128235052Y-86191672D01*
X128572784Y-85686221D01*
X128691380Y-85090000D01*
X128572784Y-84493779D01*
X128235052Y-83988328D01*
X127983132Y-83820000D01*
X128235052Y-83651672D01*
X128572784Y-83146221D01*
X128691380Y-82550000D01*
X128572784Y-81953779D01*
X128235052Y-81448328D01*
X127983132Y-81280000D01*
X128235052Y-81111672D01*
X128572784Y-80606221D01*
X128691380Y-80010000D01*
X128572784Y-79413779D01*
X128235052Y-78908328D01*
X127983132Y-78740000D01*
X128235052Y-78571672D01*
X128572784Y-78066221D01*
X128691380Y-77470000D01*
X128572784Y-76873779D01*
X128235052Y-76368328D01*
X127983132Y-76200000D01*
X128235052Y-76031672D01*
X128572784Y-75526221D01*
X128691380Y-74930000D01*
X128572784Y-74333779D01*
X128235052Y-73828328D01*
X127729601Y-73490596D01*
X127133380Y-73372000D01*
X126358620Y-73372000D01*
X125762399Y-73490596D01*
X125256948Y-73828328D01*
X124919216Y-74333779D01*
X124800620Y-74930000D01*
X121071380Y-74930000D01*
X120952784Y-74333779D01*
X120615052Y-73828328D01*
X120109601Y-73490596D01*
X119513380Y-73372000D01*
X118738620Y-73372000D01*
X118142399Y-73490596D01*
X117636948Y-73828328D01*
X117299216Y-74333779D01*
X117180620Y-74930000D01*
X115654816Y-74930000D01*
X117744816Y-72840000D01*
X140716000Y-72840000D01*
X141082611Y-72767077D01*
X141393408Y-72559408D01*
X143198644Y-70754172D01*
X143231330Y-70754201D01*
X143657098Y-70578277D01*
X143983133Y-70252811D01*
X144159799Y-69827351D01*
X144160201Y-69366670D01*
X143984277Y-68940902D01*
X143658811Y-68614867D01*
X143233351Y-68438201D01*
X142772670Y-68437799D01*
X142346902Y-68613723D01*
X142020867Y-68939189D01*
X141844201Y-69364649D01*
X141844171Y-69399013D01*
X140319184Y-70924000D01*
X117348000Y-70924000D01*
X116981389Y-70996923D01*
X116670592Y-71204592D01*
X113622592Y-74252592D01*
X113414923Y-74563389D01*
X113342000Y-74930000D01*
X112098816Y-74930000D01*
X118760816Y-68268000D01*
X134366000Y-68268000D01*
X134732611Y-68195077D01*
X135043408Y-67987408D01*
X140218466Y-62812350D01*
X145527713Y-62812350D01*
X145779597Y-63421955D01*
X146091233Y-63734135D01*
X145781236Y-64043592D01*
X145528289Y-64652757D01*
X145527713Y-65312350D01*
X145779597Y-65921955D01*
X146245592Y-66388764D01*
X146854757Y-66641711D01*
X147514350Y-66642287D01*
X148123955Y-66390403D01*
X148590764Y-65924408D01*
X148711351Y-65634000D01*
X152663150Y-65634000D01*
X152663150Y-68134000D01*
X152716005Y-68414898D01*
X152882015Y-68672886D01*
X153135318Y-68845960D01*
X153436000Y-68906850D01*
X155936000Y-68906850D01*
X156216898Y-68853995D01*
X156474886Y-68687985D01*
X156647960Y-68434682D01*
X156708850Y-68134000D01*
X156708850Y-65634000D01*
X156655995Y-65353102D01*
X156629772Y-65312350D01*
X160027713Y-65312350D01*
X160279597Y-65921955D01*
X160745592Y-66388764D01*
X161354757Y-66641711D01*
X162014350Y-66642287D01*
X162623955Y-66390403D01*
X163090764Y-65924408D01*
X163343711Y-65315243D01*
X163344287Y-64655650D01*
X163092403Y-64046045D01*
X162626408Y-63579236D01*
X162017243Y-63326289D01*
X161357650Y-63325713D01*
X160748045Y-63577597D01*
X160281236Y-64043592D01*
X160028289Y-64652757D01*
X160027713Y-65312350D01*
X156629772Y-65312350D01*
X156489985Y-65095114D01*
X156236682Y-64922040D01*
X155936000Y-64861150D01*
X153436000Y-64861150D01*
X153155102Y-64914005D01*
X152897114Y-65080015D01*
X152724040Y-65333318D01*
X152663150Y-65634000D01*
X148711351Y-65634000D01*
X148843711Y-65315243D01*
X148844287Y-64655650D01*
X148592403Y-64046045D01*
X148280767Y-63733865D01*
X148590764Y-63424408D01*
X148843711Y-62815243D01*
X148844287Y-62155650D01*
X148592403Y-61546045D01*
X148183272Y-61136199D01*
X148473842Y-60846135D01*
X148695489Y-60312350D01*
X160027713Y-60312350D01*
X160279597Y-60921955D01*
X160745592Y-61388764D01*
X161354757Y-61641711D01*
X162014350Y-61642287D01*
X162623955Y-61390403D01*
X163090764Y-60924408D01*
X163279911Y-60468890D01*
X192916319Y-60468890D01*
X193513821Y-61914955D01*
X194619226Y-63022291D01*
X196064246Y-63622316D01*
X197628890Y-63623681D01*
X199074955Y-63026179D01*
X200182291Y-61920774D01*
X200782316Y-60475754D01*
X200783681Y-58911110D01*
X200186179Y-57465045D01*
X199080774Y-56357709D01*
X197635754Y-55757684D01*
X196071110Y-55756319D01*
X194625045Y-56353821D01*
X193517709Y-57459226D01*
X192917684Y-58904246D01*
X192916319Y-60468890D01*
X163279911Y-60468890D01*
X163343711Y-60315243D01*
X163344287Y-59655650D01*
X163092403Y-59046045D01*
X162626408Y-58579236D01*
X162017243Y-58326289D01*
X161357650Y-58325713D01*
X160748045Y-58577597D01*
X160281236Y-59043592D01*
X160028289Y-59652757D01*
X160027713Y-60312350D01*
X148695489Y-60312350D01*
X148705736Y-60287673D01*
X148706264Y-59682980D01*
X148475345Y-59124114D01*
X148048135Y-58696158D01*
X147489673Y-58464264D01*
X146884980Y-58463736D01*
X146326114Y-58694655D01*
X145898158Y-59121865D01*
X145666264Y-59680327D01*
X145665736Y-60285020D01*
X145896655Y-60843886D01*
X146188899Y-61136640D01*
X145781236Y-61543592D01*
X145528289Y-62152757D01*
X145527713Y-62812350D01*
X140218466Y-62812350D01*
X141928644Y-61102172D01*
X141961330Y-61102201D01*
X142387098Y-60926277D01*
X142713133Y-60600811D01*
X142889799Y-60175351D01*
X142890201Y-59714670D01*
X142714277Y-59288902D01*
X142388811Y-58962867D01*
X141963351Y-58786201D01*
X141502670Y-58785799D01*
X141076902Y-58961723D01*
X140750867Y-59287189D01*
X140574201Y-59712649D01*
X140574171Y-59747013D01*
X133969184Y-66352000D01*
X118364000Y-66352000D01*
X117997389Y-66424923D01*
X117686592Y-66632592D01*
X110320592Y-73998592D01*
X110112923Y-74309389D01*
X110040000Y-74676000D01*
X78303000Y-74676000D01*
X78303000Y-70053200D01*
X110324200Y-70053200D01*
X110419960Y-70534615D01*
X110692660Y-70942740D01*
X111100785Y-71215440D01*
X111582200Y-71311200D01*
X112063615Y-71215440D01*
X112471740Y-70942740D01*
X120459880Y-62954600D01*
X128371600Y-62954600D01*
X128853016Y-62858840D01*
X129261140Y-62586140D01*
X129533840Y-62178016D01*
X129629600Y-61696600D01*
X129533840Y-61215184D01*
X129261140Y-60807060D01*
X128853016Y-60534360D01*
X128371600Y-60438600D01*
X119938800Y-60438600D01*
X119457384Y-60534360D01*
X119327108Y-60621408D01*
X119049260Y-60807060D01*
X110692660Y-69163660D01*
X110419960Y-69571785D01*
X110324200Y-70053200D01*
X78303000Y-70053200D01*
X78303000Y-68027526D01*
X108288817Y-68027526D01*
X108449549Y-68416526D01*
X108746909Y-68714405D01*
X109135628Y-68875816D01*
X109556526Y-68876183D01*
X109945526Y-68715451D01*
X110243405Y-68418091D01*
X110344012Y-68175805D01*
X112564408Y-65955409D01*
X112772077Y-65644611D01*
X112801420Y-65497091D01*
X112817985Y-65413813D01*
X112944816Y-65108372D01*
X112945183Y-64687474D01*
X112784451Y-64298474D01*
X112487091Y-64000595D01*
X112098372Y-63839184D01*
X111677474Y-63838817D01*
X111288474Y-63999549D01*
X110990595Y-64296909D01*
X110829184Y-64685628D01*
X110828926Y-64981257D01*
X108989032Y-66821152D01*
X108748474Y-66920549D01*
X108450595Y-67217909D01*
X108289184Y-67606628D01*
X108288817Y-68027526D01*
X78303000Y-68027526D01*
X78303000Y-60468890D01*
X81156319Y-60468890D01*
X81753821Y-61914955D01*
X82859226Y-63022291D01*
X84304246Y-63622316D01*
X85868890Y-63623681D01*
X87314955Y-63026179D01*
X88157076Y-62185526D01*
X94445817Y-62185526D01*
X94606549Y-62574526D01*
X94903909Y-62872405D01*
X95292628Y-63033816D01*
X95713526Y-63034183D01*
X96102526Y-62873451D01*
X96400405Y-62576091D01*
X96501012Y-62333805D01*
X98401970Y-60432847D01*
X98642526Y-60333451D01*
X98940405Y-60036091D01*
X99101816Y-59647372D01*
X99102183Y-59226474D01*
X98941451Y-58837474D01*
X98644091Y-58539595D01*
X98255372Y-58378184D01*
X97834474Y-58377817D01*
X97445474Y-58538549D01*
X97147595Y-58835909D01*
X97046989Y-59078194D01*
X95146032Y-60979152D01*
X94905474Y-61078549D01*
X94607595Y-61375909D01*
X94446184Y-61764628D01*
X94445817Y-62185526D01*
X88157076Y-62185526D01*
X88422291Y-61920774D01*
X89022316Y-60475754D01*
X89023681Y-58911110D01*
X88519656Y-57691275D01*
X122694382Y-57691275D01*
X122774669Y-58007463D01*
X123410454Y-58298845D01*
X124109350Y-58324743D01*
X124764956Y-58081213D01*
X124875331Y-58007463D01*
X124955618Y-57691275D01*
X123825000Y-56560657D01*
X122694382Y-57691275D01*
X88519656Y-57691275D01*
X88426179Y-57465045D01*
X87801576Y-56839350D01*
X122055257Y-56839350D01*
X122298787Y-57494956D01*
X122372537Y-57605331D01*
X122688725Y-57685618D01*
X123819343Y-56555000D01*
X123830657Y-56555000D01*
X124961275Y-57685618D01*
X125277463Y-57605331D01*
X125568845Y-56969546D01*
X125571305Y-56903154D01*
X127146696Y-56903154D01*
X127413771Y-57549526D01*
X127907873Y-58044491D01*
X128553778Y-58312694D01*
X129253154Y-58313304D01*
X129899526Y-58046229D01*
X130394491Y-57552127D01*
X130662694Y-56906222D01*
X130662696Y-56903154D01*
X132226696Y-56903154D01*
X132493771Y-57549526D01*
X132987873Y-58044491D01*
X133633778Y-58312694D01*
X134333154Y-58313304D01*
X134979526Y-58046229D01*
X135474491Y-57552127D01*
X135742694Y-56906222D01*
X135742696Y-56903154D01*
X137306696Y-56903154D01*
X137573771Y-57549526D01*
X138067873Y-58044491D01*
X138713778Y-58312694D01*
X139413154Y-58313304D01*
X140059526Y-58046229D01*
X140554491Y-57552127D01*
X140822694Y-56906222D01*
X140822756Y-56834000D01*
X152663150Y-56834000D01*
X152663150Y-59334000D01*
X152716005Y-59614898D01*
X152882015Y-59872886D01*
X153135318Y-60045960D01*
X153436000Y-60106850D01*
X155936000Y-60106850D01*
X156216898Y-60053995D01*
X156474886Y-59887985D01*
X156647960Y-59634682D01*
X156708850Y-59334000D01*
X156708850Y-56834000D01*
X156655995Y-56553102D01*
X156489985Y-56295114D01*
X156236682Y-56122040D01*
X155936000Y-56061150D01*
X153436000Y-56061150D01*
X153155102Y-56114005D01*
X152897114Y-56280015D01*
X152724040Y-56533318D01*
X152663150Y-56834000D01*
X140822756Y-56834000D01*
X140823304Y-56206846D01*
X140556229Y-55560474D01*
X140062127Y-55065509D01*
X139416222Y-54797306D01*
X138716846Y-54796696D01*
X138070474Y-55063771D01*
X137575509Y-55557873D01*
X137307306Y-56203778D01*
X137306696Y-56903154D01*
X135742696Y-56903154D01*
X135743304Y-56206846D01*
X135476229Y-55560474D01*
X134982127Y-55065509D01*
X134336222Y-54797306D01*
X133636846Y-54796696D01*
X132990474Y-55063771D01*
X132495509Y-55557873D01*
X132227306Y-56203778D01*
X132226696Y-56903154D01*
X130662696Y-56903154D01*
X130663304Y-56206846D01*
X130396229Y-55560474D01*
X129902127Y-55065509D01*
X129256222Y-54797306D01*
X128556846Y-54796696D01*
X127910474Y-55063771D01*
X127415509Y-55557873D01*
X127147306Y-56203778D01*
X127146696Y-56903154D01*
X125571305Y-56903154D01*
X125594743Y-56270650D01*
X125351213Y-55615044D01*
X125277463Y-55504669D01*
X124961275Y-55424382D01*
X123830657Y-56555000D01*
X123819343Y-56555000D01*
X122688725Y-55424382D01*
X122372537Y-55504669D01*
X122081155Y-56140454D01*
X122055257Y-56839350D01*
X87801576Y-56839350D01*
X87320774Y-56357709D01*
X85875754Y-55757684D01*
X84311110Y-55756319D01*
X82865045Y-56353821D01*
X81757709Y-57459226D01*
X81157684Y-58904246D01*
X81156319Y-60468890D01*
X78303000Y-60468890D01*
X78303000Y-55418725D01*
X122694382Y-55418725D01*
X123825000Y-56549343D01*
X124955618Y-55418725D01*
X124875331Y-55102537D01*
X124239546Y-54811155D01*
X123540650Y-54785257D01*
X122885044Y-55028787D01*
X122774669Y-55102537D01*
X122694382Y-55418725D01*
X78303000Y-55418725D01*
X78303000Y-52903000D01*
X203637000Y-52903000D01*
X203637000Y-152837000D01*
X203637000Y-152837000D01*
G37*
X203637000Y-152837000D02*
X78303000Y-152837000D01*
X78303000Y-151252546D01*
X133589730Y-151252546D01*
X133826422Y-151825383D01*
X134264312Y-152264038D01*
X134836735Y-152501729D01*
X135456546Y-152502270D01*
X136029383Y-152265578D01*
X136468038Y-151827688D01*
X136705729Y-151255265D01*
X136706270Y-150635454D01*
X136469578Y-150062617D01*
X136031688Y-149623962D01*
X135459265Y-149386271D01*
X134839454Y-149385730D01*
X134266617Y-149622422D01*
X133827962Y-150060312D01*
X133590271Y-150632735D01*
X133589730Y-151252546D01*
X78303000Y-151252546D01*
X78303000Y-146828890D01*
X81156319Y-146828890D01*
X81753821Y-148274955D01*
X82859226Y-149382291D01*
X84304246Y-149982316D01*
X85868890Y-149983681D01*
X87314955Y-149386179D01*
X88422291Y-148280774D01*
X89022316Y-146835754D01*
X89022824Y-146252546D01*
X133589730Y-146252546D01*
X133826422Y-146825383D01*
X134264312Y-147264038D01*
X134836735Y-147501729D01*
X135456546Y-147502270D01*
X136029383Y-147265578D01*
X136466833Y-146828890D01*
X192916319Y-146828890D01*
X193513821Y-148274955D01*
X194619226Y-149382291D01*
X196064246Y-149982316D01*
X197628890Y-149983681D01*
X199074955Y-149386179D01*
X200182291Y-148280774D01*
X200782316Y-146835754D01*
X200783681Y-145271110D01*
X200186179Y-143825045D01*
X199080774Y-142717709D01*
X197635754Y-142117684D01*
X196071110Y-142116319D01*
X194625045Y-142713821D01*
X193517709Y-143819226D01*
X192917684Y-145264246D01*
X192916319Y-146828890D01*
X136466833Y-146828890D01*
X136468038Y-146827688D01*
X136705729Y-146255265D01*
X136706270Y-145635454D01*
X136469578Y-145062617D01*
X136031688Y-144623962D01*
X135459265Y-144386271D01*
X134839454Y-144385730D01*
X134266617Y-144622422D01*
X133827962Y-145060312D01*
X133590271Y-145632735D01*
X133589730Y-146252546D01*
X89022824Y-146252546D01*
X89023681Y-145271110D01*
X88426179Y-143825045D01*
X87320774Y-142717709D01*
X85875754Y-142117684D01*
X84311110Y-142116319D01*
X82865045Y-142713821D01*
X81757709Y-143819226D01*
X81157684Y-145264246D01*
X81156319Y-146828890D01*
X78303000Y-146828890D01*
X78303000Y-133637000D01*
X79152713Y-133637000D01*
X79152713Y-141653000D01*
X130397288Y-141653000D01*
X130397288Y-136368765D01*
X130872262Y-136843739D01*
X131426377Y-137213986D01*
X132080000Y-137344000D01*
X154501000Y-137344000D01*
X154501000Y-137541000D01*
X154631014Y-138194623D01*
X155001262Y-138748738D01*
X155555377Y-139118986D01*
X156209000Y-139249000D01*
X156862623Y-139118986D01*
X157416738Y-138748738D01*
X157673912Y-138363850D01*
X160219000Y-138363850D01*
X160442770Y-138321744D01*
X160609627Y-138488601D01*
X160888224Y-138604000D01*
X161480500Y-138604000D01*
X161670000Y-138414500D01*
X161670000Y-137545000D01*
X161650000Y-137545000D01*
X161650000Y-137537000D01*
X161670000Y-137537000D01*
X161670000Y-137517000D01*
X161678000Y-137517000D01*
X161678000Y-137537000D01*
X161698000Y-137537000D01*
X161698000Y-137545000D01*
X161678000Y-137545000D01*
X161678000Y-138414500D01*
X161867500Y-138604000D01*
X162459776Y-138604000D01*
X162738373Y-138488601D01*
X162951602Y-138275372D01*
X163008926Y-138136978D01*
X163296600Y-138194200D01*
X166065200Y-138194200D01*
X166431811Y-138121277D01*
X166742608Y-137913608D01*
X166818808Y-137837408D01*
X167026477Y-137526611D01*
X167099400Y-137160000D01*
X167099400Y-136938830D01*
X167367760Y-136938830D01*
X167557260Y-136749330D01*
X167557260Y-135284400D01*
X167565260Y-135284400D01*
X167565260Y-136749330D01*
X167754760Y-136938830D01*
X168510866Y-136938830D01*
X168789463Y-136823431D01*
X169002692Y-136610202D01*
X169118090Y-136331605D01*
X169118090Y-135473900D01*
X168928590Y-135284400D01*
X167565260Y-135284400D01*
X167557260Y-135284400D01*
X167537260Y-135284400D01*
X167537260Y-135276400D01*
X167557260Y-135276400D01*
X167557260Y-133811470D01*
X167565260Y-133811470D01*
X167565260Y-135276400D01*
X168928590Y-135276400D01*
X169118090Y-135086900D01*
X169118090Y-134229195D01*
X169002692Y-133950598D01*
X168789463Y-133737369D01*
X168510866Y-133621970D01*
X167754760Y-133621970D01*
X167565260Y-133811470D01*
X167557260Y-133811470D01*
X167367760Y-133621970D01*
X167099400Y-133621970D01*
X167099400Y-132810250D01*
X167026477Y-132443639D01*
X166818808Y-132132842D01*
X166508011Y-131925173D01*
X166141400Y-131852250D01*
X166044690Y-131852250D01*
X166044690Y-131257500D01*
X165855190Y-131068000D01*
X164491860Y-131068000D01*
X164491860Y-131088000D01*
X164483860Y-131088000D01*
X164483860Y-131068000D01*
X164463860Y-131068000D01*
X164463860Y-131060000D01*
X164483860Y-131060000D01*
X164483860Y-129595070D01*
X164491860Y-129595070D01*
X164491860Y-131060000D01*
X165855190Y-131060000D01*
X166044690Y-130870500D01*
X166044690Y-130012795D01*
X165929292Y-129734198D01*
X165716063Y-129520969D01*
X165437466Y-129405570D01*
X164681360Y-129405570D01*
X164491860Y-129595070D01*
X164483860Y-129595070D01*
X164294360Y-129405570D01*
X163538254Y-129405570D01*
X163259657Y-129520969D01*
X163061638Y-129718988D01*
X163000955Y-129624684D01*
X162747652Y-129451610D01*
X162446970Y-129390720D01*
X160849310Y-129390720D01*
X160568412Y-129443575D01*
X160310424Y-129609585D01*
X160137350Y-129862888D01*
X160088118Y-130106000D01*
X157169754Y-130106000D01*
X156929372Y-130006184D01*
X156508474Y-130005817D01*
X156119474Y-130166549D01*
X155821595Y-130463909D01*
X155660184Y-130852628D01*
X155659817Y-131273526D01*
X155820549Y-131662526D01*
X156117909Y-131960405D01*
X156323506Y-132045777D01*
X156209000Y-132023000D01*
X155555377Y-132153014D01*
X155001262Y-132523262D01*
X154631014Y-133077377D01*
X154501000Y-133731000D01*
X154501000Y-133928000D01*
X132787477Y-133928000D01*
X127821476Y-128962000D01*
X176022000Y-128962000D01*
X176675623Y-128831986D01*
X177229738Y-128461738D01*
X178523608Y-127167869D01*
X178923377Y-127434986D01*
X179577000Y-127565000D01*
X180230623Y-127434986D01*
X180784738Y-127064738D01*
X181169626Y-126679850D01*
X183587000Y-126679850D01*
X183810770Y-126637744D01*
X183977627Y-126804601D01*
X184256224Y-126920000D01*
X184848500Y-126920000D01*
X185038000Y-126730500D01*
X185038000Y-125861000D01*
X185018000Y-125861000D01*
X185018000Y-125853000D01*
X185038000Y-125853000D01*
X185038000Y-125833000D01*
X185046000Y-125833000D01*
X185046000Y-125853000D01*
X185066000Y-125853000D01*
X185066000Y-125861000D01*
X185046000Y-125861000D01*
X185046000Y-126730500D01*
X185235500Y-126920000D01*
X185827776Y-126920000D01*
X186106373Y-126804601D01*
X186319602Y-126591372D01*
X186432352Y-126319168D01*
X186774591Y-126661408D01*
X186988894Y-126804601D01*
X187085389Y-126869077D01*
X187452000Y-126942000D01*
X189484000Y-126942000D01*
X189850611Y-126869077D01*
X190161408Y-126661408D01*
X190669408Y-126153409D01*
X190877077Y-125842611D01*
X190886599Y-125794738D01*
X190950000Y-125476000D01*
X190950000Y-125102430D01*
X191218360Y-125102430D01*
X191407860Y-124912930D01*
X191407860Y-123448000D01*
X191415860Y-123448000D01*
X191415860Y-124912930D01*
X191605360Y-125102430D01*
X192361466Y-125102430D01*
X192640063Y-124987031D01*
X192853292Y-124773802D01*
X192968690Y-124495205D01*
X192968690Y-123637500D01*
X192779190Y-123448000D01*
X191415860Y-123448000D01*
X191407860Y-123448000D01*
X191387860Y-123448000D01*
X191387860Y-123440000D01*
X191407860Y-123440000D01*
X191407860Y-121975070D01*
X191415860Y-121975070D01*
X191415860Y-123440000D01*
X192779190Y-123440000D01*
X192968690Y-123250500D01*
X192968690Y-122392795D01*
X192853292Y-122114198D01*
X192640063Y-121900969D01*
X192361466Y-121785570D01*
X191605360Y-121785570D01*
X191415860Y-121975070D01*
X191407860Y-121975070D01*
X191218360Y-121785570D01*
X190950000Y-121785570D01*
X190950000Y-121412000D01*
X190877077Y-121045389D01*
X190669408Y-120734592D01*
X190358611Y-120526923D01*
X189992000Y-120454000D01*
X186944000Y-120454000D01*
X186577389Y-120526923D01*
X186266592Y-120734591D01*
X185972245Y-121028939D01*
X185870000Y-121008234D01*
X185870000Y-120593769D01*
X186017128Y-120566085D01*
X186275116Y-120400075D01*
X186448190Y-120146772D01*
X186509080Y-119846090D01*
X186509080Y-118248430D01*
X186456225Y-117967532D01*
X186290215Y-117709544D01*
X186180200Y-117634374D01*
X186378831Y-117435743D01*
X186494230Y-117157146D01*
X186494230Y-116401040D01*
X186304730Y-116211540D01*
X184839800Y-116211540D01*
X184839800Y-116231540D01*
X184831800Y-116231540D01*
X184831800Y-116211540D01*
X183366870Y-116211540D01*
X183177370Y-116401040D01*
X183177370Y-117157146D01*
X183292769Y-117435743D01*
X183490788Y-117633762D01*
X183396484Y-117694445D01*
X183223410Y-117947748D01*
X183194753Y-118089260D01*
X181166076Y-118089260D01*
X180736172Y-117659356D01*
X180736201Y-117626670D01*
X180560277Y-117200902D01*
X180234811Y-116874867D01*
X179809351Y-116698201D01*
X179348670Y-116697799D01*
X178922902Y-116873723D01*
X178596867Y-117199189D01*
X178420201Y-117624649D01*
X178419799Y-118085330D01*
X178595723Y-118511098D01*
X178921189Y-118837133D01*
X179346649Y-119013799D01*
X179381013Y-119013829D01*
X180091852Y-119724668D01*
X180402649Y-119932337D01*
X180769260Y-120005260D01*
X183192470Y-120005260D01*
X183215375Y-120126988D01*
X183381385Y-120384976D01*
X183634688Y-120558050D01*
X183935370Y-120618940D01*
X183954000Y-120618940D01*
X183954000Y-121132749D01*
X183868114Y-121188015D01*
X183812256Y-121269766D01*
X183587000Y-121224150D01*
X181041912Y-121224150D01*
X180784738Y-120839262D01*
X180230623Y-120469014D01*
X179577000Y-120339000D01*
X178923377Y-120469014D01*
X178369262Y-120839262D01*
X177999014Y-121393377D01*
X177869000Y-122047000D01*
X177869000Y-122991523D01*
X175314524Y-125546000D01*
X128837476Y-125546000D01*
X142439476Y-111944000D01*
X154501000Y-111944000D01*
X154501000Y-112141000D01*
X154631014Y-112794623D01*
X155001262Y-113348738D01*
X155555377Y-113718986D01*
X156209000Y-113849000D01*
X156862623Y-113718986D01*
X157416738Y-113348738D01*
X157673912Y-112963850D01*
X160219000Y-112963850D01*
X160442770Y-112921744D01*
X160609627Y-113088601D01*
X160888224Y-113204000D01*
X161480500Y-113204000D01*
X161670000Y-113014500D01*
X161670000Y-112145000D01*
X161650000Y-112145000D01*
X161650000Y-112137000D01*
X161670000Y-112137000D01*
X161670000Y-112117000D01*
X161678000Y-112117000D01*
X161678000Y-112137000D01*
X161698000Y-112137000D01*
X161698000Y-112145000D01*
X161678000Y-112145000D01*
X161678000Y-113014500D01*
X161867500Y-113204000D01*
X162459776Y-113204000D01*
X162738373Y-113088601D01*
X162951602Y-112875372D01*
X163057475Y-112619771D01*
X163209389Y-112721277D01*
X163576000Y-112794200D01*
X170595984Y-112794200D01*
X175419600Y-117617816D01*
X175419600Y-118394846D01*
X175319784Y-118635228D01*
X175319417Y-119056126D01*
X175480149Y-119445126D01*
X175777509Y-119743005D01*
X176166228Y-119904416D01*
X176587126Y-119904783D01*
X176976126Y-119744051D01*
X177274005Y-119446691D01*
X177435416Y-119057972D01*
X177435783Y-118637074D01*
X177335600Y-118394613D01*
X177335600Y-117221000D01*
X177262677Y-116854389D01*
X177055008Y-116543592D01*
X175769350Y-115257934D01*
X183177370Y-115257934D01*
X183177370Y-116014040D01*
X183366870Y-116203540D01*
X184831800Y-116203540D01*
X184831800Y-114840210D01*
X184839800Y-114840210D01*
X184839800Y-116203540D01*
X186304730Y-116203540D01*
X186494230Y-116014040D01*
X186494230Y-115257934D01*
X186378831Y-114979337D01*
X186165602Y-114766108D01*
X185887005Y-114650710D01*
X185029300Y-114650710D01*
X184839800Y-114840210D01*
X184831800Y-114840210D01*
X184642300Y-114650710D01*
X183784595Y-114650710D01*
X183505998Y-114766108D01*
X183292769Y-114979337D01*
X183177370Y-115257934D01*
X175769350Y-115257934D01*
X171670208Y-111158792D01*
X171359411Y-110951123D01*
X170992800Y-110878200D01*
X170063327Y-110878200D01*
X170083290Y-110830005D01*
X170083290Y-109972300D01*
X169893790Y-109782800D01*
X168530460Y-109782800D01*
X168530460Y-109802800D01*
X168522460Y-109802800D01*
X168522460Y-109782800D01*
X168502460Y-109782800D01*
X168502460Y-109774800D01*
X168522460Y-109774800D01*
X168522460Y-108309870D01*
X168530460Y-108309870D01*
X168530460Y-109774800D01*
X169893790Y-109774800D01*
X170083290Y-109585300D01*
X170083290Y-108727595D01*
X169967892Y-108448998D01*
X169754663Y-108235769D01*
X169476066Y-108120370D01*
X168719960Y-108120370D01*
X168530460Y-108309870D01*
X168522460Y-108309870D01*
X168332960Y-108120370D01*
X168037860Y-108120370D01*
X167991677Y-107888189D01*
X167914175Y-107772200D01*
X167784008Y-107577391D01*
X167301408Y-107094792D01*
X166990611Y-106887123D01*
X166624000Y-106814200D01*
X163725280Y-106814200D01*
X163725280Y-105269030D01*
X163672425Y-104988132D01*
X163506415Y-104730144D01*
X163396400Y-104654974D01*
X163595031Y-104456343D01*
X163710430Y-104177746D01*
X163710430Y-103421640D01*
X163520930Y-103232140D01*
X162056000Y-103232140D01*
X162056000Y-103252140D01*
X162048000Y-103252140D01*
X162048000Y-103232140D01*
X160583070Y-103232140D01*
X160393570Y-103421640D01*
X160393570Y-104177746D01*
X160508969Y-104456343D01*
X160706988Y-104654362D01*
X160612684Y-104715045D01*
X160439610Y-104968348D01*
X160378720Y-105269030D01*
X160378720Y-106866690D01*
X160431575Y-107147588D01*
X160597585Y-107405576D01*
X160600388Y-107407491D01*
X160500114Y-107472015D01*
X160444256Y-107553766D01*
X160219000Y-107508150D01*
X157673912Y-107508150D01*
X157416738Y-107123262D01*
X156862623Y-106753014D01*
X156209000Y-106623000D01*
X155555377Y-106753014D01*
X155001262Y-107123262D01*
X154631014Y-107677377D01*
X154501000Y-108331000D01*
X154501000Y-108528000D01*
X141732000Y-108528000D01*
X141189049Y-108636000D01*
X141078377Y-108658014D01*
X140524262Y-109028262D01*
X126546524Y-123006000D01*
X119969489Y-123006000D01*
X120077986Y-122843623D01*
X120208000Y-122190000D01*
X120208000Y-121500000D01*
X120077986Y-120846377D01*
X119934925Y-120632271D01*
X119707739Y-120292262D01*
X114207738Y-114792262D01*
X113653623Y-114422014D01*
X113585060Y-114408376D01*
X113000000Y-114292000D01*
X106386446Y-114292000D01*
X106317623Y-114246014D01*
X105664000Y-114116000D01*
X94687476Y-114116000D01*
X94425740Y-113854264D01*
X94425738Y-113854261D01*
X94171738Y-113600262D01*
X93617623Y-113230014D01*
X92964000Y-113100001D01*
X92310377Y-113230014D01*
X91756262Y-113600262D01*
X84390262Y-120966262D01*
X84020014Y-121520377D01*
X83890000Y-122174000D01*
X84020014Y-122827623D01*
X84390262Y-123381738D01*
X84483444Y-123444000D01*
X84390262Y-123506262D01*
X84020014Y-124060377D01*
X83890000Y-124714000D01*
X84020014Y-125367623D01*
X84390262Y-125921738D01*
X84439309Y-125954510D01*
X84354906Y-126010906D01*
X83973820Y-126581243D01*
X83840000Y-127254000D01*
X83973820Y-127926757D01*
X84354906Y-128497094D01*
X84439309Y-128553490D01*
X84390262Y-128586262D01*
X84020014Y-129140377D01*
X83890000Y-129794000D01*
X84020014Y-130447623D01*
X84390262Y-131001738D01*
X84944377Y-131371986D01*
X85598000Y-131502000D01*
X101946632Y-131502000D01*
X102197998Y-131552000D01*
X109728000Y-131552000D01*
X109979366Y-131502000D01*
X125530524Y-131502000D01*
X127665524Y-133637000D01*
X79152713Y-133637000D01*
X78303000Y-133637000D01*
X78303000Y-110683174D01*
X80625609Y-110683174D01*
X80968644Y-111513383D01*
X81603276Y-112149123D01*
X82432886Y-112493607D01*
X83331174Y-112494391D01*
X84161383Y-112151356D01*
X84797123Y-111516724D01*
X85141607Y-110687114D01*
X85141610Y-110683174D01*
X90625609Y-110683174D01*
X90968644Y-111513383D01*
X91603276Y-112149123D01*
X92432886Y-112493607D01*
X93331174Y-112494391D01*
X94161383Y-112151356D01*
X94797123Y-111516724D01*
X95141607Y-110687114D01*
X95141696Y-110584154D01*
X95269696Y-110584154D01*
X95536771Y-111230526D01*
X96030873Y-111725491D01*
X96676778Y-111993694D01*
X97376154Y-111994304D01*
X97991577Y-111740017D01*
X98014015Y-111774886D01*
X98267318Y-111947960D01*
X98568000Y-112008850D01*
X100568000Y-112008850D01*
X100848898Y-111955995D01*
X101106886Y-111789985D01*
X101279960Y-111536682D01*
X101340850Y-111236000D01*
X101340850Y-109236000D01*
X101287995Y-108955102D01*
X101121985Y-108697114D01*
X100868682Y-108524040D01*
X100568000Y-108463150D01*
X98568000Y-108463150D01*
X98287102Y-108516005D01*
X98029114Y-108682015D01*
X97993905Y-108733545D01*
X97379222Y-108478306D01*
X96679846Y-108477696D01*
X96033474Y-108744771D01*
X95538509Y-109238873D01*
X95270306Y-109884778D01*
X95269696Y-110584154D01*
X95141696Y-110584154D01*
X95142391Y-109788826D01*
X94799356Y-108958617D01*
X94164724Y-108322877D01*
X93335114Y-107978393D01*
X92436826Y-107977609D01*
X91606617Y-108320644D01*
X90970877Y-108955276D01*
X90626393Y-109784886D01*
X90625609Y-110683174D01*
X85141610Y-110683174D01*
X85142391Y-109788826D01*
X84799356Y-108958617D01*
X84164724Y-108322877D01*
X83335114Y-107978393D01*
X82436826Y-107977609D01*
X81606617Y-108320644D01*
X80970877Y-108955276D01*
X80626393Y-109784886D01*
X80625609Y-110683174D01*
X78303000Y-110683174D01*
X78303000Y-105523174D01*
X80545609Y-105523174D01*
X80888644Y-106353383D01*
X81523276Y-106989123D01*
X82352886Y-107333607D01*
X83251174Y-107334391D01*
X84081383Y-106991356D01*
X84717123Y-106356724D01*
X85061607Y-105527114D01*
X85062391Y-104628826D01*
X84719356Y-103798617D01*
X84084724Y-103162877D01*
X83255114Y-102818393D01*
X82356826Y-102817609D01*
X81526617Y-103160644D01*
X80890877Y-103795276D01*
X80546393Y-104624886D01*
X80545609Y-105523174D01*
X78303000Y-105523174D01*
X78303000Y-96572756D01*
X81312901Y-96572756D01*
X81454016Y-96940897D01*
X82270443Y-97315556D01*
X83168099Y-97349263D01*
X84010324Y-97036886D01*
X84153984Y-96940897D01*
X84295099Y-96572756D01*
X82804000Y-95081657D01*
X81312901Y-96572756D01*
X78303000Y-96572756D01*
X78303000Y-95440099D01*
X80530737Y-95440099D01*
X80843114Y-96282324D01*
X80939103Y-96425984D01*
X81307244Y-96567099D01*
X82798343Y-95076000D01*
X82809657Y-95076000D01*
X84300756Y-96567099D01*
X84341075Y-96551644D01*
X98948739Y-96551644D01*
X99177835Y-97106097D01*
X99601672Y-97530674D01*
X100155724Y-97760737D01*
X100755644Y-97761261D01*
X101310097Y-97532165D01*
X101734674Y-97108328D01*
X101964737Y-96554276D01*
X101965261Y-95954356D01*
X101736165Y-95399903D01*
X101369039Y-95032136D01*
X101407378Y-94809035D01*
X100457000Y-93858657D01*
X99506622Y-94809035D01*
X99545040Y-95032595D01*
X99179326Y-95397672D01*
X98949263Y-95951724D01*
X98948739Y-96551644D01*
X84341075Y-96551644D01*
X84668897Y-96425984D01*
X85043556Y-95609557D01*
X85077263Y-94711901D01*
X84849376Y-94097475D01*
X98939017Y-94097475D01*
X99148123Y-94659773D01*
X99210754Y-94753506D01*
X99500965Y-94803378D01*
X100451343Y-93853000D01*
X100462657Y-93853000D01*
X101413035Y-94803378D01*
X101703246Y-94753506D01*
X101952990Y-94208042D01*
X101974983Y-93608525D01*
X101765877Y-93046227D01*
X101703246Y-92952494D01*
X101413035Y-92902622D01*
X100462657Y-93853000D01*
X100451343Y-93853000D01*
X99500965Y-92902622D01*
X99210754Y-92952494D01*
X98961010Y-93497958D01*
X98939017Y-94097475D01*
X84849376Y-94097475D01*
X84764886Y-93869676D01*
X84668897Y-93726016D01*
X84300756Y-93584901D01*
X82809657Y-95076000D01*
X82798343Y-95076000D01*
X81307244Y-93584901D01*
X80939103Y-93726016D01*
X80564444Y-94542443D01*
X80530737Y-95440099D01*
X78303000Y-95440099D01*
X78303000Y-93579244D01*
X81312901Y-93579244D01*
X82804000Y-95070343D01*
X84295099Y-93579244D01*
X84153984Y-93211103D01*
X83337557Y-92836444D01*
X82439901Y-92802737D01*
X81597676Y-93115114D01*
X81454016Y-93211103D01*
X81312901Y-93579244D01*
X78303000Y-93579244D01*
X78303000Y-91751644D01*
X98948739Y-91751644D01*
X99177835Y-92306097D01*
X99544961Y-92673864D01*
X99506622Y-92896965D01*
X100457000Y-93847343D01*
X101407378Y-92896965D01*
X101368960Y-92673405D01*
X101734674Y-92308328D01*
X101964737Y-91754276D01*
X101965261Y-91154356D01*
X101736165Y-90599903D01*
X101312328Y-90175326D01*
X100758276Y-89945263D01*
X100158356Y-89944739D01*
X99603903Y-90173835D01*
X99179326Y-90597672D01*
X98949263Y-91151724D01*
X98948739Y-91751644D01*
X78303000Y-91751644D01*
X78303000Y-88408000D01*
X91191150Y-88408000D01*
X91191150Y-90408000D01*
X91244005Y-90688898D01*
X91410015Y-90946886D01*
X91663318Y-91119960D01*
X91964000Y-91180850D01*
X93964000Y-91180850D01*
X94244898Y-91127995D01*
X94502886Y-90961985D01*
X94538095Y-90910455D01*
X95152778Y-91165694D01*
X95852154Y-91166304D01*
X96498526Y-90899229D01*
X96993491Y-90405127D01*
X97261694Y-89759222D01*
X97262260Y-89109526D01*
X114765817Y-89109526D01*
X114866000Y-89351987D01*
X114866000Y-92512246D01*
X114766184Y-92752628D01*
X114765817Y-93173526D01*
X114926549Y-93562526D01*
X115223909Y-93860405D01*
X115612628Y-94021816D01*
X116033526Y-94022183D01*
X116422526Y-93861451D01*
X116720405Y-93564091D01*
X116881816Y-93175372D01*
X116882183Y-92754474D01*
X116782000Y-92512013D01*
X116782000Y-89351754D01*
X116881816Y-89111372D01*
X116882183Y-88690474D01*
X116721451Y-88301474D01*
X116424091Y-88003595D01*
X116035372Y-87842184D01*
X115614474Y-87841817D01*
X115225474Y-88002549D01*
X114927595Y-88299909D01*
X114766184Y-88688628D01*
X114765817Y-89109526D01*
X97262260Y-89109526D01*
X97262304Y-89059846D01*
X96995229Y-88413474D01*
X96501127Y-87918509D01*
X95855222Y-87650306D01*
X95155846Y-87649696D01*
X94540423Y-87903983D01*
X94517985Y-87869114D01*
X94264682Y-87696040D01*
X93964000Y-87635150D01*
X91964000Y-87635150D01*
X91683102Y-87688005D01*
X91425114Y-87854015D01*
X91252040Y-88107318D01*
X91191150Y-88408000D01*
X78303000Y-88408000D01*
X78303000Y-80267624D01*
X88314995Y-80267624D01*
X88338276Y-80384664D01*
X88601751Y-80959913D01*
X89065308Y-81390547D01*
X89658376Y-81611005D01*
X89912000Y-81442095D01*
X89912000Y-80014000D01*
X89920000Y-80014000D01*
X89920000Y-81442095D01*
X90173624Y-81611005D01*
X90766692Y-81390547D01*
X91186000Y-81001019D01*
X91605308Y-81390547D01*
X92198376Y-81611005D01*
X92452000Y-81442095D01*
X92452000Y-80014000D01*
X92460000Y-80014000D01*
X92460000Y-81442095D01*
X92713624Y-81611005D01*
X93306692Y-81390547D01*
X93726000Y-81001019D01*
X94145308Y-81390547D01*
X94738376Y-81611005D01*
X94992000Y-81442095D01*
X94992000Y-80014000D01*
X95000000Y-80014000D01*
X95000000Y-81442095D01*
X95253624Y-81611005D01*
X95846692Y-81390547D01*
X96266000Y-81001019D01*
X96685308Y-81390547D01*
X97278376Y-81611005D01*
X97532000Y-81442095D01*
X97532000Y-80014000D01*
X95000000Y-80014000D01*
X94992000Y-80014000D01*
X92460000Y-80014000D01*
X92452000Y-80014000D01*
X89920000Y-80014000D01*
X89912000Y-80014000D01*
X88483906Y-80014000D01*
X88314995Y-80267624D01*
X78303000Y-80267624D01*
X78303000Y-77470000D01*
X88262631Y-77470000D01*
X88386068Y-78090559D01*
X88737587Y-78616644D01*
X88936224Y-78749369D01*
X88601751Y-79060087D01*
X88338276Y-79635336D01*
X88314995Y-79752376D01*
X88483906Y-80006000D01*
X89912000Y-80006000D01*
X89912000Y-79986000D01*
X89920000Y-79986000D01*
X89920000Y-80006000D01*
X92452000Y-80006000D01*
X92452000Y-79986000D01*
X92460000Y-79986000D01*
X92460000Y-80006000D01*
X94992000Y-80006000D01*
X94992000Y-79986000D01*
X95000000Y-79986000D01*
X95000000Y-80006000D01*
X97532000Y-80006000D01*
X97532000Y-79986000D01*
X97540000Y-79986000D01*
X97540000Y-80006000D01*
X97560000Y-80006000D01*
X97560000Y-80014000D01*
X97540000Y-80014000D01*
X97540000Y-81442095D01*
X97793624Y-81611005D01*
X98386692Y-81390547D01*
X98798350Y-81008126D01*
X98897587Y-81156644D01*
X99423672Y-81508163D01*
X100044231Y-81631600D01*
X100107769Y-81631600D01*
X100728328Y-81508163D01*
X101254413Y-81156644D01*
X101605932Y-80630559D01*
X101729369Y-80010000D01*
X101605932Y-79389441D01*
X101333109Y-78981132D01*
X101478486Y-78887585D01*
X101651560Y-78634282D01*
X101712450Y-78333600D01*
X101712450Y-76606400D01*
X101659595Y-76325502D01*
X101493585Y-76067514D01*
X101240282Y-75894440D01*
X100939600Y-75833550D01*
X99212400Y-75833550D01*
X98931502Y-75886405D01*
X98673514Y-76052415D01*
X98559235Y-76219669D01*
X98188328Y-75971837D01*
X97567769Y-75848400D01*
X97504231Y-75848400D01*
X96883672Y-75971837D01*
X96357587Y-76323356D01*
X96266000Y-76460426D01*
X96174413Y-76323356D01*
X95648328Y-75971837D01*
X95027769Y-75848400D01*
X94964231Y-75848400D01*
X94343672Y-75971837D01*
X93817587Y-76323356D01*
X93726000Y-76460426D01*
X93634413Y-76323356D01*
X93108328Y-75971837D01*
X92487769Y-75848400D01*
X92424231Y-75848400D01*
X91803672Y-75971837D01*
X91277587Y-76323356D01*
X91186000Y-76460426D01*
X91094413Y-76323356D01*
X90568328Y-75971837D01*
X89947769Y-75848400D01*
X89884231Y-75848400D01*
X89263672Y-75971837D01*
X88737587Y-76323356D01*
X88386068Y-76849441D01*
X88262631Y-77470000D01*
X78303000Y-77470000D01*
X78303000Y-74676000D01*
X110040000Y-74676000D01*
X110040000Y-77724000D01*
X110112923Y-78090611D01*
X110320592Y-78401408D01*
X112125828Y-80206644D01*
X112125799Y-80239330D01*
X112301723Y-80665098D01*
X112627189Y-80991133D01*
X113052649Y-81167799D01*
X113513330Y-81168201D01*
X113939098Y-80992277D01*
X114265133Y-80666811D01*
X114441799Y-80241351D01*
X114442201Y-79780670D01*
X114266277Y-79354902D01*
X113940811Y-79028867D01*
X113515351Y-78852201D01*
X113480987Y-78852171D01*
X111956000Y-77327184D01*
X111956000Y-75072816D01*
X112098816Y-74930000D01*
X113342000Y-74930000D01*
X113342000Y-76708000D01*
X113414923Y-77074611D01*
X113622592Y-77385408D01*
X113933389Y-77593077D01*
X114121723Y-77630539D01*
X114157828Y-77666644D01*
X114157799Y-77699330D01*
X114333723Y-78125098D01*
X114659189Y-78451133D01*
X115084649Y-78627799D01*
X115545330Y-78628201D01*
X115971098Y-78452277D01*
X116297133Y-78126811D01*
X116473799Y-77701351D01*
X116474201Y-77240670D01*
X116298277Y-76814902D01*
X115972811Y-76488867D01*
X115547351Y-76312201D01*
X115512987Y-76312171D01*
X115258000Y-76057184D01*
X115258000Y-75326816D01*
X115654816Y-74930000D01*
X117180620Y-74930000D01*
X117299216Y-75526221D01*
X117636948Y-76031672D01*
X117888868Y-76200000D01*
X117636948Y-76368328D01*
X117299216Y-76873779D01*
X117180620Y-77470000D01*
X117299216Y-78066221D01*
X117636948Y-78571672D01*
X117888868Y-78740000D01*
X117636948Y-78908328D01*
X117299216Y-79413779D01*
X117180620Y-80010000D01*
X117299216Y-80606221D01*
X117636948Y-81111672D01*
X117888868Y-81280000D01*
X117636948Y-81448328D01*
X117299216Y-81953779D01*
X117180620Y-82550000D01*
X117299216Y-83146221D01*
X117636948Y-83651672D01*
X117888868Y-83820000D01*
X117636948Y-83988328D01*
X117299216Y-84493779D01*
X117180620Y-85090000D01*
X117299216Y-85686221D01*
X117636948Y-86191672D01*
X117888868Y-86360000D01*
X117636948Y-86528328D01*
X117299216Y-87033779D01*
X117180620Y-87630000D01*
X117299216Y-88226221D01*
X117636948Y-88731672D01*
X117888868Y-88900000D01*
X117636948Y-89068328D01*
X117299216Y-89573779D01*
X117180620Y-90170000D01*
X117299216Y-90766221D01*
X117636948Y-91271672D01*
X117907603Y-91452518D01*
X117671499Y-91611156D01*
X117335065Y-92117475D01*
X117237812Y-92462325D01*
X117407506Y-92706000D01*
X119122000Y-92706000D01*
X119122000Y-92686000D01*
X119130000Y-92686000D01*
X119130000Y-92706000D01*
X120844494Y-92706000D01*
X121014188Y-92462325D01*
X120988531Y-92371347D01*
X122258592Y-93641408D01*
X122569389Y-93849077D01*
X122936000Y-93922000D01*
X124516246Y-93922000D01*
X124756628Y-94021816D01*
X125177526Y-94022183D01*
X125421271Y-93921469D01*
X125508868Y-93980000D01*
X125256948Y-94148328D01*
X125099381Y-94384144D01*
X125087595Y-94395909D01*
X125081152Y-94411424D01*
X124919216Y-94653779D01*
X124800620Y-95250000D01*
X124919216Y-95846221D01*
X125256948Y-96351672D01*
X125508868Y-96520000D01*
X125256948Y-96688328D01*
X124919216Y-97193779D01*
X124800620Y-97790000D01*
X124919216Y-98386221D01*
X125256948Y-98891672D01*
X125508868Y-99060000D01*
X125256948Y-99228328D01*
X124919216Y-99733779D01*
X124800620Y-100330000D01*
X124919216Y-100926221D01*
X125256948Y-101431672D01*
X125508868Y-101600000D01*
X125256948Y-101768328D01*
X124919216Y-102273779D01*
X124910000Y-102320111D01*
X124910000Y-101600000D01*
X124837077Y-101233389D01*
X124631833Y-100926221D01*
X124629408Y-100922591D01*
X122408848Y-98702032D01*
X122309451Y-98461474D01*
X122012091Y-98163595D01*
X121623372Y-98002184D01*
X121202474Y-98001817D01*
X121013735Y-98079803D01*
X121071380Y-97790000D01*
X120952784Y-97193779D01*
X120615052Y-96688328D01*
X120363132Y-96520000D01*
X120615052Y-96351672D01*
X120952784Y-95846221D01*
X121071380Y-95250000D01*
X120952784Y-94653779D01*
X120615052Y-94148328D01*
X120344397Y-93967482D01*
X120580501Y-93808844D01*
X120916935Y-93302525D01*
X121014188Y-92957675D01*
X120844494Y-92714000D01*
X119130000Y-92714000D01*
X119130000Y-92734000D01*
X119122000Y-92734000D01*
X119122000Y-92714000D01*
X117407506Y-92714000D01*
X117237812Y-92957675D01*
X117335065Y-93302525D01*
X117671499Y-93808844D01*
X117907603Y-93967482D01*
X117636948Y-94148328D01*
X117299216Y-94653779D01*
X117180620Y-95250000D01*
X117299216Y-95846221D01*
X117636948Y-96351672D01*
X117888868Y-96520000D01*
X117636948Y-96688328D01*
X117299216Y-97193779D01*
X117180620Y-97790000D01*
X117299216Y-98386221D01*
X117636948Y-98891672D01*
X117888868Y-99060000D01*
X117636948Y-99228328D01*
X117299216Y-99733779D01*
X117180620Y-100330000D01*
X117299216Y-100926221D01*
X117636948Y-101431672D01*
X117888868Y-101600000D01*
X117636948Y-101768328D01*
X117299216Y-102273779D01*
X117180620Y-102870000D01*
X117299216Y-103466221D01*
X117636948Y-103971672D01*
X117888868Y-104140000D01*
X117636948Y-104308328D01*
X117299216Y-104813779D01*
X117180620Y-105410000D01*
X117299216Y-106006221D01*
X117636948Y-106511672D01*
X117888868Y-106680000D01*
X117636948Y-106848328D01*
X117299216Y-107353779D01*
X117180620Y-107950000D01*
X117299216Y-108546221D01*
X117636948Y-109051672D01*
X118142399Y-109389404D01*
X118738620Y-109508000D01*
X119513380Y-109508000D01*
X120109601Y-109389404D01*
X120615052Y-109051672D01*
X120952784Y-108546221D01*
X121071380Y-107950000D01*
X120952784Y-107353779D01*
X120615052Y-106848328D01*
X120363132Y-106680000D01*
X120615052Y-106511672D01*
X120952784Y-106006221D01*
X121071380Y-105410000D01*
X120952784Y-104813779D01*
X120615052Y-104308328D01*
X120363132Y-104140000D01*
X120615052Y-103971672D01*
X120952784Y-103466221D01*
X121071380Y-102870000D01*
X120952784Y-102273779D01*
X120615052Y-101768328D01*
X120363132Y-101600000D01*
X120615052Y-101431672D01*
X120952784Y-100926221D01*
X121071380Y-100330000D01*
X121013737Y-100040212D01*
X121054195Y-100057012D01*
X122994000Y-101996817D01*
X122994000Y-108712000D01*
X123066923Y-109078611D01*
X123274592Y-109389408D01*
X126322592Y-112437408D01*
X126633389Y-112645077D01*
X127000000Y-112718000D01*
X130556000Y-112718000D01*
X130839594Y-112661590D01*
X130667184Y-112834000D01*
X122316817Y-112834000D01*
X120376848Y-110894032D01*
X120277451Y-110653474D01*
X119980091Y-110355595D01*
X119591372Y-110194184D01*
X119170474Y-110193817D01*
X118781474Y-110354549D01*
X118483595Y-110651909D01*
X118322184Y-111040628D01*
X118321817Y-111461526D01*
X118482549Y-111850526D01*
X118779909Y-112148405D01*
X119022195Y-112249012D01*
X121242591Y-114469408D01*
X121432989Y-114596628D01*
X121553389Y-114677077D01*
X121920000Y-114750000D01*
X131064000Y-114750000D01*
X131430611Y-114677077D01*
X131741408Y-114469408D01*
X143932282Y-102278534D01*
X160393570Y-102278534D01*
X160393570Y-103034640D01*
X160583070Y-103224140D01*
X162048000Y-103224140D01*
X162048000Y-101860810D01*
X162056000Y-101860810D01*
X162056000Y-103224140D01*
X163520930Y-103224140D01*
X163710430Y-103034640D01*
X163710430Y-102278534D01*
X163595031Y-101999937D01*
X163381802Y-101786708D01*
X163103205Y-101671310D01*
X162245500Y-101671310D01*
X162056000Y-101860810D01*
X162048000Y-101860810D01*
X161858500Y-101671310D01*
X161000795Y-101671310D01*
X160722198Y-101786708D01*
X160508969Y-101999937D01*
X160393570Y-102278534D01*
X143932282Y-102278534D01*
X144958270Y-101252546D01*
X199589730Y-101252546D01*
X199826422Y-101825383D01*
X200264312Y-102264038D01*
X200836735Y-102501729D01*
X201456546Y-102502270D01*
X202029383Y-102265578D01*
X202468038Y-101827688D01*
X202705729Y-101255265D01*
X202706270Y-100635454D01*
X202469578Y-100062617D01*
X202031688Y-99623962D01*
X201459265Y-99386271D01*
X200839454Y-99385730D01*
X200266617Y-99622422D01*
X199827962Y-100060312D01*
X199590271Y-100632735D01*
X199589730Y-101252546D01*
X144958270Y-101252546D01*
X150764817Y-95446000D01*
X182991184Y-95446000D01*
X183407152Y-95861968D01*
X183506549Y-96102526D01*
X183803909Y-96400405D01*
X184192628Y-96561816D01*
X184613526Y-96562183D01*
X185002526Y-96401451D01*
X185151690Y-96252546D01*
X199589730Y-96252546D01*
X199826422Y-96825383D01*
X200264312Y-97264038D01*
X200836735Y-97501729D01*
X201456546Y-97502270D01*
X202029383Y-97265578D01*
X202468038Y-96827688D01*
X202705729Y-96255265D01*
X202706270Y-95635454D01*
X202469578Y-95062617D01*
X202031688Y-94623962D01*
X201459265Y-94386271D01*
X200839454Y-94385730D01*
X200266617Y-94622422D01*
X199827962Y-95060312D01*
X199590271Y-95632735D01*
X199589730Y-96252546D01*
X185151690Y-96252546D01*
X185300405Y-96104091D01*
X185461816Y-95715372D01*
X185462183Y-95294474D01*
X185301451Y-94905474D01*
X185004091Y-94607595D01*
X184761804Y-94506988D01*
X184065408Y-93810592D01*
X183754611Y-93602923D01*
X183388000Y-93530000D01*
X150368000Y-93530000D01*
X150084406Y-93586410D01*
X158506466Y-85164350D01*
X178801713Y-85164350D01*
X179053597Y-85773955D01*
X179365233Y-86086135D01*
X179055236Y-86395592D01*
X178802289Y-87004757D01*
X178801713Y-87664350D01*
X179053597Y-88273955D01*
X179519592Y-88740764D01*
X180128757Y-88993711D01*
X180788350Y-88994287D01*
X181397955Y-88742403D01*
X181864764Y-88276408D01*
X181985351Y-87986000D01*
X185937150Y-87986000D01*
X185937150Y-90486000D01*
X185990005Y-90766898D01*
X186156015Y-91024886D01*
X186409318Y-91197960D01*
X186710000Y-91258850D01*
X189210000Y-91258850D01*
X189490898Y-91205995D01*
X189748886Y-91039985D01*
X189921960Y-90786682D01*
X189982850Y-90486000D01*
X189982850Y-87986000D01*
X189929995Y-87705102D01*
X189903772Y-87664350D01*
X193301713Y-87664350D01*
X193553597Y-88273955D01*
X194019592Y-88740764D01*
X194628757Y-88993711D01*
X195288350Y-88994287D01*
X195897955Y-88742403D01*
X196364764Y-88276408D01*
X196617711Y-87667243D01*
X196618287Y-87007650D01*
X196366403Y-86398045D01*
X195900408Y-85931236D01*
X195291243Y-85678289D01*
X194631650Y-85677713D01*
X194022045Y-85929597D01*
X193555236Y-86395592D01*
X193302289Y-87004757D01*
X193301713Y-87664350D01*
X189903772Y-87664350D01*
X189763985Y-87447114D01*
X189510682Y-87274040D01*
X189210000Y-87213150D01*
X186710000Y-87213150D01*
X186429102Y-87266005D01*
X186171114Y-87432015D01*
X185998040Y-87685318D01*
X185937150Y-87986000D01*
X181985351Y-87986000D01*
X182117711Y-87667243D01*
X182118287Y-87007650D01*
X181866403Y-86398045D01*
X181554767Y-86085865D01*
X181864764Y-85776408D01*
X182117711Y-85167243D01*
X182118287Y-84507650D01*
X181866403Y-83898045D01*
X181457272Y-83488199D01*
X181747842Y-83198135D01*
X181969489Y-82664350D01*
X193301713Y-82664350D01*
X193553597Y-83273955D01*
X194019592Y-83740764D01*
X194628757Y-83993711D01*
X195288350Y-83994287D01*
X195897955Y-83742403D01*
X196364764Y-83276408D01*
X196617711Y-82667243D01*
X196618287Y-82007650D01*
X196366403Y-81398045D01*
X195900408Y-80931236D01*
X195291243Y-80678289D01*
X194631650Y-80677713D01*
X194022045Y-80929597D01*
X193555236Y-81395592D01*
X193302289Y-82004757D01*
X193301713Y-82664350D01*
X181969489Y-82664350D01*
X181979736Y-82639673D01*
X181980264Y-82034980D01*
X181749345Y-81476114D01*
X181322135Y-81048158D01*
X180763673Y-80816264D01*
X180158980Y-80815736D01*
X179600114Y-81046655D01*
X179172158Y-81473865D01*
X178940264Y-82032327D01*
X178939736Y-82637020D01*
X179170655Y-83195886D01*
X179462899Y-83488640D01*
X179055236Y-83895592D01*
X178802289Y-84504757D01*
X178801713Y-85164350D01*
X158506466Y-85164350D01*
X162221408Y-81449408D01*
X162429077Y-81138611D01*
X162502000Y-80772000D01*
X162502000Y-78334000D01*
X164601150Y-78334000D01*
X164601150Y-80834000D01*
X164654005Y-81114898D01*
X164820015Y-81372886D01*
X165073318Y-81545960D01*
X165374000Y-81606850D01*
X167874000Y-81606850D01*
X168154898Y-81553995D01*
X168412886Y-81387985D01*
X168585960Y-81134682D01*
X168646850Y-80834000D01*
X168646850Y-78334000D01*
X168593995Y-78053102D01*
X168567772Y-78012350D01*
X171965713Y-78012350D01*
X172217597Y-78621955D01*
X172683592Y-79088764D01*
X173292757Y-79341711D01*
X173952350Y-79342287D01*
X174330592Y-79186000D01*
X185937150Y-79186000D01*
X185937150Y-81686000D01*
X185990005Y-81966898D01*
X186156015Y-82224886D01*
X186409318Y-82397960D01*
X186710000Y-82458850D01*
X189210000Y-82458850D01*
X189490898Y-82405995D01*
X189748886Y-82239985D01*
X189921960Y-81986682D01*
X189982850Y-81686000D01*
X189982850Y-79186000D01*
X189929995Y-78905102D01*
X189763985Y-78647114D01*
X189510682Y-78474040D01*
X189210000Y-78413150D01*
X186710000Y-78413150D01*
X186429102Y-78466005D01*
X186171114Y-78632015D01*
X185998040Y-78885318D01*
X185937150Y-79186000D01*
X174330592Y-79186000D01*
X174561955Y-79090403D01*
X175028764Y-78624408D01*
X175281711Y-78015243D01*
X175282287Y-77355650D01*
X175030403Y-76746045D01*
X174564408Y-76279236D01*
X173955243Y-76026289D01*
X173295650Y-76025713D01*
X172686045Y-76277597D01*
X172219236Y-76743592D01*
X171966289Y-77352757D01*
X171965713Y-78012350D01*
X168567772Y-78012350D01*
X168427985Y-77795114D01*
X168174682Y-77622040D01*
X167874000Y-77561150D01*
X165374000Y-77561150D01*
X165093102Y-77614005D01*
X164835114Y-77780015D01*
X164662040Y-78033318D01*
X164601150Y-78334000D01*
X162502000Y-78334000D01*
X162502000Y-73012350D01*
X171965713Y-73012350D01*
X172217597Y-73621955D01*
X172683592Y-74088764D01*
X173292757Y-74341711D01*
X173952350Y-74342287D01*
X174561955Y-74090403D01*
X175028764Y-73624408D01*
X175281711Y-73015243D01*
X175282287Y-72355650D01*
X175030403Y-71746045D01*
X174564408Y-71279236D01*
X173955243Y-71026289D01*
X173295650Y-71025713D01*
X172686045Y-71277597D01*
X172219236Y-71743592D01*
X171966289Y-72352757D01*
X171965713Y-73012350D01*
X162502000Y-73012350D01*
X162502000Y-69539754D01*
X162504389Y-69534000D01*
X164601150Y-69534000D01*
X164601150Y-72034000D01*
X164654005Y-72314898D01*
X164820015Y-72572886D01*
X165073318Y-72745960D01*
X165374000Y-72806850D01*
X167874000Y-72806850D01*
X168154898Y-72753995D01*
X168412886Y-72587985D01*
X168585960Y-72334682D01*
X168646850Y-72034000D01*
X168646850Y-69534000D01*
X168593995Y-69253102D01*
X168427985Y-68995114D01*
X168174682Y-68822040D01*
X167874000Y-68761150D01*
X165374000Y-68761150D01*
X165093102Y-68814005D01*
X164835114Y-68980015D01*
X164662040Y-69233318D01*
X164601150Y-69534000D01*
X162504389Y-69534000D01*
X162601816Y-69299372D01*
X162602183Y-68878474D01*
X162441451Y-68489474D01*
X162144091Y-68191595D01*
X161755372Y-68030184D01*
X161334474Y-68029817D01*
X160945474Y-68190549D01*
X160647595Y-68487909D01*
X160486184Y-68876628D01*
X160485817Y-69297526D01*
X160586000Y-69539987D01*
X160586000Y-72241971D01*
X160413345Y-71824114D01*
X159986135Y-71396158D01*
X159427673Y-71164264D01*
X158822980Y-71163736D01*
X158264114Y-71394655D01*
X157836158Y-71821865D01*
X157604264Y-72380327D01*
X157603736Y-72985020D01*
X157834655Y-73543886D01*
X158126899Y-73836640D01*
X157719236Y-74243592D01*
X157466289Y-74852757D01*
X157465713Y-75512350D01*
X157717597Y-76121955D01*
X158029233Y-76434135D01*
X157719236Y-76743592D01*
X157466289Y-77352757D01*
X157465713Y-78012350D01*
X157717597Y-78621955D01*
X158183592Y-79088764D01*
X158792757Y-79341711D01*
X159452350Y-79342287D01*
X160061955Y-79090403D01*
X160528764Y-78624408D01*
X160586000Y-78486568D01*
X160586000Y-80375184D01*
X130159184Y-110802000D01*
X127396816Y-110802000D01*
X126039299Y-109444483D01*
X126358620Y-109508000D01*
X127133380Y-109508000D01*
X127729601Y-109389404D01*
X128235052Y-109051672D01*
X128572784Y-108546221D01*
X128691380Y-107950000D01*
X128572784Y-107353779D01*
X128235052Y-106848328D01*
X127983132Y-106680000D01*
X128235052Y-106511672D01*
X128572784Y-106006221D01*
X128691380Y-105410000D01*
X128572784Y-104813779D01*
X128262580Y-104349526D01*
X131529817Y-104349526D01*
X131690549Y-104738526D01*
X131987909Y-105036405D01*
X132376628Y-105197816D01*
X132797526Y-105198183D01*
X133186526Y-105037451D01*
X133484405Y-104740091D01*
X133645816Y-104351372D01*
X133646183Y-103930474D01*
X133546000Y-103688013D01*
X133546000Y-86756816D01*
X139041968Y-81260848D01*
X139282526Y-81161451D01*
X139580405Y-80864091D01*
X139741816Y-80475372D01*
X139742183Y-80054474D01*
X139581451Y-79665474D01*
X139284091Y-79367595D01*
X138895372Y-79206184D01*
X138474474Y-79205817D01*
X138085474Y-79366549D01*
X137787595Y-79663909D01*
X137686988Y-79906196D01*
X131910592Y-85682592D01*
X131702923Y-85993389D01*
X131630000Y-86360000D01*
X131630000Y-103688246D01*
X131530184Y-103928628D01*
X131529817Y-104349526D01*
X128262580Y-104349526D01*
X128235052Y-104308328D01*
X127983132Y-104140000D01*
X128235052Y-103971672D01*
X128572784Y-103466221D01*
X128691380Y-102870000D01*
X128572784Y-102273779D01*
X128235052Y-101768328D01*
X127983132Y-101600000D01*
X128235052Y-101431672D01*
X128572784Y-100926221D01*
X128691380Y-100330000D01*
X128572784Y-99733779D01*
X128235052Y-99228328D01*
X127983132Y-99060000D01*
X128235052Y-98891672D01*
X128572784Y-98386221D01*
X128691380Y-97790000D01*
X128572784Y-97193779D01*
X128235052Y-96688328D01*
X127983132Y-96520000D01*
X128235052Y-96351672D01*
X128572784Y-95846221D01*
X128691380Y-95250000D01*
X128572784Y-94653779D01*
X128235052Y-94148328D01*
X127983132Y-93980000D01*
X128235052Y-93811672D01*
X128572784Y-93306221D01*
X128691380Y-92710000D01*
X128572784Y-92113779D01*
X128235052Y-91608328D01*
X127964397Y-91427482D01*
X128200501Y-91268844D01*
X128536935Y-90762525D01*
X128634188Y-90417675D01*
X128464494Y-90174000D01*
X126750000Y-90174000D01*
X126750000Y-90194000D01*
X126742000Y-90194000D01*
X126742000Y-90174000D01*
X125027506Y-90174000D01*
X124857812Y-90417675D01*
X124955065Y-90762525D01*
X125291499Y-91268844D01*
X125527603Y-91427482D01*
X125256948Y-91608328D01*
X125057997Y-91906078D01*
X124758474Y-91905817D01*
X124516013Y-92006000D01*
X123332816Y-92006000D01*
X121900848Y-90574032D01*
X121801451Y-90333474D01*
X121504091Y-90035595D01*
X121115372Y-89874184D01*
X121012521Y-89874094D01*
X120952784Y-89573779D01*
X120615052Y-89068328D01*
X120363132Y-88900000D01*
X120615052Y-88731672D01*
X120952784Y-88226221D01*
X121071380Y-87630000D01*
X120952784Y-87033779D01*
X120615052Y-86528328D01*
X120363132Y-86360000D01*
X120615052Y-86191672D01*
X120952784Y-85686221D01*
X121071380Y-85090000D01*
X120952784Y-84493779D01*
X120615052Y-83988328D01*
X120363132Y-83820000D01*
X120615052Y-83651672D01*
X120952784Y-83146221D01*
X121071380Y-82550000D01*
X120952784Y-81953779D01*
X120615052Y-81448328D01*
X120363132Y-81280000D01*
X120615052Y-81111672D01*
X120952784Y-80606221D01*
X121071380Y-80010000D01*
X120952784Y-79413779D01*
X120615052Y-78908328D01*
X120363132Y-78740000D01*
X120615052Y-78571672D01*
X120952784Y-78066221D01*
X121071380Y-77470000D01*
X120952784Y-76873779D01*
X120615052Y-76368328D01*
X120363132Y-76200000D01*
X120615052Y-76031672D01*
X120952784Y-75526221D01*
X121071380Y-74930000D01*
X124800620Y-74930000D01*
X124919216Y-75526221D01*
X125256948Y-76031672D01*
X125508868Y-76200000D01*
X125256948Y-76368328D01*
X124919216Y-76873779D01*
X124800620Y-77470000D01*
X124919216Y-78066221D01*
X125256948Y-78571672D01*
X125508868Y-78740000D01*
X125256948Y-78908328D01*
X124919216Y-79413779D01*
X124800620Y-80010000D01*
X124919216Y-80606221D01*
X125256948Y-81111672D01*
X125508868Y-81280000D01*
X125256948Y-81448328D01*
X124919216Y-81953779D01*
X124800620Y-82550000D01*
X124919216Y-83146221D01*
X125256948Y-83651672D01*
X125508868Y-83820000D01*
X125256948Y-83988328D01*
X124919216Y-84493779D01*
X124800620Y-85090000D01*
X124919216Y-85686221D01*
X125256948Y-86191672D01*
X125508868Y-86360000D01*
X125256948Y-86528328D01*
X124919216Y-87033779D01*
X124800620Y-87630000D01*
X124919216Y-88226221D01*
X125256948Y-88731672D01*
X125527603Y-88912518D01*
X125291499Y-89071156D01*
X124955065Y-89577475D01*
X124857812Y-89922325D01*
X125027506Y-90166000D01*
X126742000Y-90166000D01*
X126742000Y-90146000D01*
X126750000Y-90146000D01*
X126750000Y-90166000D01*
X128464494Y-90166000D01*
X128634188Y-89922325D01*
X128536935Y-89577475D01*
X128200501Y-89071156D01*
X127964397Y-88912518D01*
X128235052Y-88731672D01*
X128572784Y-88226221D01*
X128691380Y-87630000D01*
X128572784Y-87033779D01*
X128235052Y-86528328D01*
X127983132Y-86360000D01*
X128235052Y-86191672D01*
X128572784Y-85686221D01*
X128691380Y-85090000D01*
X128572784Y-84493779D01*
X128235052Y-83988328D01*
X127983132Y-83820000D01*
X128235052Y-83651672D01*
X128572784Y-83146221D01*
X128691380Y-82550000D01*
X128572784Y-81953779D01*
X128235052Y-81448328D01*
X127983132Y-81280000D01*
X128235052Y-81111672D01*
X128572784Y-80606221D01*
X128691380Y-80010000D01*
X128572784Y-79413779D01*
X128235052Y-78908328D01*
X127983132Y-78740000D01*
X128235052Y-78571672D01*
X128572784Y-78066221D01*
X128691380Y-77470000D01*
X128572784Y-76873779D01*
X128235052Y-76368328D01*
X127983132Y-76200000D01*
X128235052Y-76031672D01*
X128572784Y-75526221D01*
X128691380Y-74930000D01*
X128572784Y-74333779D01*
X128235052Y-73828328D01*
X127729601Y-73490596D01*
X127133380Y-73372000D01*
X126358620Y-73372000D01*
X125762399Y-73490596D01*
X125256948Y-73828328D01*
X124919216Y-74333779D01*
X124800620Y-74930000D01*
X121071380Y-74930000D01*
X120952784Y-74333779D01*
X120615052Y-73828328D01*
X120109601Y-73490596D01*
X119513380Y-73372000D01*
X118738620Y-73372000D01*
X118142399Y-73490596D01*
X117636948Y-73828328D01*
X117299216Y-74333779D01*
X117180620Y-74930000D01*
X115654816Y-74930000D01*
X117744816Y-72840000D01*
X140716000Y-72840000D01*
X141082611Y-72767077D01*
X141393408Y-72559408D01*
X143198644Y-70754172D01*
X143231330Y-70754201D01*
X143657098Y-70578277D01*
X143983133Y-70252811D01*
X144159799Y-69827351D01*
X144160201Y-69366670D01*
X143984277Y-68940902D01*
X143658811Y-68614867D01*
X143233351Y-68438201D01*
X142772670Y-68437799D01*
X142346902Y-68613723D01*
X142020867Y-68939189D01*
X141844201Y-69364649D01*
X141844171Y-69399013D01*
X140319184Y-70924000D01*
X117348000Y-70924000D01*
X116981389Y-70996923D01*
X116670592Y-71204592D01*
X113622592Y-74252592D01*
X113414923Y-74563389D01*
X113342000Y-74930000D01*
X112098816Y-74930000D01*
X118760816Y-68268000D01*
X134366000Y-68268000D01*
X134732611Y-68195077D01*
X135043408Y-67987408D01*
X140218466Y-62812350D01*
X145527713Y-62812350D01*
X145779597Y-63421955D01*
X146091233Y-63734135D01*
X145781236Y-64043592D01*
X145528289Y-64652757D01*
X145527713Y-65312350D01*
X145779597Y-65921955D01*
X146245592Y-66388764D01*
X146854757Y-66641711D01*
X147514350Y-66642287D01*
X148123955Y-66390403D01*
X148590764Y-65924408D01*
X148711351Y-65634000D01*
X152663150Y-65634000D01*
X152663150Y-68134000D01*
X152716005Y-68414898D01*
X152882015Y-68672886D01*
X153135318Y-68845960D01*
X153436000Y-68906850D01*
X155936000Y-68906850D01*
X156216898Y-68853995D01*
X156474886Y-68687985D01*
X156647960Y-68434682D01*
X156708850Y-68134000D01*
X156708850Y-65634000D01*
X156655995Y-65353102D01*
X156629772Y-65312350D01*
X160027713Y-65312350D01*
X160279597Y-65921955D01*
X160745592Y-66388764D01*
X161354757Y-66641711D01*
X162014350Y-66642287D01*
X162623955Y-66390403D01*
X163090764Y-65924408D01*
X163343711Y-65315243D01*
X163344287Y-64655650D01*
X163092403Y-64046045D01*
X162626408Y-63579236D01*
X162017243Y-63326289D01*
X161357650Y-63325713D01*
X160748045Y-63577597D01*
X160281236Y-64043592D01*
X160028289Y-64652757D01*
X160027713Y-65312350D01*
X156629772Y-65312350D01*
X156489985Y-65095114D01*
X156236682Y-64922040D01*
X155936000Y-64861150D01*
X153436000Y-64861150D01*
X153155102Y-64914005D01*
X152897114Y-65080015D01*
X152724040Y-65333318D01*
X152663150Y-65634000D01*
X148711351Y-65634000D01*
X148843711Y-65315243D01*
X148844287Y-64655650D01*
X148592403Y-64046045D01*
X148280767Y-63733865D01*
X148590764Y-63424408D01*
X148843711Y-62815243D01*
X148844287Y-62155650D01*
X148592403Y-61546045D01*
X148183272Y-61136199D01*
X148473842Y-60846135D01*
X148695489Y-60312350D01*
X160027713Y-60312350D01*
X160279597Y-60921955D01*
X160745592Y-61388764D01*
X161354757Y-61641711D01*
X162014350Y-61642287D01*
X162623955Y-61390403D01*
X163090764Y-60924408D01*
X163279911Y-60468890D01*
X192916319Y-60468890D01*
X193513821Y-61914955D01*
X194619226Y-63022291D01*
X196064246Y-63622316D01*
X197628890Y-63623681D01*
X199074955Y-63026179D01*
X200182291Y-61920774D01*
X200782316Y-60475754D01*
X200783681Y-58911110D01*
X200186179Y-57465045D01*
X199080774Y-56357709D01*
X197635754Y-55757684D01*
X196071110Y-55756319D01*
X194625045Y-56353821D01*
X193517709Y-57459226D01*
X192917684Y-58904246D01*
X192916319Y-60468890D01*
X163279911Y-60468890D01*
X163343711Y-60315243D01*
X163344287Y-59655650D01*
X163092403Y-59046045D01*
X162626408Y-58579236D01*
X162017243Y-58326289D01*
X161357650Y-58325713D01*
X160748045Y-58577597D01*
X160281236Y-59043592D01*
X160028289Y-59652757D01*
X160027713Y-60312350D01*
X148695489Y-60312350D01*
X148705736Y-60287673D01*
X148706264Y-59682980D01*
X148475345Y-59124114D01*
X148048135Y-58696158D01*
X147489673Y-58464264D01*
X146884980Y-58463736D01*
X146326114Y-58694655D01*
X145898158Y-59121865D01*
X145666264Y-59680327D01*
X145665736Y-60285020D01*
X145896655Y-60843886D01*
X146188899Y-61136640D01*
X145781236Y-61543592D01*
X145528289Y-62152757D01*
X145527713Y-62812350D01*
X140218466Y-62812350D01*
X141928644Y-61102172D01*
X141961330Y-61102201D01*
X142387098Y-60926277D01*
X142713133Y-60600811D01*
X142889799Y-60175351D01*
X142890201Y-59714670D01*
X142714277Y-59288902D01*
X142388811Y-58962867D01*
X141963351Y-58786201D01*
X141502670Y-58785799D01*
X141076902Y-58961723D01*
X140750867Y-59287189D01*
X140574201Y-59712649D01*
X140574171Y-59747013D01*
X133969184Y-66352000D01*
X118364000Y-66352000D01*
X117997389Y-66424923D01*
X117686592Y-66632592D01*
X110320592Y-73998592D01*
X110112923Y-74309389D01*
X110040000Y-74676000D01*
X78303000Y-74676000D01*
X78303000Y-70053200D01*
X110324200Y-70053200D01*
X110419960Y-70534615D01*
X110692660Y-70942740D01*
X111100785Y-71215440D01*
X111582200Y-71311200D01*
X112063615Y-71215440D01*
X112471740Y-70942740D01*
X120459880Y-62954600D01*
X128371600Y-62954600D01*
X128853016Y-62858840D01*
X129261140Y-62586140D01*
X129533840Y-62178016D01*
X129629600Y-61696600D01*
X129533840Y-61215184D01*
X129261140Y-60807060D01*
X128853016Y-60534360D01*
X128371600Y-60438600D01*
X119938800Y-60438600D01*
X119457384Y-60534360D01*
X119327108Y-60621408D01*
X119049260Y-60807060D01*
X110692660Y-69163660D01*
X110419960Y-69571785D01*
X110324200Y-70053200D01*
X78303000Y-70053200D01*
X78303000Y-68027526D01*
X108288817Y-68027526D01*
X108449549Y-68416526D01*
X108746909Y-68714405D01*
X109135628Y-68875816D01*
X109556526Y-68876183D01*
X109945526Y-68715451D01*
X110243405Y-68418091D01*
X110344012Y-68175805D01*
X112564408Y-65955409D01*
X112772077Y-65644611D01*
X112801420Y-65497091D01*
X112817985Y-65413813D01*
X112944816Y-65108372D01*
X112945183Y-64687474D01*
X112784451Y-64298474D01*
X112487091Y-64000595D01*
X112098372Y-63839184D01*
X111677474Y-63838817D01*
X111288474Y-63999549D01*
X110990595Y-64296909D01*
X110829184Y-64685628D01*
X110828926Y-64981257D01*
X108989032Y-66821152D01*
X108748474Y-66920549D01*
X108450595Y-67217909D01*
X108289184Y-67606628D01*
X108288817Y-68027526D01*
X78303000Y-68027526D01*
X78303000Y-60468890D01*
X81156319Y-60468890D01*
X81753821Y-61914955D01*
X82859226Y-63022291D01*
X84304246Y-63622316D01*
X85868890Y-63623681D01*
X87314955Y-63026179D01*
X88157076Y-62185526D01*
X94445817Y-62185526D01*
X94606549Y-62574526D01*
X94903909Y-62872405D01*
X95292628Y-63033816D01*
X95713526Y-63034183D01*
X96102526Y-62873451D01*
X96400405Y-62576091D01*
X96501012Y-62333805D01*
X98401970Y-60432847D01*
X98642526Y-60333451D01*
X98940405Y-60036091D01*
X99101816Y-59647372D01*
X99102183Y-59226474D01*
X98941451Y-58837474D01*
X98644091Y-58539595D01*
X98255372Y-58378184D01*
X97834474Y-58377817D01*
X97445474Y-58538549D01*
X97147595Y-58835909D01*
X97046989Y-59078194D01*
X95146032Y-60979152D01*
X94905474Y-61078549D01*
X94607595Y-61375909D01*
X94446184Y-61764628D01*
X94445817Y-62185526D01*
X88157076Y-62185526D01*
X88422291Y-61920774D01*
X89022316Y-60475754D01*
X89023681Y-58911110D01*
X88519656Y-57691275D01*
X122694382Y-57691275D01*
X122774669Y-58007463D01*
X123410454Y-58298845D01*
X124109350Y-58324743D01*
X124764956Y-58081213D01*
X124875331Y-58007463D01*
X124955618Y-57691275D01*
X123825000Y-56560657D01*
X122694382Y-57691275D01*
X88519656Y-57691275D01*
X88426179Y-57465045D01*
X87801576Y-56839350D01*
X122055257Y-56839350D01*
X122298787Y-57494956D01*
X122372537Y-57605331D01*
X122688725Y-57685618D01*
X123819343Y-56555000D01*
X123830657Y-56555000D01*
X124961275Y-57685618D01*
X125277463Y-57605331D01*
X125568845Y-56969546D01*
X125571305Y-56903154D01*
X127146696Y-56903154D01*
X127413771Y-57549526D01*
X127907873Y-58044491D01*
X128553778Y-58312694D01*
X129253154Y-58313304D01*
X129899526Y-58046229D01*
X130394491Y-57552127D01*
X130662694Y-56906222D01*
X130662696Y-56903154D01*
X132226696Y-56903154D01*
X132493771Y-57549526D01*
X132987873Y-58044491D01*
X133633778Y-58312694D01*
X134333154Y-58313304D01*
X134979526Y-58046229D01*
X135474491Y-57552127D01*
X135742694Y-56906222D01*
X135742696Y-56903154D01*
X137306696Y-56903154D01*
X137573771Y-57549526D01*
X138067873Y-58044491D01*
X138713778Y-58312694D01*
X139413154Y-58313304D01*
X140059526Y-58046229D01*
X140554491Y-57552127D01*
X140822694Y-56906222D01*
X140822756Y-56834000D01*
X152663150Y-56834000D01*
X152663150Y-59334000D01*
X152716005Y-59614898D01*
X152882015Y-59872886D01*
X153135318Y-60045960D01*
X153436000Y-60106850D01*
X155936000Y-60106850D01*
X156216898Y-60053995D01*
X156474886Y-59887985D01*
X156647960Y-59634682D01*
X156708850Y-59334000D01*
X156708850Y-56834000D01*
X156655995Y-56553102D01*
X156489985Y-56295114D01*
X156236682Y-56122040D01*
X155936000Y-56061150D01*
X153436000Y-56061150D01*
X153155102Y-56114005D01*
X152897114Y-56280015D01*
X152724040Y-56533318D01*
X152663150Y-56834000D01*
X140822756Y-56834000D01*
X140823304Y-56206846D01*
X140556229Y-55560474D01*
X140062127Y-55065509D01*
X139416222Y-54797306D01*
X138716846Y-54796696D01*
X138070474Y-55063771D01*
X137575509Y-55557873D01*
X137307306Y-56203778D01*
X137306696Y-56903154D01*
X135742696Y-56903154D01*
X135743304Y-56206846D01*
X135476229Y-55560474D01*
X134982127Y-55065509D01*
X134336222Y-54797306D01*
X133636846Y-54796696D01*
X132990474Y-55063771D01*
X132495509Y-55557873D01*
X132227306Y-56203778D01*
X132226696Y-56903154D01*
X130662696Y-56903154D01*
X130663304Y-56206846D01*
X130396229Y-55560474D01*
X129902127Y-55065509D01*
X129256222Y-54797306D01*
X128556846Y-54796696D01*
X127910474Y-55063771D01*
X127415509Y-55557873D01*
X127147306Y-56203778D01*
X127146696Y-56903154D01*
X125571305Y-56903154D01*
X125594743Y-56270650D01*
X125351213Y-55615044D01*
X125277463Y-55504669D01*
X124961275Y-55424382D01*
X123830657Y-56555000D01*
X123819343Y-56555000D01*
X122688725Y-55424382D01*
X122372537Y-55504669D01*
X122081155Y-56140454D01*
X122055257Y-56839350D01*
X87801576Y-56839350D01*
X87320774Y-56357709D01*
X85875754Y-55757684D01*
X84311110Y-55756319D01*
X82865045Y-56353821D01*
X81757709Y-57459226D01*
X81157684Y-58904246D01*
X81156319Y-60468890D01*
X78303000Y-60468890D01*
X78303000Y-55418725D01*
X122694382Y-55418725D01*
X123825000Y-56549343D01*
X124955618Y-55418725D01*
X124875331Y-55102537D01*
X124239546Y-54811155D01*
X123540650Y-54785257D01*
X122885044Y-55028787D01*
X122774669Y-55102537D01*
X122694382Y-55418725D01*
X78303000Y-55418725D01*
X78303000Y-52903000D01*
X203637000Y-52903000D01*
X203637000Y-152837000D01*
G36*
X163164710Y-135086900D02*
X163354210Y-135276400D01*
X164717540Y-135276400D01*
X164717540Y-135256400D01*
X164725540Y-135256400D01*
X164725540Y-135276400D01*
X164745540Y-135276400D01*
X164745540Y-135284400D01*
X164725540Y-135284400D01*
X164725540Y-135304400D01*
X164717540Y-135304400D01*
X164717540Y-135284400D01*
X163354210Y-135284400D01*
X163164710Y-135473900D01*
X163164710Y-135749494D01*
X163009883Y-135594667D01*
X163067000Y-135456775D01*
X163067000Y-135194500D01*
X162877500Y-135005000D01*
X161678000Y-135005000D01*
X161678000Y-135025000D01*
X161670000Y-135025000D01*
X161670000Y-135005000D01*
X161650000Y-135005000D01*
X161650000Y-134997000D01*
X161670000Y-134997000D01*
X161670000Y-134977000D01*
X161678000Y-134977000D01*
X161678000Y-134997000D01*
X162877500Y-134997000D01*
X163067000Y-134807500D01*
X163067000Y-134545225D01*
X163054047Y-134513954D01*
X163164710Y-134440012D01*
X163164710Y-135086900D01*
X163164710Y-135086900D01*
G37*
X163164710Y-135086900D02*
X163354210Y-135276400D01*
X164717540Y-135276400D01*
X164717540Y-135256400D01*
X164725540Y-135256400D01*
X164725540Y-135276400D01*
X164745540Y-135276400D01*
X164745540Y-135284400D01*
X164725540Y-135284400D01*
X164725540Y-135304400D01*
X164717540Y-135304400D01*
X164717540Y-135284400D01*
X163354210Y-135284400D01*
X163164710Y-135473900D01*
X163164710Y-135749494D01*
X163009883Y-135594667D01*
X163067000Y-135456775D01*
X163067000Y-135194500D01*
X162877500Y-135005000D01*
X161678000Y-135005000D01*
X161678000Y-135025000D01*
X161670000Y-135025000D01*
X161670000Y-135005000D01*
X161650000Y-135005000D01*
X161650000Y-134997000D01*
X161670000Y-134997000D01*
X161670000Y-134977000D01*
X161678000Y-134977000D01*
X161678000Y-134997000D01*
X162877500Y-134997000D01*
X163067000Y-134807500D01*
X163067000Y-134545225D01*
X163054047Y-134513954D01*
X163164710Y-134440012D01*
X163164710Y-135086900D01*
G36*
X187015310Y-123250500D02*
X187204810Y-123440000D01*
X188568140Y-123440000D01*
X188568140Y-123420000D01*
X188576140Y-123420000D01*
X188576140Y-123440000D01*
X188596140Y-123440000D01*
X188596140Y-123448000D01*
X188576140Y-123448000D01*
X188576140Y-123468000D01*
X188568140Y-123468000D01*
X188568140Y-123448000D01*
X187204810Y-123448000D01*
X187015310Y-123637500D01*
X187015310Y-124192494D01*
X186732408Y-123909592D01*
X186435000Y-123710869D01*
X186435000Y-123510500D01*
X186245500Y-123321000D01*
X185046000Y-123321000D01*
X185046000Y-123341000D01*
X185038000Y-123341000D01*
X185038000Y-123321000D01*
X185018000Y-123321000D01*
X185018000Y-123313000D01*
X185038000Y-123313000D01*
X185038000Y-123293000D01*
X185046000Y-123293000D01*
X185046000Y-123313000D01*
X186245500Y-123313000D01*
X186435000Y-123123500D01*
X186435000Y-122979937D01*
X186675611Y-122932077D01*
X186986408Y-122724408D01*
X187015310Y-122695506D01*
X187015310Y-123250500D01*
X187015310Y-123250500D01*
G37*
X187015310Y-123250500D02*
X187204810Y-123440000D01*
X188568140Y-123440000D01*
X188568140Y-123420000D01*
X188576140Y-123420000D01*
X188576140Y-123440000D01*
X188596140Y-123440000D01*
X188596140Y-123448000D01*
X188576140Y-123448000D01*
X188576140Y-123468000D01*
X188568140Y-123468000D01*
X188568140Y-123448000D01*
X187204810Y-123448000D01*
X187015310Y-123637500D01*
X187015310Y-124192494D01*
X186732408Y-123909592D01*
X186435000Y-123710869D01*
X186435000Y-123510500D01*
X186245500Y-123321000D01*
X185046000Y-123321000D01*
X185046000Y-123341000D01*
X185038000Y-123341000D01*
X185038000Y-123321000D01*
X185018000Y-123321000D01*
X185018000Y-123313000D01*
X185038000Y-123313000D01*
X185038000Y-123293000D01*
X185046000Y-123293000D01*
X185046000Y-123313000D01*
X186245500Y-123313000D01*
X186435000Y-123123500D01*
X186435000Y-122979937D01*
X186675611Y-122932077D01*
X186986408Y-122724408D01*
X187015310Y-122695506D01*
X187015310Y-123250500D01*
G36*
X164129910Y-109585300D02*
X164319410Y-109774800D01*
X165682740Y-109774800D01*
X165682740Y-109754800D01*
X165690740Y-109754800D01*
X165690740Y-109774800D01*
X165710740Y-109774800D01*
X165710740Y-109782800D01*
X165690740Y-109782800D01*
X165690740Y-109802800D01*
X165682740Y-109802800D01*
X165682740Y-109782800D01*
X164319410Y-109782800D01*
X164129910Y-109972300D01*
X164129910Y-110830005D01*
X164149873Y-110878200D01*
X163972816Y-110878200D01*
X163288208Y-110193592D01*
X163067000Y-110045785D01*
X163067000Y-109794500D01*
X162877500Y-109605000D01*
X161678000Y-109605000D01*
X161678000Y-109625000D01*
X161670000Y-109625000D01*
X161670000Y-109605000D01*
X161650000Y-109605000D01*
X161650000Y-109597000D01*
X161670000Y-109597000D01*
X161670000Y-109577000D01*
X161678000Y-109577000D01*
X161678000Y-109597000D01*
X162877500Y-109597000D01*
X163067000Y-109407500D01*
X163067000Y-109145225D01*
X162995845Y-108973440D01*
X163020960Y-108936682D01*
X163062774Y-108730200D01*
X164129910Y-108730200D01*
X164129910Y-109585300D01*
X164129910Y-109585300D01*
G37*
X164129910Y-109585300D02*
X164319410Y-109774800D01*
X165682740Y-109774800D01*
X165682740Y-109754800D01*
X165690740Y-109754800D01*
X165690740Y-109774800D01*
X165710740Y-109774800D01*
X165710740Y-109782800D01*
X165690740Y-109782800D01*
X165690740Y-109802800D01*
X165682740Y-109802800D01*
X165682740Y-109782800D01*
X164319410Y-109782800D01*
X164129910Y-109972300D01*
X164129910Y-110830005D01*
X164149873Y-110878200D01*
X163972816Y-110878200D01*
X163288208Y-110193592D01*
X163067000Y-110045785D01*
X163067000Y-109794500D01*
X162877500Y-109605000D01*
X161678000Y-109605000D01*
X161678000Y-109625000D01*
X161670000Y-109625000D01*
X161670000Y-109605000D01*
X161650000Y-109605000D01*
X161650000Y-109597000D01*
X161670000Y-109597000D01*
X161670000Y-109577000D01*
X161678000Y-109577000D01*
X161678000Y-109597000D01*
X162877500Y-109597000D01*
X163067000Y-109407500D01*
X163067000Y-109145225D01*
X162995845Y-108973440D01*
X163020960Y-108936682D01*
X163062774Y-108730200D01*
X164129910Y-108730200D01*
X164129910Y-109585300D01*
M02*
