G04 #@! TF.FileFunction,Copper,L2,Bot,Signal*
%FSLAX46Y46*%
G04 Gerber Fmt 4.6, Leading zero omitted, Abs format (unit mm)*
G04 Created by KiCad (PCBNEW (2015-08-13 BZR 6091)-product) date Friday, March 04, 2016 'AMt' 08:21:24 AM*
%MOMM*%
G01*
G04 APERTURE LIST*
%ADD10C,0.100000*%
%ADD11C,1.600000*%
%ADD12C,2.000000*%
%ADD13R,1.597660X1.800860*%
%ADD14R,1.800860X1.597660*%
%ADD15O,2.300000X1.600000*%
%ADD16C,3.000000*%
%ADD17R,2.000000X2.000000*%
%ADD18C,1.500000*%
%ADD19C,1.800000*%
%ADD20C,1.524000*%
%ADD21R,2.500000X2.500000*%
%ADD22R,1.727200X1.727200*%
%ADD23O,1.727200X1.727200*%
%ADD24C,2.800000*%
%ADD25C,0.600000*%
%ADD26C,0.800000*%
%ADD27C,1.000000*%
%ADD28C,0.400000*%
%ADD29C,1.900000*%
%ADD30C,0.254000*%
G04 APERTURE END LIST*
D10*
D11*
X118500000Y-129810000D03*
X118500000Y-127300000D03*
X118500000Y-124730000D03*
X118500000Y-122190000D03*
D12*
X139065000Y-56555000D03*
X133985000Y-56555000D03*
X128905000Y-56555000D03*
X123825000Y-56555000D03*
D13*
X86464140Y-89408000D03*
X89303860Y-89408000D03*
X106131360Y-110553500D03*
X103291640Y-110553500D03*
X114703860Y-75184000D03*
X111864140Y-75184000D03*
X163680140Y-59944000D03*
X166519860Y-59944000D03*
X176380140Y-72644000D03*
X179219860Y-72644000D03*
D14*
X198120000Y-82191860D03*
X198120000Y-79352140D03*
X142748000Y-66443860D03*
X142748000Y-63604140D03*
X155956000Y-71274940D03*
X155956000Y-74114660D03*
X177139600Y-88745060D03*
X177139600Y-85905340D03*
X100584000Y-99672140D03*
X100584000Y-102511860D03*
X112268000Y-94383860D03*
X112268000Y-91544140D03*
X106680000Y-94383860D03*
X106680000Y-91544140D03*
D11*
X201148000Y-95944000D03*
X201148000Y-100944000D03*
X135148000Y-150944000D03*
X135148000Y-145944000D03*
D15*
X119126000Y-74930000D03*
X119126000Y-77470000D03*
X119126000Y-80010000D03*
X119126000Y-82550000D03*
X119126000Y-85090000D03*
X119126000Y-87630000D03*
X119126000Y-90170000D03*
X119126000Y-92710000D03*
X119126000Y-95250000D03*
X119126000Y-97790000D03*
X119126000Y-100330000D03*
X119126000Y-102870000D03*
X119126000Y-105410000D03*
X119126000Y-107950000D03*
X126746000Y-107950000D03*
X126746000Y-105410000D03*
X126746000Y-102870000D03*
X126746000Y-100330000D03*
X126746000Y-97790000D03*
X126746000Y-95250000D03*
X126746000Y-92710000D03*
X126746000Y-90170000D03*
X126746000Y-87630000D03*
X126746000Y-85090000D03*
X126746000Y-82550000D03*
X126746000Y-80010000D03*
X126746000Y-77470000D03*
X126746000Y-74930000D03*
D16*
X92884000Y-110236000D03*
X82884000Y-110236000D03*
D17*
X92964000Y-89408000D03*
D12*
X95504000Y-89408000D03*
D17*
X99568000Y-110236000D03*
D12*
X97028000Y-110236000D03*
D18*
X100457000Y-93853000D03*
X100457000Y-96253000D03*
X100457000Y-91453000D03*
D19*
X161686000Y-64984000D03*
X161686000Y-59984000D03*
X147186000Y-62484000D03*
X147186000Y-64984000D03*
D20*
X147186000Y-59984000D03*
D21*
X154686000Y-66884000D03*
X154686000Y-58084000D03*
D19*
X173624000Y-77684000D03*
X173624000Y-72684000D03*
X159124000Y-75184000D03*
X159124000Y-77684000D03*
D20*
X159124000Y-72684000D03*
D21*
X166624000Y-79584000D03*
X166624000Y-70784000D03*
D19*
X194960000Y-87336000D03*
X194960000Y-82336000D03*
X180460000Y-84836000D03*
X180460000Y-87336000D03*
D20*
X180460000Y-82336000D03*
D21*
X187960000Y-89236000D03*
X187960000Y-80436000D03*
D22*
X100076000Y-77470000D03*
D23*
X100076000Y-80010000D03*
X97536000Y-77470000D03*
X97536000Y-80010000D03*
X94996000Y-77470000D03*
X94996000Y-80010000D03*
X92456000Y-77470000D03*
X92456000Y-80010000D03*
X89916000Y-77470000D03*
X89916000Y-80010000D03*
D16*
X82804000Y-105076000D03*
X82804000Y-95076000D03*
D11*
X109728000Y-129794000D03*
X109728000Y-127284000D03*
X109728000Y-124714000D03*
X109728000Y-122174000D03*
X102108000Y-129794000D03*
X102108000Y-127284000D03*
X102108000Y-124714000D03*
X102108000Y-122174000D03*
X93218000Y-129794000D03*
X93218000Y-127284000D03*
X93218000Y-124714000D03*
X93218000Y-122174000D03*
X85598000Y-129794000D03*
X85598000Y-127284000D03*
X85598000Y-124714000D03*
X85598000Y-122174000D03*
D24*
X85090000Y-59690000D03*
X196850000Y-59690000D03*
X196850000Y-146050000D03*
X85090000Y-146050000D03*
D25*
X111582200Y-70053200D03*
X128371600Y-61696600D03*
X124968000Y-92964000D03*
X120904000Y-90932000D03*
X92964000Y-114808000D03*
X111887000Y-64897000D03*
X109347000Y-67818000D03*
X95504000Y-61976000D03*
X98044000Y-59436000D03*
X119380000Y-111252000D03*
X184404000Y-95504000D03*
X132588000Y-104140000D03*
X138684000Y-80264000D03*
X161544000Y-69088000D03*
X121412000Y-99060000D03*
D26*
X115316000Y-77470000D03*
X143002000Y-69596000D03*
X141732000Y-59944000D03*
X113284000Y-80010000D03*
D25*
X156718000Y-131064000D03*
X115824000Y-92964000D03*
X115824000Y-88900000D03*
D26*
X179578000Y-117856000D03*
D25*
X176377600Y-118846600D03*
D27*
X106680000Y-91544140D02*
X112268000Y-91544140D01*
X112268000Y-91544140D02*
X113642140Y-90170000D01*
X113642140Y-90170000D02*
X119126000Y-90170000D01*
X100457000Y-91453000D02*
X100457000Y-80391000D01*
X100457000Y-80391000D02*
X105664000Y-75184000D01*
X105664000Y-75184000D02*
X111864140Y-75184000D01*
X111864140Y-75184000D02*
X111582200Y-74902060D01*
X111582200Y-74902060D02*
X111582200Y-70053200D01*
X128371600Y-61696600D02*
X128905000Y-61163200D01*
X128905000Y-61163200D02*
X128905000Y-56555000D01*
X100457000Y-91453000D02*
X106588860Y-91453000D01*
X106588860Y-91453000D02*
X106680000Y-91544140D01*
D28*
X119126000Y-90170000D02*
X120142000Y-90170000D01*
X120142000Y-90170000D02*
X120904000Y-90932000D01*
X125222000Y-92710000D02*
X126746000Y-92710000D01*
X124968000Y-92964000D02*
X125222000Y-92710000D01*
X95504000Y-89408000D02*
X98412000Y-89408000D01*
X98412000Y-89408000D02*
X100457000Y-91453000D01*
X126746000Y-92710000D02*
X126746000Y-95250000D01*
X100076000Y-91072000D02*
X100457000Y-91453000D01*
X106562860Y-91453000D02*
X106680000Y-91335860D01*
D29*
X92884000Y-114728000D02*
X92964000Y-114808000D01*
X92884000Y-110236000D02*
X92884000Y-114728000D01*
X100457000Y-96253000D02*
X100457000Y-99545140D01*
X100457000Y-99545140D02*
X100584000Y-99672140D01*
X100457000Y-96253000D02*
X97803000Y-96253000D01*
X92884000Y-101172000D02*
X92884000Y-110236000D01*
X97803000Y-96253000D02*
X92884000Y-101172000D01*
X92884000Y-110236000D02*
X97028000Y-110236000D01*
D28*
X121920000Y-98044000D02*
X121920000Y-69088000D01*
X121920000Y-69088000D02*
X114300000Y-61976000D01*
X112395000Y-62103000D02*
X114300000Y-61976000D01*
X121920000Y-98044000D02*
X126746000Y-102870000D01*
X126746000Y-102870000D02*
X125730000Y-102870000D01*
X112395000Y-64389000D02*
X112395000Y-62103000D01*
X111887000Y-64897000D02*
X112395000Y-64389000D01*
X100076000Y-77089000D02*
X109347000Y-67818000D01*
X100076000Y-77470000D02*
X100076000Y-77089000D01*
X114703860Y-75184000D02*
X114703860Y-70507860D01*
X99314000Y-73152000D02*
X94996000Y-77470000D01*
X100076000Y-73152000D02*
X99314000Y-73152000D01*
X107188000Y-66040000D02*
X100076000Y-73152000D01*
X110236000Y-66040000D02*
X107188000Y-66040000D01*
X114703860Y-70507860D02*
X110236000Y-66040000D01*
X114703860Y-75184000D02*
X118872000Y-75184000D01*
X118872000Y-75184000D02*
X119126000Y-74930000D01*
X94996000Y-77470000D02*
X94996000Y-76708000D01*
X119380000Y-74676000D02*
X119126000Y-74930000D01*
X93726000Y-63754000D02*
X93726000Y-71120000D01*
X93726000Y-71120000D02*
X92456000Y-72390000D01*
X92456000Y-77470000D02*
X92456000Y-72390000D01*
X125222000Y-97790000D02*
X126746000Y-97790000D01*
X123952000Y-96520000D02*
X123977400Y-63525400D01*
X125222000Y-97790000D02*
X123952000Y-96520000D01*
X93726000Y-63754000D02*
X95504000Y-61976000D01*
X98044000Y-59436000D02*
X119913400Y-59461400D01*
X119913400Y-59461400D02*
X123977400Y-63525400D01*
X91440000Y-60960000D02*
X88646000Y-63754000D01*
X115824000Y-60960000D02*
X91440000Y-60960000D01*
X122936000Y-68072000D02*
X115824000Y-60960000D01*
X122936000Y-97028000D02*
X122936000Y-68072000D01*
X122936000Y-97028000D02*
X126238000Y-100330000D01*
X126746000Y-100330000D02*
X126238000Y-100330000D01*
X88646000Y-63754000D02*
X88646000Y-72009000D01*
X89916000Y-73279000D02*
X89916000Y-77470000D01*
X88646000Y-72009000D02*
X89916000Y-73279000D01*
X194960000Y-87336000D02*
X194960000Y-89520000D01*
X119126000Y-110998000D02*
X119126000Y-107950000D01*
X119380000Y-111252000D02*
X119126000Y-110998000D01*
X188976000Y-95504000D02*
X184404000Y-95504000D01*
X194960000Y-89520000D02*
X188976000Y-95504000D01*
X194960000Y-82336000D02*
X197975860Y-82336000D01*
X197975860Y-82336000D02*
X198120000Y-82191860D01*
X180460000Y-84836000D02*
X177904140Y-84836000D01*
X177904140Y-84836000D02*
X176784000Y-85956140D01*
X180460000Y-87336000D02*
X127040000Y-87336000D01*
X127040000Y-87336000D02*
X126746000Y-87630000D01*
X180460000Y-82336000D02*
X176998000Y-82336000D01*
X130048000Y-85090000D02*
X126746000Y-85090000D01*
X131064000Y-86106000D02*
X130048000Y-85090000D01*
X173228000Y-86106000D02*
X131064000Y-86106000D01*
X176998000Y-82336000D02*
X173228000Y-86106000D01*
X171664000Y-77684000D02*
X170180000Y-76200000D01*
X170180000Y-76200000D02*
X164084000Y-76200000D01*
X164084000Y-76200000D02*
X160020000Y-80264000D01*
X160020000Y-80264000D02*
X138684000Y-80264000D01*
X173624000Y-77684000D02*
X171664000Y-77684000D01*
X128778000Y-107950000D02*
X126746000Y-107950000D01*
X132588000Y-104140000D02*
X128778000Y-107950000D01*
X173624000Y-72684000D02*
X176340140Y-72684000D01*
X176340140Y-72684000D02*
X176380140Y-72644000D01*
X159124000Y-75184000D02*
X157076140Y-75184000D01*
X157076140Y-75184000D02*
X155956000Y-74063860D01*
X159124000Y-77684000D02*
X131612000Y-77684000D01*
X131612000Y-77684000D02*
X126746000Y-82550000D01*
X159124000Y-72684000D02*
X134072000Y-72684000D01*
X134072000Y-72684000D02*
X126746000Y-80010000D01*
X161686000Y-64984000D02*
X161686000Y-68722000D01*
X161686000Y-68722000D02*
X161544000Y-69088000D01*
X121412000Y-99060000D02*
X120142000Y-97790000D01*
X120142000Y-97790000D02*
X119126000Y-97790000D01*
X161686000Y-59984000D02*
X163640140Y-59984000D01*
X163640140Y-59984000D02*
X163680140Y-59944000D01*
X162186000Y-59984000D02*
X162186000Y-59951000D01*
X142748000Y-63604140D02*
X146065860Y-63604140D01*
X146065860Y-63604140D02*
X147186000Y-62484000D01*
X115316000Y-77470000D02*
X119126000Y-77470000D01*
X147186000Y-65412000D02*
X143002000Y-69596000D01*
X147186000Y-64984000D02*
X147186000Y-65412000D01*
X147186000Y-59984000D02*
X141772000Y-59984000D01*
X141772000Y-59984000D02*
X141732000Y-59944000D01*
X113284000Y-80010000D02*
X119126000Y-80010000D01*
X142748000Y-131064000D02*
X156718000Y-131064000D01*
X123952000Y-112268000D02*
X142748000Y-131064000D01*
X118364000Y-112268000D02*
X123952000Y-112268000D01*
X116332000Y-110236000D02*
X118364000Y-112268000D01*
X116332000Y-93472000D02*
X116332000Y-110236000D01*
X115824000Y-92964000D02*
X116332000Y-93472000D01*
X116078000Y-85090000D02*
X115824000Y-88900000D01*
X116078000Y-85090000D02*
X119126000Y-85090000D01*
X133604000Y-117856000D02*
X179578000Y-117856000D01*
X124460000Y-108712000D02*
X133604000Y-117856000D01*
X124460000Y-102616000D02*
X124460000Y-108712000D01*
X122174000Y-100330000D02*
X124460000Y-102616000D01*
X119126000Y-100330000D02*
X122174000Y-100330000D01*
X119126000Y-100330000D02*
X118999000Y-100330000D01*
X119126000Y-100330000D02*
X118618000Y-100330000D01*
X99568000Y-110236000D02*
X102616000Y-110236000D01*
X102616000Y-110236000D02*
X103124000Y-110744000D01*
X89303860Y-89408000D02*
X92964000Y-89408000D01*
D29*
X82804000Y-105076000D02*
X82804000Y-110156000D01*
X82804000Y-110156000D02*
X82884000Y-110236000D01*
D28*
X119126000Y-102870000D02*
X122174000Y-102870000D01*
X122174000Y-102870000D02*
X122936000Y-103632000D01*
X122936000Y-103632000D02*
X122936000Y-109220000D01*
X122936000Y-109220000D02*
X132588000Y-118872000D01*
X132588000Y-118872000D02*
X176377600Y-118846600D01*
X119126000Y-102870000D02*
X118872000Y-102870000D01*
X126746000Y-77470000D02*
X127228600Y-77470000D01*
X127228600Y-77470000D02*
X139065000Y-65633600D01*
X139065000Y-65633600D02*
X139065000Y-56555000D01*
X126746000Y-74930000D02*
X126746000Y-70739000D01*
X133985000Y-63500000D02*
X133985000Y-56555000D01*
X126746000Y-70739000D02*
X133985000Y-63500000D01*
D30*
G36*
X203708000Y-152908000D02*
X78232000Y-152908000D01*
X78232000Y-151228187D01*
X133712752Y-151228187D01*
X133930757Y-151755800D01*
X134334077Y-152159824D01*
X134861309Y-152378750D01*
X135432187Y-152379248D01*
X135959800Y-152161243D01*
X136363824Y-151757923D01*
X136582750Y-151230691D01*
X136583248Y-150659813D01*
X136365243Y-150132200D01*
X135961923Y-149728176D01*
X135434691Y-149509250D01*
X134863813Y-149508752D01*
X134336200Y-149726757D01*
X133932176Y-150130077D01*
X133713250Y-150657309D01*
X133712752Y-151228187D01*
X78232000Y-151228187D01*
X78232000Y-146748486D01*
X81562389Y-146748486D01*
X82098211Y-148045275D01*
X83089506Y-149038302D01*
X84385358Y-149576386D01*
X85788486Y-149577611D01*
X87085275Y-149041789D01*
X88078302Y-148050494D01*
X88616386Y-146754642D01*
X88616845Y-146228187D01*
X133712752Y-146228187D01*
X133930757Y-146755800D01*
X134334077Y-147159824D01*
X134861309Y-147378750D01*
X135432187Y-147379248D01*
X135959800Y-147161243D01*
X136363824Y-146757923D01*
X136367742Y-146748486D01*
X193322389Y-146748486D01*
X193858211Y-148045275D01*
X194849506Y-149038302D01*
X196145358Y-149576386D01*
X197548486Y-149577611D01*
X198845275Y-149041789D01*
X199838302Y-148050494D01*
X200376386Y-146754642D01*
X200377611Y-145351514D01*
X199841789Y-144054725D01*
X198850494Y-143061698D01*
X197554642Y-142523614D01*
X196151514Y-142522389D01*
X194854725Y-143058211D01*
X193861698Y-144049506D01*
X193323614Y-145345358D01*
X193322389Y-146748486D01*
X136367742Y-146748486D01*
X136582750Y-146230691D01*
X136583248Y-145659813D01*
X136365243Y-145132200D01*
X135961923Y-144728176D01*
X135434691Y-144509250D01*
X134863813Y-144508752D01*
X134336200Y-144726757D01*
X133932176Y-145130077D01*
X133713250Y-145657309D01*
X133712752Y-146228187D01*
X88616845Y-146228187D01*
X88617611Y-145351514D01*
X88081789Y-144054725D01*
X87090494Y-143061698D01*
X85794642Y-142523614D01*
X84391514Y-142522389D01*
X83094725Y-143058211D01*
X82101698Y-144049506D01*
X81563614Y-145345358D01*
X81562389Y-146748486D01*
X78232000Y-146748486D01*
X78232000Y-122458187D01*
X84162752Y-122458187D01*
X84380757Y-122985800D01*
X84784077Y-123389824D01*
X84914215Y-123443862D01*
X84786200Y-123496757D01*
X84382176Y-123900077D01*
X84163250Y-124427309D01*
X84162752Y-124998187D01*
X84380757Y-125525800D01*
X84784077Y-125929824D01*
X84950429Y-125998899D01*
X84786200Y-126066757D01*
X84382176Y-126470077D01*
X84163250Y-126997309D01*
X84162752Y-127568187D01*
X84380757Y-128095800D01*
X84784077Y-128499824D01*
X84878002Y-128538825D01*
X84786200Y-128576757D01*
X84382176Y-128980077D01*
X84163250Y-129507309D01*
X84162752Y-130078187D01*
X84380757Y-130605800D01*
X84784077Y-131009824D01*
X85311309Y-131228750D01*
X85882187Y-131229248D01*
X86409800Y-131011243D01*
X86813824Y-130607923D01*
X87032750Y-130080691D01*
X87033248Y-129509813D01*
X86815243Y-128982200D01*
X86411923Y-128578176D01*
X86317998Y-128539175D01*
X86409800Y-128501243D01*
X86813824Y-128097923D01*
X87032750Y-127570691D01*
X87033248Y-126999813D01*
X86815243Y-126472200D01*
X86411923Y-126068176D01*
X86245571Y-125999101D01*
X86409800Y-125931243D01*
X86813824Y-125527923D01*
X87032750Y-125000691D01*
X87033248Y-124429813D01*
X86815243Y-123902200D01*
X86411923Y-123498176D01*
X86281785Y-123444138D01*
X86409800Y-123391243D01*
X86813824Y-122987923D01*
X87032750Y-122460691D01*
X87032752Y-122458187D01*
X91782752Y-122458187D01*
X92000757Y-122985800D01*
X92404077Y-123389824D01*
X92534215Y-123443862D01*
X92406200Y-123496757D01*
X92002176Y-123900077D01*
X91783250Y-124427309D01*
X91782752Y-124998187D01*
X92000757Y-125525800D01*
X92404077Y-125929824D01*
X92570429Y-125998899D01*
X92406200Y-126066757D01*
X92002176Y-126470077D01*
X91783250Y-126997309D01*
X91782752Y-127568187D01*
X92000757Y-128095800D01*
X92404077Y-128499824D01*
X92498002Y-128538825D01*
X92406200Y-128576757D01*
X92002176Y-128980077D01*
X91783250Y-129507309D01*
X91782752Y-130078187D01*
X92000757Y-130605800D01*
X92404077Y-131009824D01*
X92931309Y-131228750D01*
X93502187Y-131229248D01*
X94029800Y-131011243D01*
X94433824Y-130607923D01*
X94652750Y-130080691D01*
X94653248Y-129509813D01*
X94435243Y-128982200D01*
X94031923Y-128578176D01*
X93937998Y-128539175D01*
X94029800Y-128501243D01*
X94433824Y-128097923D01*
X94652750Y-127570691D01*
X94653248Y-126999813D01*
X94435243Y-126472200D01*
X94031923Y-126068176D01*
X93865571Y-125999101D01*
X94029800Y-125931243D01*
X94433824Y-125527923D01*
X94652750Y-125000691D01*
X94653248Y-124429813D01*
X94435243Y-123902200D01*
X94031923Y-123498176D01*
X93901785Y-123444138D01*
X94029800Y-123391243D01*
X94433824Y-122987923D01*
X94652750Y-122460691D01*
X94652752Y-122458187D01*
X100672752Y-122458187D01*
X100890757Y-122985800D01*
X101294077Y-123389824D01*
X101424215Y-123443862D01*
X101296200Y-123496757D01*
X100892176Y-123900077D01*
X100673250Y-124427309D01*
X100672752Y-124998187D01*
X100890757Y-125525800D01*
X101294077Y-125929824D01*
X101460429Y-125998899D01*
X101296200Y-126066757D01*
X100892176Y-126470077D01*
X100673250Y-126997309D01*
X100672752Y-127568187D01*
X100890757Y-128095800D01*
X101294077Y-128499824D01*
X101388002Y-128538825D01*
X101296200Y-128576757D01*
X100892176Y-128980077D01*
X100673250Y-129507309D01*
X100672752Y-130078187D01*
X100890757Y-130605800D01*
X101294077Y-131009824D01*
X101821309Y-131228750D01*
X102392187Y-131229248D01*
X102919800Y-131011243D01*
X103323824Y-130607923D01*
X103542750Y-130080691D01*
X103543248Y-129509813D01*
X103325243Y-128982200D01*
X102921923Y-128578176D01*
X102827998Y-128539175D01*
X102919800Y-128501243D01*
X103323824Y-128097923D01*
X103542750Y-127570691D01*
X103543248Y-126999813D01*
X103325243Y-126472200D01*
X102921923Y-126068176D01*
X102755571Y-125999101D01*
X102919800Y-125931243D01*
X103323824Y-125527923D01*
X103542750Y-125000691D01*
X103543248Y-124429813D01*
X103325243Y-123902200D01*
X102921923Y-123498176D01*
X102791785Y-123444138D01*
X102919800Y-123391243D01*
X103323824Y-122987923D01*
X103542750Y-122460691D01*
X103542752Y-122458187D01*
X108292752Y-122458187D01*
X108510757Y-122985800D01*
X108914077Y-123389824D01*
X109044215Y-123443862D01*
X108916200Y-123496757D01*
X108512176Y-123900077D01*
X108293250Y-124427309D01*
X108292752Y-124998187D01*
X108510757Y-125525800D01*
X108914077Y-125929824D01*
X109080429Y-125998899D01*
X108916200Y-126066757D01*
X108512176Y-126470077D01*
X108293250Y-126997309D01*
X108292752Y-127568187D01*
X108510757Y-128095800D01*
X108914077Y-128499824D01*
X109008002Y-128538825D01*
X108916200Y-128576757D01*
X108512176Y-128980077D01*
X108293250Y-129507309D01*
X108292752Y-130078187D01*
X108510757Y-130605800D01*
X108914077Y-131009824D01*
X109441309Y-131228750D01*
X110012187Y-131229248D01*
X110539800Y-131011243D01*
X110943824Y-130607923D01*
X111162750Y-130080691D01*
X111163248Y-129509813D01*
X110945243Y-128982200D01*
X110541923Y-128578176D01*
X110447998Y-128539175D01*
X110539800Y-128501243D01*
X110943824Y-128097923D01*
X111162750Y-127570691D01*
X111163248Y-126999813D01*
X110945243Y-126472200D01*
X110541923Y-126068176D01*
X110375571Y-125999101D01*
X110539800Y-125931243D01*
X110943824Y-125527923D01*
X111162750Y-125000691D01*
X111163248Y-124429813D01*
X110945243Y-123902200D01*
X110541923Y-123498176D01*
X110411785Y-123444138D01*
X110539800Y-123391243D01*
X110943824Y-122987923D01*
X111157145Y-122474187D01*
X117064752Y-122474187D01*
X117282757Y-123001800D01*
X117686077Y-123405824D01*
X117816215Y-123459862D01*
X117688200Y-123512757D01*
X117284176Y-123916077D01*
X117065250Y-124443309D01*
X117064752Y-125014187D01*
X117282757Y-125541800D01*
X117686077Y-125945824D01*
X117852429Y-126014899D01*
X117688200Y-126082757D01*
X117284176Y-126486077D01*
X117065250Y-127013309D01*
X117064752Y-127584187D01*
X117282757Y-128111800D01*
X117686077Y-128515824D01*
X117780002Y-128554825D01*
X117688200Y-128592757D01*
X117284176Y-128996077D01*
X117065250Y-129523309D01*
X117064752Y-130094187D01*
X117282757Y-130621800D01*
X117686077Y-131025824D01*
X118213309Y-131244750D01*
X118784187Y-131245248D01*
X119311800Y-131027243D01*
X119715824Y-130623923D01*
X119934750Y-130096691D01*
X119935248Y-129525813D01*
X119717243Y-128998200D01*
X119313923Y-128594176D01*
X119219998Y-128555175D01*
X119311800Y-128517243D01*
X119715824Y-128113923D01*
X119934750Y-127586691D01*
X119935248Y-127015813D01*
X119717243Y-126488200D01*
X119313923Y-126084176D01*
X119147571Y-126015101D01*
X119311800Y-125947243D01*
X119715824Y-125543923D01*
X119934750Y-125016691D01*
X119935248Y-124445813D01*
X119717243Y-123918200D01*
X119313923Y-123514176D01*
X119183785Y-123460138D01*
X119311800Y-123407243D01*
X119715824Y-123003923D01*
X119934750Y-122476691D01*
X119935248Y-121905813D01*
X119717243Y-121378200D01*
X119313923Y-120974176D01*
X118786691Y-120755250D01*
X118215813Y-120754752D01*
X117688200Y-120972757D01*
X117284176Y-121376077D01*
X117065250Y-121903309D01*
X117064752Y-122474187D01*
X111157145Y-122474187D01*
X111162750Y-122460691D01*
X111163248Y-121889813D01*
X110945243Y-121362200D01*
X110541923Y-120958176D01*
X110014691Y-120739250D01*
X109443813Y-120738752D01*
X108916200Y-120956757D01*
X108512176Y-121360077D01*
X108293250Y-121887309D01*
X108292752Y-122458187D01*
X103542752Y-122458187D01*
X103543248Y-121889813D01*
X103325243Y-121362200D01*
X102921923Y-120958176D01*
X102394691Y-120739250D01*
X101823813Y-120738752D01*
X101296200Y-120956757D01*
X100892176Y-121360077D01*
X100673250Y-121887309D01*
X100672752Y-122458187D01*
X94652752Y-122458187D01*
X94653248Y-121889813D01*
X94435243Y-121362200D01*
X94031923Y-120958176D01*
X93504691Y-120739250D01*
X92933813Y-120738752D01*
X92406200Y-120956757D01*
X92002176Y-121360077D01*
X91783250Y-121887309D01*
X91782752Y-122458187D01*
X87032752Y-122458187D01*
X87033248Y-121889813D01*
X86815243Y-121362200D01*
X86411923Y-120958176D01*
X85884691Y-120739250D01*
X85313813Y-120738752D01*
X84786200Y-120956757D01*
X84382176Y-121360077D01*
X84163250Y-121887309D01*
X84162752Y-122458187D01*
X78232000Y-122458187D01*
X78232000Y-105498815D01*
X80668630Y-105498815D01*
X80992980Y-106283800D01*
X81219000Y-106510215D01*
X81219000Y-108881383D01*
X81075091Y-109025041D01*
X80749372Y-109809459D01*
X80748630Y-110658815D01*
X81072980Y-111443800D01*
X81673041Y-112044909D01*
X82457459Y-112370628D01*
X83306815Y-112371370D01*
X84091800Y-112047020D01*
X84692909Y-111446959D01*
X85018628Y-110662541D01*
X85018631Y-110658815D01*
X90748630Y-110658815D01*
X91072980Y-111443800D01*
X91299000Y-111670215D01*
X91299000Y-114728000D01*
X91419651Y-115334553D01*
X91763236Y-115848764D01*
X91843236Y-115928764D01*
X92357447Y-116272349D01*
X92964000Y-116393000D01*
X93570553Y-116272349D01*
X94084764Y-115928764D01*
X94428349Y-115414553D01*
X94549000Y-114808000D01*
X94469000Y-114405813D01*
X94469000Y-111821000D01*
X96581622Y-111821000D01*
X96701352Y-111870716D01*
X97351795Y-111871284D01*
X97952943Y-111622894D01*
X98019574Y-111556379D01*
X98103910Y-111687441D01*
X98316110Y-111832431D01*
X98568000Y-111883440D01*
X100568000Y-111883440D01*
X100803317Y-111839162D01*
X101019441Y-111700090D01*
X101164431Y-111487890D01*
X101215440Y-111236000D01*
X101215440Y-111071000D01*
X101845370Y-111071000D01*
X101845370Y-111453930D01*
X101889648Y-111689247D01*
X102028720Y-111905371D01*
X102240920Y-112050361D01*
X102492810Y-112101370D01*
X104090470Y-112101370D01*
X104325787Y-112057092D01*
X104541911Y-111918020D01*
X104686901Y-111705820D01*
X104707471Y-111604241D01*
X104794203Y-111813629D01*
X104972832Y-111992257D01*
X105206221Y-112088930D01*
X105845610Y-112088930D01*
X106004360Y-111930180D01*
X106004360Y-110680500D01*
X106258360Y-110680500D01*
X106258360Y-111930180D01*
X106417110Y-112088930D01*
X107056499Y-112088930D01*
X107289888Y-111992257D01*
X107468517Y-111813629D01*
X107565190Y-111580240D01*
X107565190Y-110839250D01*
X107406440Y-110680500D01*
X106258360Y-110680500D01*
X106004360Y-110680500D01*
X105984360Y-110680500D01*
X105984360Y-110426500D01*
X106004360Y-110426500D01*
X106004360Y-109176820D01*
X106258360Y-109176820D01*
X106258360Y-110426500D01*
X107406440Y-110426500D01*
X107565190Y-110267750D01*
X107565190Y-109526760D01*
X107468517Y-109293371D01*
X107289888Y-109114743D01*
X107056499Y-109018070D01*
X106417110Y-109018070D01*
X106258360Y-109176820D01*
X106004360Y-109176820D01*
X105845610Y-109018070D01*
X105206221Y-109018070D01*
X104972832Y-109114743D01*
X104794203Y-109293371D01*
X104708954Y-109499181D01*
X104693632Y-109417753D01*
X104554560Y-109201629D01*
X104342360Y-109056639D01*
X104090470Y-109005630D01*
X102492810Y-109005630D01*
X102257493Y-109049908D01*
X102041369Y-109188980D01*
X101896502Y-109401000D01*
X101215440Y-109401000D01*
X101215440Y-109236000D01*
X101171162Y-109000683D01*
X101032090Y-108784559D01*
X100819890Y-108639569D01*
X100568000Y-108588560D01*
X98568000Y-108588560D01*
X98332683Y-108632838D01*
X98116559Y-108771910D01*
X98019090Y-108914561D01*
X97955363Y-108850722D01*
X97354648Y-108601284D01*
X96704205Y-108600716D01*
X96582509Y-108651000D01*
X94469000Y-108651000D01*
X94469000Y-102797610D01*
X99048570Y-102797610D01*
X99048570Y-103436999D01*
X99145243Y-103670388D01*
X99323871Y-103849017D01*
X99557260Y-103945690D01*
X100298250Y-103945690D01*
X100457000Y-103786940D01*
X100457000Y-102638860D01*
X100711000Y-102638860D01*
X100711000Y-103786940D01*
X100869750Y-103945690D01*
X101610740Y-103945690D01*
X101844129Y-103849017D01*
X102022757Y-103670388D01*
X102119430Y-103436999D01*
X102119430Y-102797610D01*
X101960680Y-102638860D01*
X100711000Y-102638860D01*
X100457000Y-102638860D01*
X99207320Y-102638860D01*
X99048570Y-102797610D01*
X94469000Y-102797610D01*
X94469000Y-101828528D01*
X98459529Y-97838000D01*
X98872000Y-97838000D01*
X98872000Y-99545140D01*
X98992651Y-100151693D01*
X99036130Y-100216764D01*
X99036130Y-100470970D01*
X99080408Y-100706287D01*
X99219480Y-100922411D01*
X99431680Y-101067401D01*
X99533259Y-101087971D01*
X99323871Y-101174703D01*
X99145243Y-101353332D01*
X99048570Y-101586721D01*
X99048570Y-102226110D01*
X99207320Y-102384860D01*
X100457000Y-102384860D01*
X100457000Y-102364860D01*
X100711000Y-102364860D01*
X100711000Y-102384860D01*
X101960680Y-102384860D01*
X102119430Y-102226110D01*
X102119430Y-101586721D01*
X102022757Y-101353332D01*
X101844129Y-101174703D01*
X101638319Y-101089454D01*
X101719747Y-101074132D01*
X101935871Y-100935060D01*
X102080861Y-100722860D01*
X102131870Y-100470970D01*
X102131870Y-99858805D01*
X102169000Y-99672140D01*
X102131870Y-99485475D01*
X102131870Y-98873310D01*
X102087592Y-98637993D01*
X102042000Y-98567141D01*
X102042000Y-96253000D01*
X101921349Y-95646447D01*
X101577764Y-95132236D01*
X101228023Y-94898546D01*
X101248912Y-94824517D01*
X101094005Y-94669610D01*
X105144570Y-94669610D01*
X105144570Y-95308999D01*
X105241243Y-95542388D01*
X105419871Y-95721017D01*
X105653260Y-95817690D01*
X106394250Y-95817690D01*
X106553000Y-95658940D01*
X106553000Y-94510860D01*
X106807000Y-94510860D01*
X106807000Y-95658940D01*
X106965750Y-95817690D01*
X107706740Y-95817690D01*
X107940129Y-95721017D01*
X108118757Y-95542388D01*
X108215430Y-95308999D01*
X108215430Y-94669610D01*
X110732570Y-94669610D01*
X110732570Y-95308999D01*
X110829243Y-95542388D01*
X111007871Y-95721017D01*
X111241260Y-95817690D01*
X111982250Y-95817690D01*
X112141000Y-95658940D01*
X112141000Y-94510860D01*
X112395000Y-94510860D01*
X112395000Y-95658940D01*
X112553750Y-95817690D01*
X113294740Y-95817690D01*
X113528129Y-95721017D01*
X113706757Y-95542388D01*
X113803430Y-95308999D01*
X113803430Y-94669610D01*
X113644680Y-94510860D01*
X112395000Y-94510860D01*
X112141000Y-94510860D01*
X110891320Y-94510860D01*
X110732570Y-94669610D01*
X108215430Y-94669610D01*
X108056680Y-94510860D01*
X106807000Y-94510860D01*
X106553000Y-94510860D01*
X105303320Y-94510860D01*
X105144570Y-94669610D01*
X101094005Y-94669610D01*
X100457000Y-94032605D01*
X100442858Y-94046748D01*
X100263253Y-93867143D01*
X100277395Y-93853000D01*
X100636605Y-93853000D01*
X101428517Y-94644912D01*
X101669460Y-94576923D01*
X101854201Y-94057829D01*
X101826230Y-93507552D01*
X101669460Y-93129077D01*
X101428517Y-93061088D01*
X100636605Y-93853000D01*
X100277395Y-93853000D01*
X99485483Y-93061088D01*
X99244540Y-93129077D01*
X99059799Y-93648171D01*
X99087770Y-94198448D01*
X99244540Y-94576923D01*
X99485481Y-94644911D01*
X99462392Y-94668000D01*
X97803000Y-94668000D01*
X97196447Y-94788651D01*
X96682236Y-95132235D01*
X91763236Y-100051236D01*
X91419651Y-100565447D01*
X91299000Y-101172000D01*
X91299000Y-108801522D01*
X91075091Y-109025041D01*
X90749372Y-109809459D01*
X90748630Y-110658815D01*
X85018631Y-110658815D01*
X85019370Y-109813185D01*
X84695020Y-109028200D01*
X84389000Y-108721646D01*
X84389000Y-106510478D01*
X84612909Y-106286959D01*
X84938628Y-105502541D01*
X84939370Y-104653185D01*
X84615020Y-103868200D01*
X84014959Y-103267091D01*
X83230541Y-102941372D01*
X82381185Y-102940630D01*
X81596200Y-103264980D01*
X80995091Y-103865041D01*
X80669372Y-104649459D01*
X80668630Y-105498815D01*
X78232000Y-105498815D01*
X78232000Y-96589970D01*
X81469635Y-96589970D01*
X81629418Y-96908739D01*
X82420187Y-97218723D01*
X83269387Y-97202497D01*
X83978582Y-96908739D01*
X84138365Y-96589970D01*
X82804000Y-95255605D01*
X81469635Y-96589970D01*
X78232000Y-96589970D01*
X78232000Y-94692187D01*
X80661277Y-94692187D01*
X80677503Y-95541387D01*
X80971261Y-96250582D01*
X81290030Y-96410365D01*
X82624395Y-95076000D01*
X82983605Y-95076000D01*
X84317970Y-96410365D01*
X84636739Y-96250582D01*
X84946723Y-95459813D01*
X84930497Y-94610613D01*
X84636739Y-93901418D01*
X84317970Y-93741635D01*
X82983605Y-95076000D01*
X82624395Y-95076000D01*
X81290030Y-93741635D01*
X80971261Y-93901418D01*
X80661277Y-94692187D01*
X78232000Y-94692187D01*
X78232000Y-93562030D01*
X81469635Y-93562030D01*
X82804000Y-94896395D01*
X84138365Y-93562030D01*
X83978582Y-93243261D01*
X83187813Y-92933277D01*
X82338613Y-92949503D01*
X81629418Y-93243261D01*
X81469635Y-93562030D01*
X78232000Y-93562030D01*
X78232000Y-89693750D01*
X85030310Y-89693750D01*
X85030310Y-90434740D01*
X85126983Y-90668129D01*
X85305612Y-90846757D01*
X85539001Y-90943430D01*
X86178390Y-90943430D01*
X86337140Y-90784680D01*
X86337140Y-89535000D01*
X85189060Y-89535000D01*
X85030310Y-89693750D01*
X78232000Y-89693750D01*
X78232000Y-88381260D01*
X85030310Y-88381260D01*
X85030310Y-89122250D01*
X85189060Y-89281000D01*
X86337140Y-89281000D01*
X86337140Y-88031320D01*
X86591140Y-88031320D01*
X86591140Y-89281000D01*
X86611140Y-89281000D01*
X86611140Y-89535000D01*
X86591140Y-89535000D01*
X86591140Y-90784680D01*
X86749890Y-90943430D01*
X87389279Y-90943430D01*
X87622668Y-90846757D01*
X87801297Y-90668129D01*
X87886546Y-90462319D01*
X87901868Y-90543747D01*
X88040940Y-90759871D01*
X88253140Y-90904861D01*
X88505030Y-90955870D01*
X90102690Y-90955870D01*
X90338007Y-90911592D01*
X90554131Y-90772520D01*
X90699121Y-90560320D01*
X90750130Y-90308430D01*
X90750130Y-90243000D01*
X91316560Y-90243000D01*
X91316560Y-90408000D01*
X91360838Y-90643317D01*
X91499910Y-90859441D01*
X91712110Y-91004431D01*
X91964000Y-91055440D01*
X93964000Y-91055440D01*
X94199317Y-91011162D01*
X94415441Y-90872090D01*
X94512910Y-90729439D01*
X94576637Y-90793278D01*
X95177352Y-91042716D01*
X95827795Y-91043284D01*
X96428943Y-90794894D01*
X96889278Y-90335363D01*
X96927630Y-90243000D01*
X98066132Y-90243000D01*
X99072177Y-91249045D01*
X99071760Y-91727285D01*
X99282169Y-92236515D01*
X99671436Y-92626461D01*
X99730168Y-92650849D01*
X99665088Y-92881483D01*
X100457000Y-93673395D01*
X101248912Y-92881483D01*
X101183934Y-92651210D01*
X101240515Y-92627831D01*
X101280415Y-92588000D01*
X105182658Y-92588000D01*
X105315480Y-92794411D01*
X105527680Y-92939401D01*
X105629259Y-92959971D01*
X105419871Y-93046703D01*
X105241243Y-93225332D01*
X105144570Y-93458721D01*
X105144570Y-94098110D01*
X105303320Y-94256860D01*
X106553000Y-94256860D01*
X106553000Y-94236860D01*
X106807000Y-94236860D01*
X106807000Y-94256860D01*
X108056680Y-94256860D01*
X108215430Y-94098110D01*
X108215430Y-93458721D01*
X108118757Y-93225332D01*
X107940129Y-93046703D01*
X107734319Y-92961454D01*
X107815747Y-92946132D01*
X108031871Y-92807060D01*
X108119275Y-92679140D01*
X110829305Y-92679140D01*
X110903480Y-92794411D01*
X111115680Y-92939401D01*
X111217259Y-92959971D01*
X111007871Y-93046703D01*
X110829243Y-93225332D01*
X110732570Y-93458721D01*
X110732570Y-94098110D01*
X110891320Y-94256860D01*
X112141000Y-94256860D01*
X112141000Y-94236860D01*
X112395000Y-94236860D01*
X112395000Y-94256860D01*
X113644680Y-94256860D01*
X113803430Y-94098110D01*
X113803430Y-93458721D01*
X113706757Y-93225332D01*
X113528129Y-93046703D01*
X113322319Y-92961454D01*
X113403747Y-92946132D01*
X113619871Y-92807060D01*
X113764861Y-92594860D01*
X113815870Y-92342970D01*
X113815870Y-91601402D01*
X114112272Y-91305000D01*
X117906376Y-91305000D01*
X118104151Y-91437149D01*
X117671500Y-91785104D01*
X117401633Y-92278181D01*
X117384096Y-92360961D01*
X117506085Y-92583000D01*
X118999000Y-92583000D01*
X118999000Y-92563000D01*
X119253000Y-92563000D01*
X119253000Y-92583000D01*
X120745915Y-92583000D01*
X120867904Y-92360961D01*
X120850367Y-92278181D01*
X120598186Y-91817418D01*
X120717201Y-91866838D01*
X121085000Y-91867158D01*
X121085000Y-97552132D01*
X120852385Y-97319517D01*
X120836737Y-97240849D01*
X120525668Y-96775302D01*
X120143582Y-96520000D01*
X120525668Y-96264698D01*
X120836737Y-95799151D01*
X120945970Y-95250000D01*
X120836737Y-94700849D01*
X120525668Y-94235302D01*
X120147849Y-93982851D01*
X120580500Y-93634896D01*
X120850367Y-93141819D01*
X120867904Y-93059039D01*
X120745915Y-92837000D01*
X119253000Y-92837000D01*
X119253000Y-92857000D01*
X118999000Y-92857000D01*
X118999000Y-92837000D01*
X117506085Y-92837000D01*
X117384096Y-93059039D01*
X117401633Y-93141819D01*
X117671500Y-93634896D01*
X118104151Y-93982851D01*
X117726332Y-94235302D01*
X117415263Y-94700849D01*
X117306030Y-95250000D01*
X117415263Y-95799151D01*
X117726332Y-96264698D01*
X118108418Y-96520000D01*
X117726332Y-96775302D01*
X117415263Y-97240849D01*
X117306030Y-97790000D01*
X117415263Y-98339151D01*
X117726332Y-98804698D01*
X118108418Y-99060000D01*
X117726332Y-99315302D01*
X117415263Y-99780849D01*
X117306030Y-100330000D01*
X117415263Y-100879151D01*
X117726332Y-101344698D01*
X118108418Y-101600000D01*
X117726332Y-101855302D01*
X117415263Y-102320849D01*
X117306030Y-102870000D01*
X117415263Y-103419151D01*
X117726332Y-103884698D01*
X118108418Y-104140000D01*
X117726332Y-104395302D01*
X117415263Y-104860849D01*
X117306030Y-105410000D01*
X117415263Y-105959151D01*
X117726332Y-106424698D01*
X118108418Y-106680000D01*
X117726332Y-106935302D01*
X117415263Y-107400849D01*
X117306030Y-107950000D01*
X117415263Y-108499151D01*
X117726332Y-108964698D01*
X118191879Y-109275767D01*
X118291000Y-109295483D01*
X118291000Y-110998000D01*
X118295006Y-111018138D01*
X117167000Y-109890132D01*
X117167000Y-93472000D01*
X117103439Y-93152459D01*
X116977515Y-92964000D01*
X116922434Y-92881565D01*
X116716534Y-92675666D01*
X116617117Y-92435057D01*
X116354327Y-92171808D01*
X116010799Y-92029162D01*
X115638833Y-92028838D01*
X115295057Y-92170883D01*
X115031808Y-92433673D01*
X114889162Y-92777201D01*
X114888838Y-93149167D01*
X115030883Y-93492943D01*
X115293673Y-93756192D01*
X115497000Y-93840621D01*
X115497000Y-110236000D01*
X115560561Y-110555541D01*
X115698882Y-110762553D01*
X115741566Y-110826434D01*
X117773566Y-112858434D01*
X118044459Y-113039439D01*
X118364000Y-113103000D01*
X123606132Y-113103000D01*
X142157566Y-131654434D01*
X142428459Y-131835439D01*
X142748000Y-131899000D01*
X156290766Y-131899000D01*
X156531201Y-131998838D01*
X156903167Y-131999162D01*
X157246943Y-131857117D01*
X157510192Y-131594327D01*
X157652838Y-131250799D01*
X157653162Y-130878833D01*
X157511117Y-130535057D01*
X157248327Y-130271808D01*
X156904799Y-130129162D01*
X156532833Y-130128838D01*
X156290422Y-130229000D01*
X143093868Y-130229000D01*
X132567862Y-119702994D01*
X132588000Y-119707000D01*
X132588242Y-119706952D01*
X132588484Y-119707000D01*
X175950962Y-119681848D01*
X176190801Y-119781438D01*
X176562767Y-119781762D01*
X176906543Y-119639717D01*
X177169792Y-119376927D01*
X177312438Y-119033399D01*
X177312736Y-118691000D01*
X178949108Y-118691000D01*
X178990954Y-118732919D01*
X179371223Y-118890820D01*
X179782971Y-118891179D01*
X180163515Y-118733942D01*
X180454919Y-118443046D01*
X180612820Y-118062777D01*
X180613179Y-117651029D01*
X180455942Y-117270485D01*
X180165046Y-116979081D01*
X179784777Y-116821180D01*
X179373029Y-116820821D01*
X178992485Y-116978058D01*
X178949468Y-117021000D01*
X133949868Y-117021000D01*
X126302158Y-109373290D01*
X126361030Y-109385000D01*
X127130970Y-109385000D01*
X127680121Y-109275767D01*
X128145668Y-108964698D01*
X128265739Y-108785000D01*
X128778000Y-108785000D01*
X129097541Y-108721439D01*
X129368434Y-108540434D01*
X132876333Y-105032535D01*
X133116943Y-104933117D01*
X133380192Y-104670327D01*
X133522838Y-104326799D01*
X133523162Y-103954833D01*
X133381117Y-103611057D01*
X133118327Y-103347808D01*
X132774799Y-103205162D01*
X132402833Y-103204838D01*
X132059057Y-103346883D01*
X131795808Y-103609673D01*
X131695222Y-103851910D01*
X128432132Y-107115000D01*
X128265739Y-107115000D01*
X128145668Y-106935302D01*
X127763582Y-106680000D01*
X128145668Y-106424698D01*
X128456737Y-105959151D01*
X128565970Y-105410000D01*
X128456737Y-104860849D01*
X128145668Y-104395302D01*
X127763582Y-104140000D01*
X128145668Y-103884698D01*
X128456737Y-103419151D01*
X128565970Y-102870000D01*
X128456737Y-102320849D01*
X128145668Y-101855302D01*
X127763582Y-101600000D01*
X128145668Y-101344698D01*
X128223518Y-101228187D01*
X199712752Y-101228187D01*
X199930757Y-101755800D01*
X200334077Y-102159824D01*
X200861309Y-102378750D01*
X201432187Y-102379248D01*
X201959800Y-102161243D01*
X202363824Y-101757923D01*
X202582750Y-101230691D01*
X202583248Y-100659813D01*
X202365243Y-100132200D01*
X201961923Y-99728176D01*
X201434691Y-99509250D01*
X200863813Y-99508752D01*
X200336200Y-99726757D01*
X199932176Y-100130077D01*
X199713250Y-100657309D01*
X199712752Y-101228187D01*
X128223518Y-101228187D01*
X128456737Y-100879151D01*
X128565970Y-100330000D01*
X128456737Y-99780849D01*
X128145668Y-99315302D01*
X127763582Y-99060000D01*
X128145668Y-98804698D01*
X128456737Y-98339151D01*
X128565970Y-97790000D01*
X128456737Y-97240849D01*
X128145668Y-96775302D01*
X127763582Y-96520000D01*
X128145668Y-96264698D01*
X128456737Y-95799151D01*
X128478614Y-95689167D01*
X183468838Y-95689167D01*
X183610883Y-96032943D01*
X183873673Y-96296192D01*
X184217201Y-96438838D01*
X184589167Y-96439162D01*
X184831578Y-96339000D01*
X188976000Y-96339000D01*
X189295541Y-96275439D01*
X189366258Y-96228187D01*
X199712752Y-96228187D01*
X199930757Y-96755800D01*
X200334077Y-97159824D01*
X200861309Y-97378750D01*
X201432187Y-97379248D01*
X201959800Y-97161243D01*
X202363824Y-96757923D01*
X202582750Y-96230691D01*
X202583248Y-95659813D01*
X202365243Y-95132200D01*
X201961923Y-94728176D01*
X201434691Y-94509250D01*
X200863813Y-94508752D01*
X200336200Y-94726757D01*
X199932176Y-95130077D01*
X199713250Y-95657309D01*
X199712752Y-96228187D01*
X189366258Y-96228187D01*
X189566434Y-96094434D01*
X195550434Y-90110434D01*
X195595492Y-90043000D01*
X195731439Y-89839541D01*
X195795000Y-89520000D01*
X195795000Y-88651857D01*
X195828371Y-88638068D01*
X196260551Y-88206643D01*
X196494733Y-87642670D01*
X196495265Y-87032009D01*
X196262068Y-86467629D01*
X195830643Y-86035449D01*
X195266670Y-85801267D01*
X194656009Y-85800735D01*
X194091629Y-86033932D01*
X193659449Y-86465357D01*
X193425267Y-87029330D01*
X193424735Y-87639991D01*
X193657932Y-88204371D01*
X194089357Y-88636551D01*
X194125000Y-88651351D01*
X194125000Y-89174132D01*
X188630132Y-94669000D01*
X184831234Y-94669000D01*
X184590799Y-94569162D01*
X184218833Y-94568838D01*
X183875057Y-94710883D01*
X183611808Y-94973673D01*
X183469162Y-95317201D01*
X183468838Y-95689167D01*
X128478614Y-95689167D01*
X128565970Y-95250000D01*
X128456737Y-94700849D01*
X128145668Y-94235302D01*
X127763582Y-93980000D01*
X128145668Y-93724698D01*
X128456737Y-93259151D01*
X128565970Y-92710000D01*
X128456737Y-92160849D01*
X128145668Y-91695302D01*
X127767849Y-91442851D01*
X128200500Y-91094896D01*
X128470367Y-90601819D01*
X128487904Y-90519039D01*
X128365915Y-90297000D01*
X126873000Y-90297000D01*
X126873000Y-90317000D01*
X126619000Y-90317000D01*
X126619000Y-90297000D01*
X125126085Y-90297000D01*
X125004096Y-90519039D01*
X125021633Y-90601819D01*
X125291500Y-91094896D01*
X125724151Y-91442851D01*
X125346332Y-91695302D01*
X125226261Y-91875000D01*
X125222000Y-91875000D01*
X124902459Y-91938561D01*
X124790470Y-92013390D01*
X124803621Y-74930000D01*
X124926030Y-74930000D01*
X125035263Y-75479151D01*
X125346332Y-75944698D01*
X125728418Y-76200000D01*
X125346332Y-76455302D01*
X125035263Y-76920849D01*
X124926030Y-77470000D01*
X125035263Y-78019151D01*
X125346332Y-78484698D01*
X125728418Y-78740000D01*
X125346332Y-78995302D01*
X125035263Y-79460849D01*
X124926030Y-80010000D01*
X125035263Y-80559151D01*
X125346332Y-81024698D01*
X125728418Y-81280000D01*
X125346332Y-81535302D01*
X125035263Y-82000849D01*
X124926030Y-82550000D01*
X125035263Y-83099151D01*
X125346332Y-83564698D01*
X125728418Y-83820000D01*
X125346332Y-84075302D01*
X125035263Y-84540849D01*
X124926030Y-85090000D01*
X125035263Y-85639151D01*
X125346332Y-86104698D01*
X125728418Y-86360000D01*
X125346332Y-86615302D01*
X125035263Y-87080849D01*
X124926030Y-87630000D01*
X125035263Y-88179151D01*
X125346332Y-88644698D01*
X125724151Y-88897149D01*
X125291500Y-89245104D01*
X125021633Y-89738181D01*
X125004096Y-89820961D01*
X125126085Y-90043000D01*
X126619000Y-90043000D01*
X126619000Y-90023000D01*
X126873000Y-90023000D01*
X126873000Y-90043000D01*
X128365915Y-90043000D01*
X128487904Y-89820961D01*
X128470367Y-89738181D01*
X128200500Y-89245104D01*
X127934045Y-89030810D01*
X175604170Y-89030810D01*
X175604170Y-89670199D01*
X175700843Y-89903588D01*
X175879471Y-90082217D01*
X176112860Y-90178890D01*
X176853850Y-90178890D01*
X177012600Y-90020140D01*
X177012600Y-88872060D01*
X177266600Y-88872060D01*
X177266600Y-90020140D01*
X177425350Y-90178890D01*
X178166340Y-90178890D01*
X178399729Y-90082217D01*
X178578357Y-89903588D01*
X178675030Y-89670199D01*
X178675030Y-89030810D01*
X178516280Y-88872060D01*
X177266600Y-88872060D01*
X177012600Y-88872060D01*
X175762920Y-88872060D01*
X175604170Y-89030810D01*
X127934045Y-89030810D01*
X127767849Y-88897149D01*
X128145668Y-88644698D01*
X128456737Y-88179151D01*
X128458358Y-88171000D01*
X175604170Y-88171000D01*
X175604170Y-88459310D01*
X175762920Y-88618060D01*
X177012600Y-88618060D01*
X177012600Y-88598060D01*
X177266600Y-88598060D01*
X177266600Y-88618060D01*
X178516280Y-88618060D01*
X178675030Y-88459310D01*
X178675030Y-88171000D01*
X179144143Y-88171000D01*
X179157932Y-88204371D01*
X179589357Y-88636551D01*
X180153330Y-88870733D01*
X180763991Y-88871265D01*
X181328371Y-88638068D01*
X181760551Y-88206643D01*
X181852169Y-87986000D01*
X186062560Y-87986000D01*
X186062560Y-90486000D01*
X186106838Y-90721317D01*
X186245910Y-90937441D01*
X186458110Y-91082431D01*
X186710000Y-91133440D01*
X189210000Y-91133440D01*
X189445317Y-91089162D01*
X189661441Y-90950090D01*
X189806431Y-90737890D01*
X189857440Y-90486000D01*
X189857440Y-87986000D01*
X189813162Y-87750683D01*
X189674090Y-87534559D01*
X189461890Y-87389569D01*
X189210000Y-87338560D01*
X186710000Y-87338560D01*
X186474683Y-87382838D01*
X186258559Y-87521910D01*
X186113569Y-87734110D01*
X186062560Y-87986000D01*
X181852169Y-87986000D01*
X181994733Y-87642670D01*
X181995265Y-87032009D01*
X181762068Y-86467629D01*
X181380818Y-86085712D01*
X181760551Y-85706643D01*
X181994733Y-85142670D01*
X181995265Y-84532009D01*
X181762068Y-83967629D01*
X181330643Y-83535449D01*
X181263689Y-83507647D01*
X181643629Y-83128370D01*
X181846421Y-82639991D01*
X193424735Y-82639991D01*
X193657932Y-83204371D01*
X194089357Y-83636551D01*
X194653330Y-83870733D01*
X195263991Y-83871265D01*
X195828371Y-83638068D01*
X196260551Y-83206643D01*
X196275351Y-83171000D01*
X196606058Y-83171000D01*
X196616408Y-83226007D01*
X196755480Y-83442131D01*
X196967680Y-83587121D01*
X197219570Y-83638130D01*
X199020430Y-83638130D01*
X199255747Y-83593852D01*
X199471871Y-83454780D01*
X199616861Y-83242580D01*
X199667870Y-82990690D01*
X199667870Y-81393030D01*
X199623592Y-81157713D01*
X199484520Y-80941589D01*
X199272320Y-80796599D01*
X199170741Y-80776029D01*
X199380129Y-80689297D01*
X199558757Y-80510668D01*
X199655430Y-80277279D01*
X199655430Y-79637890D01*
X199496680Y-79479140D01*
X198247000Y-79479140D01*
X198247000Y-79499140D01*
X197993000Y-79499140D01*
X197993000Y-79479140D01*
X196743320Y-79479140D01*
X196584570Y-79637890D01*
X196584570Y-80277279D01*
X196681243Y-80510668D01*
X196859871Y-80689297D01*
X197065681Y-80774546D01*
X196984253Y-80789868D01*
X196768129Y-80928940D01*
X196623139Y-81141140D01*
X196572130Y-81393030D01*
X196572130Y-81501000D01*
X196275857Y-81501000D01*
X196262068Y-81467629D01*
X195830643Y-81035449D01*
X195266670Y-80801267D01*
X194656009Y-80800735D01*
X194091629Y-81033932D01*
X193659449Y-81465357D01*
X193425267Y-82029330D01*
X193424735Y-82639991D01*
X181846421Y-82639991D01*
X181856757Y-82615100D01*
X181857242Y-82059339D01*
X181645010Y-81545697D01*
X181252370Y-81152371D01*
X180739100Y-80939243D01*
X180183339Y-80938758D01*
X179669697Y-81150990D01*
X179319075Y-81501000D01*
X176998000Y-81501000D01*
X176678459Y-81564561D01*
X176623287Y-81601426D01*
X176407566Y-81745566D01*
X172882132Y-85271000D01*
X131409868Y-85271000D01*
X130638434Y-84499566D01*
X130577827Y-84459070D01*
X130367541Y-84318561D01*
X130048000Y-84255000D01*
X128265739Y-84255000D01*
X128145668Y-84075302D01*
X127763582Y-83820000D01*
X128145668Y-83564698D01*
X128456737Y-83099151D01*
X128565970Y-82550000D01*
X128459936Y-82016932D01*
X130027701Y-80449167D01*
X137748838Y-80449167D01*
X137890883Y-80792943D01*
X138153673Y-81056192D01*
X138497201Y-81198838D01*
X138869167Y-81199162D01*
X139111578Y-81099000D01*
X160020000Y-81099000D01*
X160339541Y-81035439D01*
X160610434Y-80854434D01*
X163130868Y-78334000D01*
X164726560Y-78334000D01*
X164726560Y-80834000D01*
X164770838Y-81069317D01*
X164909910Y-81285441D01*
X165122110Y-81430431D01*
X165374000Y-81481440D01*
X167874000Y-81481440D01*
X168109317Y-81437162D01*
X168325441Y-81298090D01*
X168470431Y-81085890D01*
X168521440Y-80834000D01*
X168521440Y-78334000D01*
X168477162Y-78098683D01*
X168338090Y-77882559D01*
X168125890Y-77737569D01*
X167874000Y-77686560D01*
X165374000Y-77686560D01*
X165138683Y-77730838D01*
X164922559Y-77869910D01*
X164777569Y-78082110D01*
X164726560Y-78334000D01*
X163130868Y-78334000D01*
X164429868Y-77035000D01*
X169834132Y-77035000D01*
X171073566Y-78274434D01*
X171344459Y-78455439D01*
X171664000Y-78519000D01*
X172308143Y-78519000D01*
X172321932Y-78552371D01*
X172753357Y-78984551D01*
X173317330Y-79218733D01*
X173927991Y-79219265D01*
X174008498Y-79186000D01*
X186062560Y-79186000D01*
X186062560Y-81686000D01*
X186106838Y-81921317D01*
X186245910Y-82137441D01*
X186458110Y-82282431D01*
X186710000Y-82333440D01*
X189210000Y-82333440D01*
X189445317Y-82289162D01*
X189661441Y-82150090D01*
X189806431Y-81937890D01*
X189857440Y-81686000D01*
X189857440Y-79186000D01*
X189813162Y-78950683D01*
X189674090Y-78734559D01*
X189461890Y-78589569D01*
X189210000Y-78538560D01*
X186710000Y-78538560D01*
X186474683Y-78582838D01*
X186258559Y-78721910D01*
X186113569Y-78934110D01*
X186062560Y-79186000D01*
X174008498Y-79186000D01*
X174492371Y-78986068D01*
X174924551Y-78554643D01*
X174977552Y-78427001D01*
X196584570Y-78427001D01*
X196584570Y-79066390D01*
X196743320Y-79225140D01*
X197993000Y-79225140D01*
X197993000Y-78077060D01*
X198247000Y-78077060D01*
X198247000Y-79225140D01*
X199496680Y-79225140D01*
X199655430Y-79066390D01*
X199655430Y-78427001D01*
X199558757Y-78193612D01*
X199380129Y-78014983D01*
X199146740Y-77918310D01*
X198405750Y-77918310D01*
X198247000Y-78077060D01*
X197993000Y-78077060D01*
X197834250Y-77918310D01*
X197093260Y-77918310D01*
X196859871Y-78014983D01*
X196681243Y-78193612D01*
X196584570Y-78427001D01*
X174977552Y-78427001D01*
X175158733Y-77990670D01*
X175159265Y-77380009D01*
X174926068Y-76815629D01*
X174494643Y-76383449D01*
X173930670Y-76149267D01*
X173320009Y-76148735D01*
X172755629Y-76381932D01*
X172323449Y-76813357D01*
X172308649Y-76849000D01*
X172009868Y-76849000D01*
X170770434Y-75609566D01*
X170697645Y-75560930D01*
X170499541Y-75428561D01*
X170180000Y-75365000D01*
X164084000Y-75365000D01*
X163764459Y-75428561D01*
X163566355Y-75560930D01*
X163493566Y-75609566D01*
X159674132Y-79429000D01*
X139111234Y-79429000D01*
X138870799Y-79329162D01*
X138498833Y-79328838D01*
X138155057Y-79470883D01*
X137891808Y-79733673D01*
X137749162Y-80077201D01*
X137748838Y-80449167D01*
X130027701Y-80449167D01*
X131957868Y-78519000D01*
X157808143Y-78519000D01*
X157821932Y-78552371D01*
X158253357Y-78984551D01*
X158817330Y-79218733D01*
X159427991Y-79219265D01*
X159992371Y-78986068D01*
X160424551Y-78554643D01*
X160658733Y-77990670D01*
X160659265Y-77380009D01*
X160426068Y-76815629D01*
X160044818Y-76433712D01*
X160424551Y-76054643D01*
X160658733Y-75490670D01*
X160659265Y-74880009D01*
X160426068Y-74315629D01*
X159994643Y-73883449D01*
X159927689Y-73855647D01*
X160307629Y-73476370D01*
X160510421Y-72987991D01*
X172088735Y-72987991D01*
X172321932Y-73552371D01*
X172753357Y-73984551D01*
X173317330Y-74218733D01*
X173927991Y-74219265D01*
X174492371Y-73986068D01*
X174924551Y-73554643D01*
X174933870Y-73532200D01*
X174933870Y-73544430D01*
X174978148Y-73779747D01*
X175117220Y-73995871D01*
X175329420Y-74140861D01*
X175581310Y-74191870D01*
X177178970Y-74191870D01*
X177414287Y-74147592D01*
X177630411Y-74008520D01*
X177775401Y-73796320D01*
X177795971Y-73694741D01*
X177882703Y-73904129D01*
X178061332Y-74082757D01*
X178294721Y-74179430D01*
X178934110Y-74179430D01*
X179092860Y-74020680D01*
X179092860Y-72771000D01*
X179346860Y-72771000D01*
X179346860Y-74020680D01*
X179505610Y-74179430D01*
X180144999Y-74179430D01*
X180378388Y-74082757D01*
X180557017Y-73904129D01*
X180653690Y-73670740D01*
X180653690Y-72929750D01*
X180494940Y-72771000D01*
X179346860Y-72771000D01*
X179092860Y-72771000D01*
X179072860Y-72771000D01*
X179072860Y-72517000D01*
X179092860Y-72517000D01*
X179092860Y-71267320D01*
X179346860Y-71267320D01*
X179346860Y-72517000D01*
X180494940Y-72517000D01*
X180653690Y-72358250D01*
X180653690Y-71617260D01*
X180557017Y-71383871D01*
X180378388Y-71205243D01*
X180144999Y-71108570D01*
X179505610Y-71108570D01*
X179346860Y-71267320D01*
X179092860Y-71267320D01*
X178934110Y-71108570D01*
X178294721Y-71108570D01*
X178061332Y-71205243D01*
X177882703Y-71383871D01*
X177797454Y-71589681D01*
X177782132Y-71508253D01*
X177643060Y-71292129D01*
X177430860Y-71147139D01*
X177178970Y-71096130D01*
X175581310Y-71096130D01*
X175345993Y-71140408D01*
X175129869Y-71279480D01*
X174984879Y-71491680D01*
X174933870Y-71743570D01*
X174933870Y-71834511D01*
X174926068Y-71815629D01*
X174494643Y-71383449D01*
X173930670Y-71149267D01*
X173320009Y-71148735D01*
X172755629Y-71381932D01*
X172323449Y-71813357D01*
X172089267Y-72377330D01*
X172088735Y-72987991D01*
X160510421Y-72987991D01*
X160520757Y-72963100D01*
X160521242Y-72407339D01*
X160309010Y-71893697D01*
X159916370Y-71500371D01*
X159403100Y-71287243D01*
X158847339Y-71286758D01*
X158333697Y-71498990D01*
X157983075Y-71849000D01*
X157491430Y-71849000D01*
X157491430Y-71560690D01*
X157332680Y-71401940D01*
X156083000Y-71401940D01*
X156083000Y-71421940D01*
X155829000Y-71421940D01*
X155829000Y-71401940D01*
X154579320Y-71401940D01*
X154420570Y-71560690D01*
X154420570Y-71849000D01*
X134072000Y-71849000D01*
X134020156Y-71859312D01*
X139149858Y-66729610D01*
X141212570Y-66729610D01*
X141212570Y-67368999D01*
X141309243Y-67602388D01*
X141487871Y-67781017D01*
X141721260Y-67877690D01*
X142462250Y-67877690D01*
X142621000Y-67718940D01*
X142621000Y-66570860D01*
X141371320Y-66570860D01*
X141212570Y-66729610D01*
X139149858Y-66729610D01*
X139655434Y-66224034D01*
X139699483Y-66158110D01*
X139836439Y-65953141D01*
X139900000Y-65633600D01*
X139900000Y-60148971D01*
X140696821Y-60148971D01*
X140854058Y-60529515D01*
X141144954Y-60820919D01*
X141525223Y-60978820D01*
X141936971Y-60979179D01*
X142317515Y-60821942D01*
X142320462Y-60819000D01*
X146045609Y-60819000D01*
X146381545Y-61155523D01*
X146317629Y-61181932D01*
X145885449Y-61613357D01*
X145651267Y-62177330D01*
X145650751Y-62769140D01*
X144289064Y-62769140D01*
X144251592Y-62569993D01*
X144112520Y-62353869D01*
X143900320Y-62208879D01*
X143648430Y-62157870D01*
X141847570Y-62157870D01*
X141612253Y-62202148D01*
X141396129Y-62341220D01*
X141251139Y-62553420D01*
X141200130Y-62805310D01*
X141200130Y-64402970D01*
X141244408Y-64638287D01*
X141383480Y-64854411D01*
X141595680Y-64999401D01*
X141697259Y-65019971D01*
X141487871Y-65106703D01*
X141309243Y-65285332D01*
X141212570Y-65518721D01*
X141212570Y-66158110D01*
X141371320Y-66316860D01*
X142621000Y-66316860D01*
X142621000Y-66296860D01*
X142875000Y-66296860D01*
X142875000Y-66316860D01*
X144124680Y-66316860D01*
X144283430Y-66158110D01*
X144283430Y-65518721D01*
X144186757Y-65285332D01*
X144008129Y-65106703D01*
X143802319Y-65021454D01*
X143883747Y-65006132D01*
X144099871Y-64867060D01*
X144244861Y-64654860D01*
X144288545Y-64439140D01*
X145750172Y-64439140D01*
X145651267Y-64677330D01*
X145650735Y-65287991D01*
X145790612Y-65626520D01*
X144283430Y-67133702D01*
X144283430Y-66729610D01*
X144124680Y-66570860D01*
X142875000Y-66570860D01*
X142875000Y-67718940D01*
X143033750Y-67877690D01*
X143539442Y-67877690D01*
X142856259Y-68560873D01*
X142797029Y-68560821D01*
X142416485Y-68718058D01*
X142125081Y-69008954D01*
X141967180Y-69389223D01*
X141966821Y-69800971D01*
X142124058Y-70181515D01*
X142414954Y-70472919D01*
X142795223Y-70630820D01*
X143206971Y-70631179D01*
X143587515Y-70473942D01*
X143711872Y-70349801D01*
X154420570Y-70349801D01*
X154420570Y-70989190D01*
X154579320Y-71147940D01*
X155829000Y-71147940D01*
X155829000Y-69999860D01*
X156083000Y-69999860D01*
X156083000Y-71147940D01*
X157332680Y-71147940D01*
X157491430Y-70989190D01*
X157491430Y-70349801D01*
X157394757Y-70116412D01*
X157216129Y-69937783D01*
X156982740Y-69841110D01*
X156241750Y-69841110D01*
X156083000Y-69999860D01*
X155829000Y-69999860D01*
X155670250Y-69841110D01*
X154929260Y-69841110D01*
X154695871Y-69937783D01*
X154517243Y-70116412D01*
X154420570Y-70349801D01*
X143711872Y-70349801D01*
X143878919Y-70183046D01*
X144036820Y-69802777D01*
X144036873Y-69741995D01*
X147259804Y-66519064D01*
X147489991Y-66519265D01*
X148054371Y-66286068D01*
X148486551Y-65854643D01*
X148578169Y-65634000D01*
X152788560Y-65634000D01*
X152788560Y-68134000D01*
X152832838Y-68369317D01*
X152971910Y-68585441D01*
X153184110Y-68730431D01*
X153436000Y-68781440D01*
X155936000Y-68781440D01*
X156171317Y-68737162D01*
X156387441Y-68598090D01*
X156532431Y-68385890D01*
X156583440Y-68134000D01*
X156583440Y-65634000D01*
X156539162Y-65398683D01*
X156467934Y-65287991D01*
X160150735Y-65287991D01*
X160383932Y-65852371D01*
X160815357Y-66284551D01*
X160851000Y-66299351D01*
X160851000Y-68458654D01*
X160751808Y-68557673D01*
X160609162Y-68901201D01*
X160608838Y-69273167D01*
X160750883Y-69616943D01*
X161013673Y-69880192D01*
X161357201Y-70022838D01*
X161729167Y-70023162D01*
X162072943Y-69881117D01*
X162336192Y-69618327D01*
X162371207Y-69534000D01*
X164726560Y-69534000D01*
X164726560Y-72034000D01*
X164770838Y-72269317D01*
X164909910Y-72485441D01*
X165122110Y-72630431D01*
X165374000Y-72681440D01*
X167874000Y-72681440D01*
X168109317Y-72637162D01*
X168325441Y-72498090D01*
X168470431Y-72285890D01*
X168521440Y-72034000D01*
X168521440Y-69534000D01*
X168477162Y-69298683D01*
X168338090Y-69082559D01*
X168125890Y-68937569D01*
X167874000Y-68886560D01*
X165374000Y-68886560D01*
X165138683Y-68930838D01*
X164922559Y-69069910D01*
X164777569Y-69282110D01*
X164726560Y-69534000D01*
X162371207Y-69534000D01*
X162478838Y-69274799D01*
X162479129Y-68940467D01*
X162491023Y-68872706D01*
X162521000Y-68722000D01*
X162521000Y-66299857D01*
X162554371Y-66286068D01*
X162986551Y-65854643D01*
X163220733Y-65290670D01*
X163221265Y-64680009D01*
X162988068Y-64115629D01*
X162556643Y-63683449D01*
X161992670Y-63449267D01*
X161382009Y-63448735D01*
X160817629Y-63681932D01*
X160385449Y-64113357D01*
X160151267Y-64677330D01*
X160150735Y-65287991D01*
X156467934Y-65287991D01*
X156400090Y-65182559D01*
X156187890Y-65037569D01*
X155936000Y-64986560D01*
X153436000Y-64986560D01*
X153200683Y-65030838D01*
X152984559Y-65169910D01*
X152839569Y-65382110D01*
X152788560Y-65634000D01*
X148578169Y-65634000D01*
X148720733Y-65290670D01*
X148721265Y-64680009D01*
X148488068Y-64115629D01*
X148106818Y-63733712D01*
X148486551Y-63354643D01*
X148720733Y-62790670D01*
X148721265Y-62180009D01*
X148488068Y-61615629D01*
X148056643Y-61183449D01*
X147989689Y-61155647D01*
X148369629Y-60776370D01*
X148572421Y-60287991D01*
X160150735Y-60287991D01*
X160383932Y-60852371D01*
X160815357Y-61284551D01*
X161379330Y-61518733D01*
X161989991Y-61519265D01*
X162459964Y-61325076D01*
X162629420Y-61440861D01*
X162881310Y-61491870D01*
X164478970Y-61491870D01*
X164714287Y-61447592D01*
X164930411Y-61308520D01*
X165075401Y-61096320D01*
X165095971Y-60994741D01*
X165182703Y-61204129D01*
X165361332Y-61382757D01*
X165594721Y-61479430D01*
X166234110Y-61479430D01*
X166392860Y-61320680D01*
X166392860Y-60071000D01*
X166646860Y-60071000D01*
X166646860Y-61320680D01*
X166805610Y-61479430D01*
X167444999Y-61479430D01*
X167678388Y-61382757D01*
X167857017Y-61204129D01*
X167953690Y-60970740D01*
X167953690Y-60388486D01*
X193322389Y-60388486D01*
X193858211Y-61685275D01*
X194849506Y-62678302D01*
X196145358Y-63216386D01*
X197548486Y-63217611D01*
X198845275Y-62681789D01*
X199838302Y-61690494D01*
X200376386Y-60394642D01*
X200377611Y-58991514D01*
X199841789Y-57694725D01*
X198850494Y-56701698D01*
X197554642Y-56163614D01*
X196151514Y-56162389D01*
X194854725Y-56698211D01*
X193861698Y-57689506D01*
X193323614Y-58985358D01*
X193322389Y-60388486D01*
X167953690Y-60388486D01*
X167953690Y-60229750D01*
X167794940Y-60071000D01*
X166646860Y-60071000D01*
X166392860Y-60071000D01*
X166372860Y-60071000D01*
X166372860Y-59817000D01*
X166392860Y-59817000D01*
X166392860Y-58567320D01*
X166646860Y-58567320D01*
X166646860Y-59817000D01*
X167794940Y-59817000D01*
X167953690Y-59658250D01*
X167953690Y-58917260D01*
X167857017Y-58683871D01*
X167678388Y-58505243D01*
X167444999Y-58408570D01*
X166805610Y-58408570D01*
X166646860Y-58567320D01*
X166392860Y-58567320D01*
X166234110Y-58408570D01*
X165594721Y-58408570D01*
X165361332Y-58505243D01*
X165182703Y-58683871D01*
X165097454Y-58889681D01*
X165082132Y-58808253D01*
X164943060Y-58592129D01*
X164730860Y-58447139D01*
X164478970Y-58396130D01*
X162881310Y-58396130D01*
X162645993Y-58440408D01*
X162429869Y-58579480D01*
X162402549Y-58619464D01*
X161992670Y-58449267D01*
X161382009Y-58448735D01*
X160817629Y-58681932D01*
X160385449Y-59113357D01*
X160151267Y-59677330D01*
X160150735Y-60287991D01*
X148572421Y-60287991D01*
X148582757Y-60263100D01*
X148583242Y-59707339D01*
X148371010Y-59193697D01*
X147978370Y-58800371D01*
X147465100Y-58587243D01*
X146909339Y-58586758D01*
X146395697Y-58798990D01*
X146045075Y-59149000D01*
X142400822Y-59149000D01*
X142319046Y-59067081D01*
X141938777Y-58909180D01*
X141527029Y-58908821D01*
X141146485Y-59066058D01*
X140855081Y-59356954D01*
X140697180Y-59737223D01*
X140696821Y-60148971D01*
X139900000Y-60148971D01*
X139900000Y-57979058D01*
X139989943Y-57941894D01*
X140450278Y-57482363D01*
X140699716Y-56881648D01*
X140699757Y-56834000D01*
X152788560Y-56834000D01*
X152788560Y-59334000D01*
X152832838Y-59569317D01*
X152971910Y-59785441D01*
X153184110Y-59930431D01*
X153436000Y-59981440D01*
X155936000Y-59981440D01*
X156171317Y-59937162D01*
X156387441Y-59798090D01*
X156532431Y-59585890D01*
X156583440Y-59334000D01*
X156583440Y-56834000D01*
X156539162Y-56598683D01*
X156400090Y-56382559D01*
X156187890Y-56237569D01*
X155936000Y-56186560D01*
X153436000Y-56186560D01*
X153200683Y-56230838D01*
X152984559Y-56369910D01*
X152839569Y-56582110D01*
X152788560Y-56834000D01*
X140699757Y-56834000D01*
X140700284Y-56231205D01*
X140451894Y-55630057D01*
X139992363Y-55169722D01*
X139391648Y-54920284D01*
X138741205Y-54919716D01*
X138140057Y-55168106D01*
X137679722Y-55627637D01*
X137430284Y-56228352D01*
X137429716Y-56878795D01*
X137678106Y-57479943D01*
X138137637Y-57940278D01*
X138230000Y-57978630D01*
X138230000Y-65287732D01*
X128560566Y-74957166D01*
X128565970Y-74930000D01*
X128456737Y-74380849D01*
X128145668Y-73915302D01*
X127680121Y-73604233D01*
X127581000Y-73584517D01*
X127581000Y-71084868D01*
X134575434Y-64090434D01*
X134589448Y-64069460D01*
X134756439Y-63819541D01*
X134820000Y-63500000D01*
X134820000Y-57979058D01*
X134909943Y-57941894D01*
X135370278Y-57482363D01*
X135619716Y-56881648D01*
X135620284Y-56231205D01*
X135371894Y-55630057D01*
X134912363Y-55169722D01*
X134311648Y-54920284D01*
X133661205Y-54919716D01*
X133060057Y-55168106D01*
X132599722Y-55627637D01*
X132350284Y-56228352D01*
X132349716Y-56878795D01*
X132598106Y-57479943D01*
X133057637Y-57940278D01*
X133150000Y-57978630D01*
X133150000Y-63154132D01*
X126155566Y-70148566D01*
X125974561Y-70419459D01*
X125911000Y-70739000D01*
X125911000Y-73584517D01*
X125811879Y-73604233D01*
X125346332Y-73915302D01*
X125035263Y-74380849D01*
X124926030Y-74930000D01*
X124803621Y-74930000D01*
X124812400Y-63526043D01*
X124812336Y-63525721D01*
X124812400Y-63525400D01*
X124780760Y-63366337D01*
X124749085Y-63206453D01*
X124748903Y-63206179D01*
X124748839Y-63205860D01*
X124658812Y-63071125D01*
X124568288Y-62935420D01*
X124568015Y-62935238D01*
X124567834Y-62934966D01*
X123329468Y-61696600D01*
X127236600Y-61696600D01*
X127322997Y-62130945D01*
X127569034Y-62499166D01*
X127937255Y-62745203D01*
X128371600Y-62831600D01*
X128805945Y-62745203D01*
X129174166Y-62499166D01*
X129707567Y-61965766D01*
X129953604Y-61597545D01*
X130040000Y-61163200D01*
X130040000Y-57732204D01*
X130290278Y-57482363D01*
X130539716Y-56881648D01*
X130540284Y-56231205D01*
X130291894Y-55630057D01*
X129832363Y-55169722D01*
X129231648Y-54920284D01*
X128581205Y-54919716D01*
X127980057Y-55168106D01*
X127519722Y-55627637D01*
X127270284Y-56228352D01*
X127269716Y-56878795D01*
X127518106Y-57479943D01*
X127770000Y-57732278D01*
X127770000Y-60693068D01*
X127569034Y-60894034D01*
X127322997Y-61262255D01*
X127236600Y-61696600D01*
X123329468Y-61696600D01*
X120503834Y-58870966D01*
X120369096Y-58780937D01*
X120233837Y-58690333D01*
X120233351Y-58690236D01*
X120232940Y-58689961D01*
X120073429Y-58658232D01*
X119914370Y-58626401D01*
X98472432Y-58601497D01*
X98230799Y-58501162D01*
X97858833Y-58500838D01*
X97515057Y-58642883D01*
X97251808Y-58905673D01*
X97109162Y-59249201D01*
X97108838Y-59621167D01*
X97250883Y-59964943D01*
X97410661Y-60125000D01*
X91440000Y-60125000D01*
X91120460Y-60188560D01*
X90849566Y-60369566D01*
X88055566Y-63163566D01*
X87874561Y-63434459D01*
X87811000Y-63754000D01*
X87811000Y-72009000D01*
X87874561Y-72328541D01*
X88022549Y-72550020D01*
X88055566Y-72599434D01*
X89081000Y-73624868D01*
X89081000Y-76240593D01*
X88826971Y-76410330D01*
X88502115Y-76896511D01*
X88388041Y-77470000D01*
X88502115Y-78043489D01*
X88826971Y-78529670D01*
X89150228Y-78745664D01*
X89027510Y-78803179D01*
X88633312Y-79235053D01*
X88461042Y-79650974D01*
X88582183Y-79883000D01*
X89789000Y-79883000D01*
X89789000Y-79863000D01*
X90043000Y-79863000D01*
X90043000Y-79883000D01*
X92329000Y-79883000D01*
X92329000Y-79863000D01*
X92583000Y-79863000D01*
X92583000Y-79883000D01*
X94869000Y-79883000D01*
X94869000Y-79863000D01*
X95123000Y-79863000D01*
X95123000Y-79883000D01*
X97409000Y-79883000D01*
X97409000Y-79863000D01*
X97663000Y-79863000D01*
X97663000Y-79883000D01*
X97683000Y-79883000D01*
X97683000Y-80137000D01*
X97663000Y-80137000D01*
X97663000Y-81344469D01*
X97895027Y-81464968D01*
X98424490Y-81216821D01*
X98806008Y-80798839D01*
X98986971Y-81069670D01*
X99322000Y-81293529D01*
X99322000Y-89137132D01*
X99002434Y-88817566D01*
X98731541Y-88636561D01*
X98412000Y-88573000D01*
X96928058Y-88573000D01*
X96890894Y-88483057D01*
X96431363Y-88022722D01*
X95830648Y-87773284D01*
X95180205Y-87772716D01*
X94579057Y-88021106D01*
X94512426Y-88087621D01*
X94428090Y-87956559D01*
X94215890Y-87811569D01*
X93964000Y-87760560D01*
X91964000Y-87760560D01*
X91728683Y-87804838D01*
X91512559Y-87943910D01*
X91367569Y-88156110D01*
X91316560Y-88408000D01*
X91316560Y-88573000D01*
X90750130Y-88573000D01*
X90750130Y-88507570D01*
X90705852Y-88272253D01*
X90566780Y-88056129D01*
X90354580Y-87911139D01*
X90102690Y-87860130D01*
X88505030Y-87860130D01*
X88269713Y-87904408D01*
X88053589Y-88043480D01*
X87908599Y-88255680D01*
X87888029Y-88357259D01*
X87801297Y-88147871D01*
X87622668Y-87969243D01*
X87389279Y-87872570D01*
X86749890Y-87872570D01*
X86591140Y-88031320D01*
X86337140Y-88031320D01*
X86178390Y-87872570D01*
X85539001Y-87872570D01*
X85305612Y-87969243D01*
X85126983Y-88147871D01*
X85030310Y-88381260D01*
X78232000Y-88381260D01*
X78232000Y-80369026D01*
X88461042Y-80369026D01*
X88633312Y-80784947D01*
X89027510Y-81216821D01*
X89556973Y-81464968D01*
X89789000Y-81344469D01*
X89789000Y-80137000D01*
X90043000Y-80137000D01*
X90043000Y-81344469D01*
X90275027Y-81464968D01*
X90804490Y-81216821D01*
X91186000Y-80798848D01*
X91567510Y-81216821D01*
X92096973Y-81464968D01*
X92329000Y-81344469D01*
X92329000Y-80137000D01*
X92583000Y-80137000D01*
X92583000Y-81344469D01*
X92815027Y-81464968D01*
X93344490Y-81216821D01*
X93726000Y-80798848D01*
X94107510Y-81216821D01*
X94636973Y-81464968D01*
X94869000Y-81344469D01*
X94869000Y-80137000D01*
X95123000Y-80137000D01*
X95123000Y-81344469D01*
X95355027Y-81464968D01*
X95884490Y-81216821D01*
X96266000Y-80798848D01*
X96647510Y-81216821D01*
X97176973Y-81464968D01*
X97409000Y-81344469D01*
X97409000Y-80137000D01*
X95123000Y-80137000D01*
X94869000Y-80137000D01*
X92583000Y-80137000D01*
X92329000Y-80137000D01*
X90043000Y-80137000D01*
X89789000Y-80137000D01*
X88582183Y-80137000D01*
X88461042Y-80369026D01*
X78232000Y-80369026D01*
X78232000Y-60388486D01*
X81562389Y-60388486D01*
X82098211Y-61685275D01*
X83089506Y-62678302D01*
X84385358Y-63216386D01*
X85788486Y-63217611D01*
X87085275Y-62681789D01*
X88078302Y-61690494D01*
X88616386Y-60394642D01*
X88617611Y-58991514D01*
X88087081Y-57707532D01*
X122852073Y-57707532D01*
X122950736Y-57974387D01*
X123560461Y-58200908D01*
X124210460Y-58176856D01*
X124699264Y-57974387D01*
X124797927Y-57707532D01*
X123825000Y-56734605D01*
X122852073Y-57707532D01*
X88087081Y-57707532D01*
X88081789Y-57694725D01*
X87090494Y-56701698D01*
X86100124Y-56290461D01*
X122179092Y-56290461D01*
X122203144Y-56940460D01*
X122405613Y-57429264D01*
X122672468Y-57527927D01*
X123645395Y-56555000D01*
X124004605Y-56555000D01*
X124977532Y-57527927D01*
X125244387Y-57429264D01*
X125470908Y-56819539D01*
X125446856Y-56169540D01*
X125244387Y-55680736D01*
X124977532Y-55582073D01*
X124004605Y-56555000D01*
X123645395Y-56555000D01*
X122672468Y-55582073D01*
X122405613Y-55680736D01*
X122179092Y-56290461D01*
X86100124Y-56290461D01*
X85794642Y-56163614D01*
X84391514Y-56162389D01*
X83094725Y-56698211D01*
X82101698Y-57689506D01*
X81563614Y-58985358D01*
X81562389Y-60388486D01*
X78232000Y-60388486D01*
X78232000Y-55402468D01*
X122852073Y-55402468D01*
X123825000Y-56375395D01*
X124797927Y-55402468D01*
X124699264Y-55135613D01*
X124089539Y-54909092D01*
X123439540Y-54933144D01*
X122950736Y-55135613D01*
X122852073Y-55402468D01*
X78232000Y-55402468D01*
X78232000Y-52832000D01*
X203708000Y-52832000D01*
X203708000Y-152908000D01*
X203708000Y-152908000D01*
G37*
X203708000Y-152908000D02*
X78232000Y-152908000D01*
X78232000Y-151228187D01*
X133712752Y-151228187D01*
X133930757Y-151755800D01*
X134334077Y-152159824D01*
X134861309Y-152378750D01*
X135432187Y-152379248D01*
X135959800Y-152161243D01*
X136363824Y-151757923D01*
X136582750Y-151230691D01*
X136583248Y-150659813D01*
X136365243Y-150132200D01*
X135961923Y-149728176D01*
X135434691Y-149509250D01*
X134863813Y-149508752D01*
X134336200Y-149726757D01*
X133932176Y-150130077D01*
X133713250Y-150657309D01*
X133712752Y-151228187D01*
X78232000Y-151228187D01*
X78232000Y-146748486D01*
X81562389Y-146748486D01*
X82098211Y-148045275D01*
X83089506Y-149038302D01*
X84385358Y-149576386D01*
X85788486Y-149577611D01*
X87085275Y-149041789D01*
X88078302Y-148050494D01*
X88616386Y-146754642D01*
X88616845Y-146228187D01*
X133712752Y-146228187D01*
X133930757Y-146755800D01*
X134334077Y-147159824D01*
X134861309Y-147378750D01*
X135432187Y-147379248D01*
X135959800Y-147161243D01*
X136363824Y-146757923D01*
X136367742Y-146748486D01*
X193322389Y-146748486D01*
X193858211Y-148045275D01*
X194849506Y-149038302D01*
X196145358Y-149576386D01*
X197548486Y-149577611D01*
X198845275Y-149041789D01*
X199838302Y-148050494D01*
X200376386Y-146754642D01*
X200377611Y-145351514D01*
X199841789Y-144054725D01*
X198850494Y-143061698D01*
X197554642Y-142523614D01*
X196151514Y-142522389D01*
X194854725Y-143058211D01*
X193861698Y-144049506D01*
X193323614Y-145345358D01*
X193322389Y-146748486D01*
X136367742Y-146748486D01*
X136582750Y-146230691D01*
X136583248Y-145659813D01*
X136365243Y-145132200D01*
X135961923Y-144728176D01*
X135434691Y-144509250D01*
X134863813Y-144508752D01*
X134336200Y-144726757D01*
X133932176Y-145130077D01*
X133713250Y-145657309D01*
X133712752Y-146228187D01*
X88616845Y-146228187D01*
X88617611Y-145351514D01*
X88081789Y-144054725D01*
X87090494Y-143061698D01*
X85794642Y-142523614D01*
X84391514Y-142522389D01*
X83094725Y-143058211D01*
X82101698Y-144049506D01*
X81563614Y-145345358D01*
X81562389Y-146748486D01*
X78232000Y-146748486D01*
X78232000Y-122458187D01*
X84162752Y-122458187D01*
X84380757Y-122985800D01*
X84784077Y-123389824D01*
X84914215Y-123443862D01*
X84786200Y-123496757D01*
X84382176Y-123900077D01*
X84163250Y-124427309D01*
X84162752Y-124998187D01*
X84380757Y-125525800D01*
X84784077Y-125929824D01*
X84950429Y-125998899D01*
X84786200Y-126066757D01*
X84382176Y-126470077D01*
X84163250Y-126997309D01*
X84162752Y-127568187D01*
X84380757Y-128095800D01*
X84784077Y-128499824D01*
X84878002Y-128538825D01*
X84786200Y-128576757D01*
X84382176Y-128980077D01*
X84163250Y-129507309D01*
X84162752Y-130078187D01*
X84380757Y-130605800D01*
X84784077Y-131009824D01*
X85311309Y-131228750D01*
X85882187Y-131229248D01*
X86409800Y-131011243D01*
X86813824Y-130607923D01*
X87032750Y-130080691D01*
X87033248Y-129509813D01*
X86815243Y-128982200D01*
X86411923Y-128578176D01*
X86317998Y-128539175D01*
X86409800Y-128501243D01*
X86813824Y-128097923D01*
X87032750Y-127570691D01*
X87033248Y-126999813D01*
X86815243Y-126472200D01*
X86411923Y-126068176D01*
X86245571Y-125999101D01*
X86409800Y-125931243D01*
X86813824Y-125527923D01*
X87032750Y-125000691D01*
X87033248Y-124429813D01*
X86815243Y-123902200D01*
X86411923Y-123498176D01*
X86281785Y-123444138D01*
X86409800Y-123391243D01*
X86813824Y-122987923D01*
X87032750Y-122460691D01*
X87032752Y-122458187D01*
X91782752Y-122458187D01*
X92000757Y-122985800D01*
X92404077Y-123389824D01*
X92534215Y-123443862D01*
X92406200Y-123496757D01*
X92002176Y-123900077D01*
X91783250Y-124427309D01*
X91782752Y-124998187D01*
X92000757Y-125525800D01*
X92404077Y-125929824D01*
X92570429Y-125998899D01*
X92406200Y-126066757D01*
X92002176Y-126470077D01*
X91783250Y-126997309D01*
X91782752Y-127568187D01*
X92000757Y-128095800D01*
X92404077Y-128499824D01*
X92498002Y-128538825D01*
X92406200Y-128576757D01*
X92002176Y-128980077D01*
X91783250Y-129507309D01*
X91782752Y-130078187D01*
X92000757Y-130605800D01*
X92404077Y-131009824D01*
X92931309Y-131228750D01*
X93502187Y-131229248D01*
X94029800Y-131011243D01*
X94433824Y-130607923D01*
X94652750Y-130080691D01*
X94653248Y-129509813D01*
X94435243Y-128982200D01*
X94031923Y-128578176D01*
X93937998Y-128539175D01*
X94029800Y-128501243D01*
X94433824Y-128097923D01*
X94652750Y-127570691D01*
X94653248Y-126999813D01*
X94435243Y-126472200D01*
X94031923Y-126068176D01*
X93865571Y-125999101D01*
X94029800Y-125931243D01*
X94433824Y-125527923D01*
X94652750Y-125000691D01*
X94653248Y-124429813D01*
X94435243Y-123902200D01*
X94031923Y-123498176D01*
X93901785Y-123444138D01*
X94029800Y-123391243D01*
X94433824Y-122987923D01*
X94652750Y-122460691D01*
X94652752Y-122458187D01*
X100672752Y-122458187D01*
X100890757Y-122985800D01*
X101294077Y-123389824D01*
X101424215Y-123443862D01*
X101296200Y-123496757D01*
X100892176Y-123900077D01*
X100673250Y-124427309D01*
X100672752Y-124998187D01*
X100890757Y-125525800D01*
X101294077Y-125929824D01*
X101460429Y-125998899D01*
X101296200Y-126066757D01*
X100892176Y-126470077D01*
X100673250Y-126997309D01*
X100672752Y-127568187D01*
X100890757Y-128095800D01*
X101294077Y-128499824D01*
X101388002Y-128538825D01*
X101296200Y-128576757D01*
X100892176Y-128980077D01*
X100673250Y-129507309D01*
X100672752Y-130078187D01*
X100890757Y-130605800D01*
X101294077Y-131009824D01*
X101821309Y-131228750D01*
X102392187Y-131229248D01*
X102919800Y-131011243D01*
X103323824Y-130607923D01*
X103542750Y-130080691D01*
X103543248Y-129509813D01*
X103325243Y-128982200D01*
X102921923Y-128578176D01*
X102827998Y-128539175D01*
X102919800Y-128501243D01*
X103323824Y-128097923D01*
X103542750Y-127570691D01*
X103543248Y-126999813D01*
X103325243Y-126472200D01*
X102921923Y-126068176D01*
X102755571Y-125999101D01*
X102919800Y-125931243D01*
X103323824Y-125527923D01*
X103542750Y-125000691D01*
X103543248Y-124429813D01*
X103325243Y-123902200D01*
X102921923Y-123498176D01*
X102791785Y-123444138D01*
X102919800Y-123391243D01*
X103323824Y-122987923D01*
X103542750Y-122460691D01*
X103542752Y-122458187D01*
X108292752Y-122458187D01*
X108510757Y-122985800D01*
X108914077Y-123389824D01*
X109044215Y-123443862D01*
X108916200Y-123496757D01*
X108512176Y-123900077D01*
X108293250Y-124427309D01*
X108292752Y-124998187D01*
X108510757Y-125525800D01*
X108914077Y-125929824D01*
X109080429Y-125998899D01*
X108916200Y-126066757D01*
X108512176Y-126470077D01*
X108293250Y-126997309D01*
X108292752Y-127568187D01*
X108510757Y-128095800D01*
X108914077Y-128499824D01*
X109008002Y-128538825D01*
X108916200Y-128576757D01*
X108512176Y-128980077D01*
X108293250Y-129507309D01*
X108292752Y-130078187D01*
X108510757Y-130605800D01*
X108914077Y-131009824D01*
X109441309Y-131228750D01*
X110012187Y-131229248D01*
X110539800Y-131011243D01*
X110943824Y-130607923D01*
X111162750Y-130080691D01*
X111163248Y-129509813D01*
X110945243Y-128982200D01*
X110541923Y-128578176D01*
X110447998Y-128539175D01*
X110539800Y-128501243D01*
X110943824Y-128097923D01*
X111162750Y-127570691D01*
X111163248Y-126999813D01*
X110945243Y-126472200D01*
X110541923Y-126068176D01*
X110375571Y-125999101D01*
X110539800Y-125931243D01*
X110943824Y-125527923D01*
X111162750Y-125000691D01*
X111163248Y-124429813D01*
X110945243Y-123902200D01*
X110541923Y-123498176D01*
X110411785Y-123444138D01*
X110539800Y-123391243D01*
X110943824Y-122987923D01*
X111157145Y-122474187D01*
X117064752Y-122474187D01*
X117282757Y-123001800D01*
X117686077Y-123405824D01*
X117816215Y-123459862D01*
X117688200Y-123512757D01*
X117284176Y-123916077D01*
X117065250Y-124443309D01*
X117064752Y-125014187D01*
X117282757Y-125541800D01*
X117686077Y-125945824D01*
X117852429Y-126014899D01*
X117688200Y-126082757D01*
X117284176Y-126486077D01*
X117065250Y-127013309D01*
X117064752Y-127584187D01*
X117282757Y-128111800D01*
X117686077Y-128515824D01*
X117780002Y-128554825D01*
X117688200Y-128592757D01*
X117284176Y-128996077D01*
X117065250Y-129523309D01*
X117064752Y-130094187D01*
X117282757Y-130621800D01*
X117686077Y-131025824D01*
X118213309Y-131244750D01*
X118784187Y-131245248D01*
X119311800Y-131027243D01*
X119715824Y-130623923D01*
X119934750Y-130096691D01*
X119935248Y-129525813D01*
X119717243Y-128998200D01*
X119313923Y-128594176D01*
X119219998Y-128555175D01*
X119311800Y-128517243D01*
X119715824Y-128113923D01*
X119934750Y-127586691D01*
X119935248Y-127015813D01*
X119717243Y-126488200D01*
X119313923Y-126084176D01*
X119147571Y-126015101D01*
X119311800Y-125947243D01*
X119715824Y-125543923D01*
X119934750Y-125016691D01*
X119935248Y-124445813D01*
X119717243Y-123918200D01*
X119313923Y-123514176D01*
X119183785Y-123460138D01*
X119311800Y-123407243D01*
X119715824Y-123003923D01*
X119934750Y-122476691D01*
X119935248Y-121905813D01*
X119717243Y-121378200D01*
X119313923Y-120974176D01*
X118786691Y-120755250D01*
X118215813Y-120754752D01*
X117688200Y-120972757D01*
X117284176Y-121376077D01*
X117065250Y-121903309D01*
X117064752Y-122474187D01*
X111157145Y-122474187D01*
X111162750Y-122460691D01*
X111163248Y-121889813D01*
X110945243Y-121362200D01*
X110541923Y-120958176D01*
X110014691Y-120739250D01*
X109443813Y-120738752D01*
X108916200Y-120956757D01*
X108512176Y-121360077D01*
X108293250Y-121887309D01*
X108292752Y-122458187D01*
X103542752Y-122458187D01*
X103543248Y-121889813D01*
X103325243Y-121362200D01*
X102921923Y-120958176D01*
X102394691Y-120739250D01*
X101823813Y-120738752D01*
X101296200Y-120956757D01*
X100892176Y-121360077D01*
X100673250Y-121887309D01*
X100672752Y-122458187D01*
X94652752Y-122458187D01*
X94653248Y-121889813D01*
X94435243Y-121362200D01*
X94031923Y-120958176D01*
X93504691Y-120739250D01*
X92933813Y-120738752D01*
X92406200Y-120956757D01*
X92002176Y-121360077D01*
X91783250Y-121887309D01*
X91782752Y-122458187D01*
X87032752Y-122458187D01*
X87033248Y-121889813D01*
X86815243Y-121362200D01*
X86411923Y-120958176D01*
X85884691Y-120739250D01*
X85313813Y-120738752D01*
X84786200Y-120956757D01*
X84382176Y-121360077D01*
X84163250Y-121887309D01*
X84162752Y-122458187D01*
X78232000Y-122458187D01*
X78232000Y-105498815D01*
X80668630Y-105498815D01*
X80992980Y-106283800D01*
X81219000Y-106510215D01*
X81219000Y-108881383D01*
X81075091Y-109025041D01*
X80749372Y-109809459D01*
X80748630Y-110658815D01*
X81072980Y-111443800D01*
X81673041Y-112044909D01*
X82457459Y-112370628D01*
X83306815Y-112371370D01*
X84091800Y-112047020D01*
X84692909Y-111446959D01*
X85018628Y-110662541D01*
X85018631Y-110658815D01*
X90748630Y-110658815D01*
X91072980Y-111443800D01*
X91299000Y-111670215D01*
X91299000Y-114728000D01*
X91419651Y-115334553D01*
X91763236Y-115848764D01*
X91843236Y-115928764D01*
X92357447Y-116272349D01*
X92964000Y-116393000D01*
X93570553Y-116272349D01*
X94084764Y-115928764D01*
X94428349Y-115414553D01*
X94549000Y-114808000D01*
X94469000Y-114405813D01*
X94469000Y-111821000D01*
X96581622Y-111821000D01*
X96701352Y-111870716D01*
X97351795Y-111871284D01*
X97952943Y-111622894D01*
X98019574Y-111556379D01*
X98103910Y-111687441D01*
X98316110Y-111832431D01*
X98568000Y-111883440D01*
X100568000Y-111883440D01*
X100803317Y-111839162D01*
X101019441Y-111700090D01*
X101164431Y-111487890D01*
X101215440Y-111236000D01*
X101215440Y-111071000D01*
X101845370Y-111071000D01*
X101845370Y-111453930D01*
X101889648Y-111689247D01*
X102028720Y-111905371D01*
X102240920Y-112050361D01*
X102492810Y-112101370D01*
X104090470Y-112101370D01*
X104325787Y-112057092D01*
X104541911Y-111918020D01*
X104686901Y-111705820D01*
X104707471Y-111604241D01*
X104794203Y-111813629D01*
X104972832Y-111992257D01*
X105206221Y-112088930D01*
X105845610Y-112088930D01*
X106004360Y-111930180D01*
X106004360Y-110680500D01*
X106258360Y-110680500D01*
X106258360Y-111930180D01*
X106417110Y-112088930D01*
X107056499Y-112088930D01*
X107289888Y-111992257D01*
X107468517Y-111813629D01*
X107565190Y-111580240D01*
X107565190Y-110839250D01*
X107406440Y-110680500D01*
X106258360Y-110680500D01*
X106004360Y-110680500D01*
X105984360Y-110680500D01*
X105984360Y-110426500D01*
X106004360Y-110426500D01*
X106004360Y-109176820D01*
X106258360Y-109176820D01*
X106258360Y-110426500D01*
X107406440Y-110426500D01*
X107565190Y-110267750D01*
X107565190Y-109526760D01*
X107468517Y-109293371D01*
X107289888Y-109114743D01*
X107056499Y-109018070D01*
X106417110Y-109018070D01*
X106258360Y-109176820D01*
X106004360Y-109176820D01*
X105845610Y-109018070D01*
X105206221Y-109018070D01*
X104972832Y-109114743D01*
X104794203Y-109293371D01*
X104708954Y-109499181D01*
X104693632Y-109417753D01*
X104554560Y-109201629D01*
X104342360Y-109056639D01*
X104090470Y-109005630D01*
X102492810Y-109005630D01*
X102257493Y-109049908D01*
X102041369Y-109188980D01*
X101896502Y-109401000D01*
X101215440Y-109401000D01*
X101215440Y-109236000D01*
X101171162Y-109000683D01*
X101032090Y-108784559D01*
X100819890Y-108639569D01*
X100568000Y-108588560D01*
X98568000Y-108588560D01*
X98332683Y-108632838D01*
X98116559Y-108771910D01*
X98019090Y-108914561D01*
X97955363Y-108850722D01*
X97354648Y-108601284D01*
X96704205Y-108600716D01*
X96582509Y-108651000D01*
X94469000Y-108651000D01*
X94469000Y-102797610D01*
X99048570Y-102797610D01*
X99048570Y-103436999D01*
X99145243Y-103670388D01*
X99323871Y-103849017D01*
X99557260Y-103945690D01*
X100298250Y-103945690D01*
X100457000Y-103786940D01*
X100457000Y-102638860D01*
X100711000Y-102638860D01*
X100711000Y-103786940D01*
X100869750Y-103945690D01*
X101610740Y-103945690D01*
X101844129Y-103849017D01*
X102022757Y-103670388D01*
X102119430Y-103436999D01*
X102119430Y-102797610D01*
X101960680Y-102638860D01*
X100711000Y-102638860D01*
X100457000Y-102638860D01*
X99207320Y-102638860D01*
X99048570Y-102797610D01*
X94469000Y-102797610D01*
X94469000Y-101828528D01*
X98459529Y-97838000D01*
X98872000Y-97838000D01*
X98872000Y-99545140D01*
X98992651Y-100151693D01*
X99036130Y-100216764D01*
X99036130Y-100470970D01*
X99080408Y-100706287D01*
X99219480Y-100922411D01*
X99431680Y-101067401D01*
X99533259Y-101087971D01*
X99323871Y-101174703D01*
X99145243Y-101353332D01*
X99048570Y-101586721D01*
X99048570Y-102226110D01*
X99207320Y-102384860D01*
X100457000Y-102384860D01*
X100457000Y-102364860D01*
X100711000Y-102364860D01*
X100711000Y-102384860D01*
X101960680Y-102384860D01*
X102119430Y-102226110D01*
X102119430Y-101586721D01*
X102022757Y-101353332D01*
X101844129Y-101174703D01*
X101638319Y-101089454D01*
X101719747Y-101074132D01*
X101935871Y-100935060D01*
X102080861Y-100722860D01*
X102131870Y-100470970D01*
X102131870Y-99858805D01*
X102169000Y-99672140D01*
X102131870Y-99485475D01*
X102131870Y-98873310D01*
X102087592Y-98637993D01*
X102042000Y-98567141D01*
X102042000Y-96253000D01*
X101921349Y-95646447D01*
X101577764Y-95132236D01*
X101228023Y-94898546D01*
X101248912Y-94824517D01*
X101094005Y-94669610D01*
X105144570Y-94669610D01*
X105144570Y-95308999D01*
X105241243Y-95542388D01*
X105419871Y-95721017D01*
X105653260Y-95817690D01*
X106394250Y-95817690D01*
X106553000Y-95658940D01*
X106553000Y-94510860D01*
X106807000Y-94510860D01*
X106807000Y-95658940D01*
X106965750Y-95817690D01*
X107706740Y-95817690D01*
X107940129Y-95721017D01*
X108118757Y-95542388D01*
X108215430Y-95308999D01*
X108215430Y-94669610D01*
X110732570Y-94669610D01*
X110732570Y-95308999D01*
X110829243Y-95542388D01*
X111007871Y-95721017D01*
X111241260Y-95817690D01*
X111982250Y-95817690D01*
X112141000Y-95658940D01*
X112141000Y-94510860D01*
X112395000Y-94510860D01*
X112395000Y-95658940D01*
X112553750Y-95817690D01*
X113294740Y-95817690D01*
X113528129Y-95721017D01*
X113706757Y-95542388D01*
X113803430Y-95308999D01*
X113803430Y-94669610D01*
X113644680Y-94510860D01*
X112395000Y-94510860D01*
X112141000Y-94510860D01*
X110891320Y-94510860D01*
X110732570Y-94669610D01*
X108215430Y-94669610D01*
X108056680Y-94510860D01*
X106807000Y-94510860D01*
X106553000Y-94510860D01*
X105303320Y-94510860D01*
X105144570Y-94669610D01*
X101094005Y-94669610D01*
X100457000Y-94032605D01*
X100442858Y-94046748D01*
X100263253Y-93867143D01*
X100277395Y-93853000D01*
X100636605Y-93853000D01*
X101428517Y-94644912D01*
X101669460Y-94576923D01*
X101854201Y-94057829D01*
X101826230Y-93507552D01*
X101669460Y-93129077D01*
X101428517Y-93061088D01*
X100636605Y-93853000D01*
X100277395Y-93853000D01*
X99485483Y-93061088D01*
X99244540Y-93129077D01*
X99059799Y-93648171D01*
X99087770Y-94198448D01*
X99244540Y-94576923D01*
X99485481Y-94644911D01*
X99462392Y-94668000D01*
X97803000Y-94668000D01*
X97196447Y-94788651D01*
X96682236Y-95132235D01*
X91763236Y-100051236D01*
X91419651Y-100565447D01*
X91299000Y-101172000D01*
X91299000Y-108801522D01*
X91075091Y-109025041D01*
X90749372Y-109809459D01*
X90748630Y-110658815D01*
X85018631Y-110658815D01*
X85019370Y-109813185D01*
X84695020Y-109028200D01*
X84389000Y-108721646D01*
X84389000Y-106510478D01*
X84612909Y-106286959D01*
X84938628Y-105502541D01*
X84939370Y-104653185D01*
X84615020Y-103868200D01*
X84014959Y-103267091D01*
X83230541Y-102941372D01*
X82381185Y-102940630D01*
X81596200Y-103264980D01*
X80995091Y-103865041D01*
X80669372Y-104649459D01*
X80668630Y-105498815D01*
X78232000Y-105498815D01*
X78232000Y-96589970D01*
X81469635Y-96589970D01*
X81629418Y-96908739D01*
X82420187Y-97218723D01*
X83269387Y-97202497D01*
X83978582Y-96908739D01*
X84138365Y-96589970D01*
X82804000Y-95255605D01*
X81469635Y-96589970D01*
X78232000Y-96589970D01*
X78232000Y-94692187D01*
X80661277Y-94692187D01*
X80677503Y-95541387D01*
X80971261Y-96250582D01*
X81290030Y-96410365D01*
X82624395Y-95076000D01*
X82983605Y-95076000D01*
X84317970Y-96410365D01*
X84636739Y-96250582D01*
X84946723Y-95459813D01*
X84930497Y-94610613D01*
X84636739Y-93901418D01*
X84317970Y-93741635D01*
X82983605Y-95076000D01*
X82624395Y-95076000D01*
X81290030Y-93741635D01*
X80971261Y-93901418D01*
X80661277Y-94692187D01*
X78232000Y-94692187D01*
X78232000Y-93562030D01*
X81469635Y-93562030D01*
X82804000Y-94896395D01*
X84138365Y-93562030D01*
X83978582Y-93243261D01*
X83187813Y-92933277D01*
X82338613Y-92949503D01*
X81629418Y-93243261D01*
X81469635Y-93562030D01*
X78232000Y-93562030D01*
X78232000Y-89693750D01*
X85030310Y-89693750D01*
X85030310Y-90434740D01*
X85126983Y-90668129D01*
X85305612Y-90846757D01*
X85539001Y-90943430D01*
X86178390Y-90943430D01*
X86337140Y-90784680D01*
X86337140Y-89535000D01*
X85189060Y-89535000D01*
X85030310Y-89693750D01*
X78232000Y-89693750D01*
X78232000Y-88381260D01*
X85030310Y-88381260D01*
X85030310Y-89122250D01*
X85189060Y-89281000D01*
X86337140Y-89281000D01*
X86337140Y-88031320D01*
X86591140Y-88031320D01*
X86591140Y-89281000D01*
X86611140Y-89281000D01*
X86611140Y-89535000D01*
X86591140Y-89535000D01*
X86591140Y-90784680D01*
X86749890Y-90943430D01*
X87389279Y-90943430D01*
X87622668Y-90846757D01*
X87801297Y-90668129D01*
X87886546Y-90462319D01*
X87901868Y-90543747D01*
X88040940Y-90759871D01*
X88253140Y-90904861D01*
X88505030Y-90955870D01*
X90102690Y-90955870D01*
X90338007Y-90911592D01*
X90554131Y-90772520D01*
X90699121Y-90560320D01*
X90750130Y-90308430D01*
X90750130Y-90243000D01*
X91316560Y-90243000D01*
X91316560Y-90408000D01*
X91360838Y-90643317D01*
X91499910Y-90859441D01*
X91712110Y-91004431D01*
X91964000Y-91055440D01*
X93964000Y-91055440D01*
X94199317Y-91011162D01*
X94415441Y-90872090D01*
X94512910Y-90729439D01*
X94576637Y-90793278D01*
X95177352Y-91042716D01*
X95827795Y-91043284D01*
X96428943Y-90794894D01*
X96889278Y-90335363D01*
X96927630Y-90243000D01*
X98066132Y-90243000D01*
X99072177Y-91249045D01*
X99071760Y-91727285D01*
X99282169Y-92236515D01*
X99671436Y-92626461D01*
X99730168Y-92650849D01*
X99665088Y-92881483D01*
X100457000Y-93673395D01*
X101248912Y-92881483D01*
X101183934Y-92651210D01*
X101240515Y-92627831D01*
X101280415Y-92588000D01*
X105182658Y-92588000D01*
X105315480Y-92794411D01*
X105527680Y-92939401D01*
X105629259Y-92959971D01*
X105419871Y-93046703D01*
X105241243Y-93225332D01*
X105144570Y-93458721D01*
X105144570Y-94098110D01*
X105303320Y-94256860D01*
X106553000Y-94256860D01*
X106553000Y-94236860D01*
X106807000Y-94236860D01*
X106807000Y-94256860D01*
X108056680Y-94256860D01*
X108215430Y-94098110D01*
X108215430Y-93458721D01*
X108118757Y-93225332D01*
X107940129Y-93046703D01*
X107734319Y-92961454D01*
X107815747Y-92946132D01*
X108031871Y-92807060D01*
X108119275Y-92679140D01*
X110829305Y-92679140D01*
X110903480Y-92794411D01*
X111115680Y-92939401D01*
X111217259Y-92959971D01*
X111007871Y-93046703D01*
X110829243Y-93225332D01*
X110732570Y-93458721D01*
X110732570Y-94098110D01*
X110891320Y-94256860D01*
X112141000Y-94256860D01*
X112141000Y-94236860D01*
X112395000Y-94236860D01*
X112395000Y-94256860D01*
X113644680Y-94256860D01*
X113803430Y-94098110D01*
X113803430Y-93458721D01*
X113706757Y-93225332D01*
X113528129Y-93046703D01*
X113322319Y-92961454D01*
X113403747Y-92946132D01*
X113619871Y-92807060D01*
X113764861Y-92594860D01*
X113815870Y-92342970D01*
X113815870Y-91601402D01*
X114112272Y-91305000D01*
X117906376Y-91305000D01*
X118104151Y-91437149D01*
X117671500Y-91785104D01*
X117401633Y-92278181D01*
X117384096Y-92360961D01*
X117506085Y-92583000D01*
X118999000Y-92583000D01*
X118999000Y-92563000D01*
X119253000Y-92563000D01*
X119253000Y-92583000D01*
X120745915Y-92583000D01*
X120867904Y-92360961D01*
X120850367Y-92278181D01*
X120598186Y-91817418D01*
X120717201Y-91866838D01*
X121085000Y-91867158D01*
X121085000Y-97552132D01*
X120852385Y-97319517D01*
X120836737Y-97240849D01*
X120525668Y-96775302D01*
X120143582Y-96520000D01*
X120525668Y-96264698D01*
X120836737Y-95799151D01*
X120945970Y-95250000D01*
X120836737Y-94700849D01*
X120525668Y-94235302D01*
X120147849Y-93982851D01*
X120580500Y-93634896D01*
X120850367Y-93141819D01*
X120867904Y-93059039D01*
X120745915Y-92837000D01*
X119253000Y-92837000D01*
X119253000Y-92857000D01*
X118999000Y-92857000D01*
X118999000Y-92837000D01*
X117506085Y-92837000D01*
X117384096Y-93059039D01*
X117401633Y-93141819D01*
X117671500Y-93634896D01*
X118104151Y-93982851D01*
X117726332Y-94235302D01*
X117415263Y-94700849D01*
X117306030Y-95250000D01*
X117415263Y-95799151D01*
X117726332Y-96264698D01*
X118108418Y-96520000D01*
X117726332Y-96775302D01*
X117415263Y-97240849D01*
X117306030Y-97790000D01*
X117415263Y-98339151D01*
X117726332Y-98804698D01*
X118108418Y-99060000D01*
X117726332Y-99315302D01*
X117415263Y-99780849D01*
X117306030Y-100330000D01*
X117415263Y-100879151D01*
X117726332Y-101344698D01*
X118108418Y-101600000D01*
X117726332Y-101855302D01*
X117415263Y-102320849D01*
X117306030Y-102870000D01*
X117415263Y-103419151D01*
X117726332Y-103884698D01*
X118108418Y-104140000D01*
X117726332Y-104395302D01*
X117415263Y-104860849D01*
X117306030Y-105410000D01*
X117415263Y-105959151D01*
X117726332Y-106424698D01*
X118108418Y-106680000D01*
X117726332Y-106935302D01*
X117415263Y-107400849D01*
X117306030Y-107950000D01*
X117415263Y-108499151D01*
X117726332Y-108964698D01*
X118191879Y-109275767D01*
X118291000Y-109295483D01*
X118291000Y-110998000D01*
X118295006Y-111018138D01*
X117167000Y-109890132D01*
X117167000Y-93472000D01*
X117103439Y-93152459D01*
X116977515Y-92964000D01*
X116922434Y-92881565D01*
X116716534Y-92675666D01*
X116617117Y-92435057D01*
X116354327Y-92171808D01*
X116010799Y-92029162D01*
X115638833Y-92028838D01*
X115295057Y-92170883D01*
X115031808Y-92433673D01*
X114889162Y-92777201D01*
X114888838Y-93149167D01*
X115030883Y-93492943D01*
X115293673Y-93756192D01*
X115497000Y-93840621D01*
X115497000Y-110236000D01*
X115560561Y-110555541D01*
X115698882Y-110762553D01*
X115741566Y-110826434D01*
X117773566Y-112858434D01*
X118044459Y-113039439D01*
X118364000Y-113103000D01*
X123606132Y-113103000D01*
X142157566Y-131654434D01*
X142428459Y-131835439D01*
X142748000Y-131899000D01*
X156290766Y-131899000D01*
X156531201Y-131998838D01*
X156903167Y-131999162D01*
X157246943Y-131857117D01*
X157510192Y-131594327D01*
X157652838Y-131250799D01*
X157653162Y-130878833D01*
X157511117Y-130535057D01*
X157248327Y-130271808D01*
X156904799Y-130129162D01*
X156532833Y-130128838D01*
X156290422Y-130229000D01*
X143093868Y-130229000D01*
X132567862Y-119702994D01*
X132588000Y-119707000D01*
X132588242Y-119706952D01*
X132588484Y-119707000D01*
X175950962Y-119681848D01*
X176190801Y-119781438D01*
X176562767Y-119781762D01*
X176906543Y-119639717D01*
X177169792Y-119376927D01*
X177312438Y-119033399D01*
X177312736Y-118691000D01*
X178949108Y-118691000D01*
X178990954Y-118732919D01*
X179371223Y-118890820D01*
X179782971Y-118891179D01*
X180163515Y-118733942D01*
X180454919Y-118443046D01*
X180612820Y-118062777D01*
X180613179Y-117651029D01*
X180455942Y-117270485D01*
X180165046Y-116979081D01*
X179784777Y-116821180D01*
X179373029Y-116820821D01*
X178992485Y-116978058D01*
X178949468Y-117021000D01*
X133949868Y-117021000D01*
X126302158Y-109373290D01*
X126361030Y-109385000D01*
X127130970Y-109385000D01*
X127680121Y-109275767D01*
X128145668Y-108964698D01*
X128265739Y-108785000D01*
X128778000Y-108785000D01*
X129097541Y-108721439D01*
X129368434Y-108540434D01*
X132876333Y-105032535D01*
X133116943Y-104933117D01*
X133380192Y-104670327D01*
X133522838Y-104326799D01*
X133523162Y-103954833D01*
X133381117Y-103611057D01*
X133118327Y-103347808D01*
X132774799Y-103205162D01*
X132402833Y-103204838D01*
X132059057Y-103346883D01*
X131795808Y-103609673D01*
X131695222Y-103851910D01*
X128432132Y-107115000D01*
X128265739Y-107115000D01*
X128145668Y-106935302D01*
X127763582Y-106680000D01*
X128145668Y-106424698D01*
X128456737Y-105959151D01*
X128565970Y-105410000D01*
X128456737Y-104860849D01*
X128145668Y-104395302D01*
X127763582Y-104140000D01*
X128145668Y-103884698D01*
X128456737Y-103419151D01*
X128565970Y-102870000D01*
X128456737Y-102320849D01*
X128145668Y-101855302D01*
X127763582Y-101600000D01*
X128145668Y-101344698D01*
X128223518Y-101228187D01*
X199712752Y-101228187D01*
X199930757Y-101755800D01*
X200334077Y-102159824D01*
X200861309Y-102378750D01*
X201432187Y-102379248D01*
X201959800Y-102161243D01*
X202363824Y-101757923D01*
X202582750Y-101230691D01*
X202583248Y-100659813D01*
X202365243Y-100132200D01*
X201961923Y-99728176D01*
X201434691Y-99509250D01*
X200863813Y-99508752D01*
X200336200Y-99726757D01*
X199932176Y-100130077D01*
X199713250Y-100657309D01*
X199712752Y-101228187D01*
X128223518Y-101228187D01*
X128456737Y-100879151D01*
X128565970Y-100330000D01*
X128456737Y-99780849D01*
X128145668Y-99315302D01*
X127763582Y-99060000D01*
X128145668Y-98804698D01*
X128456737Y-98339151D01*
X128565970Y-97790000D01*
X128456737Y-97240849D01*
X128145668Y-96775302D01*
X127763582Y-96520000D01*
X128145668Y-96264698D01*
X128456737Y-95799151D01*
X128478614Y-95689167D01*
X183468838Y-95689167D01*
X183610883Y-96032943D01*
X183873673Y-96296192D01*
X184217201Y-96438838D01*
X184589167Y-96439162D01*
X184831578Y-96339000D01*
X188976000Y-96339000D01*
X189295541Y-96275439D01*
X189366258Y-96228187D01*
X199712752Y-96228187D01*
X199930757Y-96755800D01*
X200334077Y-97159824D01*
X200861309Y-97378750D01*
X201432187Y-97379248D01*
X201959800Y-97161243D01*
X202363824Y-96757923D01*
X202582750Y-96230691D01*
X202583248Y-95659813D01*
X202365243Y-95132200D01*
X201961923Y-94728176D01*
X201434691Y-94509250D01*
X200863813Y-94508752D01*
X200336200Y-94726757D01*
X199932176Y-95130077D01*
X199713250Y-95657309D01*
X199712752Y-96228187D01*
X189366258Y-96228187D01*
X189566434Y-96094434D01*
X195550434Y-90110434D01*
X195595492Y-90043000D01*
X195731439Y-89839541D01*
X195795000Y-89520000D01*
X195795000Y-88651857D01*
X195828371Y-88638068D01*
X196260551Y-88206643D01*
X196494733Y-87642670D01*
X196495265Y-87032009D01*
X196262068Y-86467629D01*
X195830643Y-86035449D01*
X195266670Y-85801267D01*
X194656009Y-85800735D01*
X194091629Y-86033932D01*
X193659449Y-86465357D01*
X193425267Y-87029330D01*
X193424735Y-87639991D01*
X193657932Y-88204371D01*
X194089357Y-88636551D01*
X194125000Y-88651351D01*
X194125000Y-89174132D01*
X188630132Y-94669000D01*
X184831234Y-94669000D01*
X184590799Y-94569162D01*
X184218833Y-94568838D01*
X183875057Y-94710883D01*
X183611808Y-94973673D01*
X183469162Y-95317201D01*
X183468838Y-95689167D01*
X128478614Y-95689167D01*
X128565970Y-95250000D01*
X128456737Y-94700849D01*
X128145668Y-94235302D01*
X127763582Y-93980000D01*
X128145668Y-93724698D01*
X128456737Y-93259151D01*
X128565970Y-92710000D01*
X128456737Y-92160849D01*
X128145668Y-91695302D01*
X127767849Y-91442851D01*
X128200500Y-91094896D01*
X128470367Y-90601819D01*
X128487904Y-90519039D01*
X128365915Y-90297000D01*
X126873000Y-90297000D01*
X126873000Y-90317000D01*
X126619000Y-90317000D01*
X126619000Y-90297000D01*
X125126085Y-90297000D01*
X125004096Y-90519039D01*
X125021633Y-90601819D01*
X125291500Y-91094896D01*
X125724151Y-91442851D01*
X125346332Y-91695302D01*
X125226261Y-91875000D01*
X125222000Y-91875000D01*
X124902459Y-91938561D01*
X124790470Y-92013390D01*
X124803621Y-74930000D01*
X124926030Y-74930000D01*
X125035263Y-75479151D01*
X125346332Y-75944698D01*
X125728418Y-76200000D01*
X125346332Y-76455302D01*
X125035263Y-76920849D01*
X124926030Y-77470000D01*
X125035263Y-78019151D01*
X125346332Y-78484698D01*
X125728418Y-78740000D01*
X125346332Y-78995302D01*
X125035263Y-79460849D01*
X124926030Y-80010000D01*
X125035263Y-80559151D01*
X125346332Y-81024698D01*
X125728418Y-81280000D01*
X125346332Y-81535302D01*
X125035263Y-82000849D01*
X124926030Y-82550000D01*
X125035263Y-83099151D01*
X125346332Y-83564698D01*
X125728418Y-83820000D01*
X125346332Y-84075302D01*
X125035263Y-84540849D01*
X124926030Y-85090000D01*
X125035263Y-85639151D01*
X125346332Y-86104698D01*
X125728418Y-86360000D01*
X125346332Y-86615302D01*
X125035263Y-87080849D01*
X124926030Y-87630000D01*
X125035263Y-88179151D01*
X125346332Y-88644698D01*
X125724151Y-88897149D01*
X125291500Y-89245104D01*
X125021633Y-89738181D01*
X125004096Y-89820961D01*
X125126085Y-90043000D01*
X126619000Y-90043000D01*
X126619000Y-90023000D01*
X126873000Y-90023000D01*
X126873000Y-90043000D01*
X128365915Y-90043000D01*
X128487904Y-89820961D01*
X128470367Y-89738181D01*
X128200500Y-89245104D01*
X127934045Y-89030810D01*
X175604170Y-89030810D01*
X175604170Y-89670199D01*
X175700843Y-89903588D01*
X175879471Y-90082217D01*
X176112860Y-90178890D01*
X176853850Y-90178890D01*
X177012600Y-90020140D01*
X177012600Y-88872060D01*
X177266600Y-88872060D01*
X177266600Y-90020140D01*
X177425350Y-90178890D01*
X178166340Y-90178890D01*
X178399729Y-90082217D01*
X178578357Y-89903588D01*
X178675030Y-89670199D01*
X178675030Y-89030810D01*
X178516280Y-88872060D01*
X177266600Y-88872060D01*
X177012600Y-88872060D01*
X175762920Y-88872060D01*
X175604170Y-89030810D01*
X127934045Y-89030810D01*
X127767849Y-88897149D01*
X128145668Y-88644698D01*
X128456737Y-88179151D01*
X128458358Y-88171000D01*
X175604170Y-88171000D01*
X175604170Y-88459310D01*
X175762920Y-88618060D01*
X177012600Y-88618060D01*
X177012600Y-88598060D01*
X177266600Y-88598060D01*
X177266600Y-88618060D01*
X178516280Y-88618060D01*
X178675030Y-88459310D01*
X178675030Y-88171000D01*
X179144143Y-88171000D01*
X179157932Y-88204371D01*
X179589357Y-88636551D01*
X180153330Y-88870733D01*
X180763991Y-88871265D01*
X181328371Y-88638068D01*
X181760551Y-88206643D01*
X181852169Y-87986000D01*
X186062560Y-87986000D01*
X186062560Y-90486000D01*
X186106838Y-90721317D01*
X186245910Y-90937441D01*
X186458110Y-91082431D01*
X186710000Y-91133440D01*
X189210000Y-91133440D01*
X189445317Y-91089162D01*
X189661441Y-90950090D01*
X189806431Y-90737890D01*
X189857440Y-90486000D01*
X189857440Y-87986000D01*
X189813162Y-87750683D01*
X189674090Y-87534559D01*
X189461890Y-87389569D01*
X189210000Y-87338560D01*
X186710000Y-87338560D01*
X186474683Y-87382838D01*
X186258559Y-87521910D01*
X186113569Y-87734110D01*
X186062560Y-87986000D01*
X181852169Y-87986000D01*
X181994733Y-87642670D01*
X181995265Y-87032009D01*
X181762068Y-86467629D01*
X181380818Y-86085712D01*
X181760551Y-85706643D01*
X181994733Y-85142670D01*
X181995265Y-84532009D01*
X181762068Y-83967629D01*
X181330643Y-83535449D01*
X181263689Y-83507647D01*
X181643629Y-83128370D01*
X181846421Y-82639991D01*
X193424735Y-82639991D01*
X193657932Y-83204371D01*
X194089357Y-83636551D01*
X194653330Y-83870733D01*
X195263991Y-83871265D01*
X195828371Y-83638068D01*
X196260551Y-83206643D01*
X196275351Y-83171000D01*
X196606058Y-83171000D01*
X196616408Y-83226007D01*
X196755480Y-83442131D01*
X196967680Y-83587121D01*
X197219570Y-83638130D01*
X199020430Y-83638130D01*
X199255747Y-83593852D01*
X199471871Y-83454780D01*
X199616861Y-83242580D01*
X199667870Y-82990690D01*
X199667870Y-81393030D01*
X199623592Y-81157713D01*
X199484520Y-80941589D01*
X199272320Y-80796599D01*
X199170741Y-80776029D01*
X199380129Y-80689297D01*
X199558757Y-80510668D01*
X199655430Y-80277279D01*
X199655430Y-79637890D01*
X199496680Y-79479140D01*
X198247000Y-79479140D01*
X198247000Y-79499140D01*
X197993000Y-79499140D01*
X197993000Y-79479140D01*
X196743320Y-79479140D01*
X196584570Y-79637890D01*
X196584570Y-80277279D01*
X196681243Y-80510668D01*
X196859871Y-80689297D01*
X197065681Y-80774546D01*
X196984253Y-80789868D01*
X196768129Y-80928940D01*
X196623139Y-81141140D01*
X196572130Y-81393030D01*
X196572130Y-81501000D01*
X196275857Y-81501000D01*
X196262068Y-81467629D01*
X195830643Y-81035449D01*
X195266670Y-80801267D01*
X194656009Y-80800735D01*
X194091629Y-81033932D01*
X193659449Y-81465357D01*
X193425267Y-82029330D01*
X193424735Y-82639991D01*
X181846421Y-82639991D01*
X181856757Y-82615100D01*
X181857242Y-82059339D01*
X181645010Y-81545697D01*
X181252370Y-81152371D01*
X180739100Y-80939243D01*
X180183339Y-80938758D01*
X179669697Y-81150990D01*
X179319075Y-81501000D01*
X176998000Y-81501000D01*
X176678459Y-81564561D01*
X176623287Y-81601426D01*
X176407566Y-81745566D01*
X172882132Y-85271000D01*
X131409868Y-85271000D01*
X130638434Y-84499566D01*
X130577827Y-84459070D01*
X130367541Y-84318561D01*
X130048000Y-84255000D01*
X128265739Y-84255000D01*
X128145668Y-84075302D01*
X127763582Y-83820000D01*
X128145668Y-83564698D01*
X128456737Y-83099151D01*
X128565970Y-82550000D01*
X128459936Y-82016932D01*
X130027701Y-80449167D01*
X137748838Y-80449167D01*
X137890883Y-80792943D01*
X138153673Y-81056192D01*
X138497201Y-81198838D01*
X138869167Y-81199162D01*
X139111578Y-81099000D01*
X160020000Y-81099000D01*
X160339541Y-81035439D01*
X160610434Y-80854434D01*
X163130868Y-78334000D01*
X164726560Y-78334000D01*
X164726560Y-80834000D01*
X164770838Y-81069317D01*
X164909910Y-81285441D01*
X165122110Y-81430431D01*
X165374000Y-81481440D01*
X167874000Y-81481440D01*
X168109317Y-81437162D01*
X168325441Y-81298090D01*
X168470431Y-81085890D01*
X168521440Y-80834000D01*
X168521440Y-78334000D01*
X168477162Y-78098683D01*
X168338090Y-77882559D01*
X168125890Y-77737569D01*
X167874000Y-77686560D01*
X165374000Y-77686560D01*
X165138683Y-77730838D01*
X164922559Y-77869910D01*
X164777569Y-78082110D01*
X164726560Y-78334000D01*
X163130868Y-78334000D01*
X164429868Y-77035000D01*
X169834132Y-77035000D01*
X171073566Y-78274434D01*
X171344459Y-78455439D01*
X171664000Y-78519000D01*
X172308143Y-78519000D01*
X172321932Y-78552371D01*
X172753357Y-78984551D01*
X173317330Y-79218733D01*
X173927991Y-79219265D01*
X174008498Y-79186000D01*
X186062560Y-79186000D01*
X186062560Y-81686000D01*
X186106838Y-81921317D01*
X186245910Y-82137441D01*
X186458110Y-82282431D01*
X186710000Y-82333440D01*
X189210000Y-82333440D01*
X189445317Y-82289162D01*
X189661441Y-82150090D01*
X189806431Y-81937890D01*
X189857440Y-81686000D01*
X189857440Y-79186000D01*
X189813162Y-78950683D01*
X189674090Y-78734559D01*
X189461890Y-78589569D01*
X189210000Y-78538560D01*
X186710000Y-78538560D01*
X186474683Y-78582838D01*
X186258559Y-78721910D01*
X186113569Y-78934110D01*
X186062560Y-79186000D01*
X174008498Y-79186000D01*
X174492371Y-78986068D01*
X174924551Y-78554643D01*
X174977552Y-78427001D01*
X196584570Y-78427001D01*
X196584570Y-79066390D01*
X196743320Y-79225140D01*
X197993000Y-79225140D01*
X197993000Y-78077060D01*
X198247000Y-78077060D01*
X198247000Y-79225140D01*
X199496680Y-79225140D01*
X199655430Y-79066390D01*
X199655430Y-78427001D01*
X199558757Y-78193612D01*
X199380129Y-78014983D01*
X199146740Y-77918310D01*
X198405750Y-77918310D01*
X198247000Y-78077060D01*
X197993000Y-78077060D01*
X197834250Y-77918310D01*
X197093260Y-77918310D01*
X196859871Y-78014983D01*
X196681243Y-78193612D01*
X196584570Y-78427001D01*
X174977552Y-78427001D01*
X175158733Y-77990670D01*
X175159265Y-77380009D01*
X174926068Y-76815629D01*
X174494643Y-76383449D01*
X173930670Y-76149267D01*
X173320009Y-76148735D01*
X172755629Y-76381932D01*
X172323449Y-76813357D01*
X172308649Y-76849000D01*
X172009868Y-76849000D01*
X170770434Y-75609566D01*
X170697645Y-75560930D01*
X170499541Y-75428561D01*
X170180000Y-75365000D01*
X164084000Y-75365000D01*
X163764459Y-75428561D01*
X163566355Y-75560930D01*
X163493566Y-75609566D01*
X159674132Y-79429000D01*
X139111234Y-79429000D01*
X138870799Y-79329162D01*
X138498833Y-79328838D01*
X138155057Y-79470883D01*
X137891808Y-79733673D01*
X137749162Y-80077201D01*
X137748838Y-80449167D01*
X130027701Y-80449167D01*
X131957868Y-78519000D01*
X157808143Y-78519000D01*
X157821932Y-78552371D01*
X158253357Y-78984551D01*
X158817330Y-79218733D01*
X159427991Y-79219265D01*
X159992371Y-78986068D01*
X160424551Y-78554643D01*
X160658733Y-77990670D01*
X160659265Y-77380009D01*
X160426068Y-76815629D01*
X160044818Y-76433712D01*
X160424551Y-76054643D01*
X160658733Y-75490670D01*
X160659265Y-74880009D01*
X160426068Y-74315629D01*
X159994643Y-73883449D01*
X159927689Y-73855647D01*
X160307629Y-73476370D01*
X160510421Y-72987991D01*
X172088735Y-72987991D01*
X172321932Y-73552371D01*
X172753357Y-73984551D01*
X173317330Y-74218733D01*
X173927991Y-74219265D01*
X174492371Y-73986068D01*
X174924551Y-73554643D01*
X174933870Y-73532200D01*
X174933870Y-73544430D01*
X174978148Y-73779747D01*
X175117220Y-73995871D01*
X175329420Y-74140861D01*
X175581310Y-74191870D01*
X177178970Y-74191870D01*
X177414287Y-74147592D01*
X177630411Y-74008520D01*
X177775401Y-73796320D01*
X177795971Y-73694741D01*
X177882703Y-73904129D01*
X178061332Y-74082757D01*
X178294721Y-74179430D01*
X178934110Y-74179430D01*
X179092860Y-74020680D01*
X179092860Y-72771000D01*
X179346860Y-72771000D01*
X179346860Y-74020680D01*
X179505610Y-74179430D01*
X180144999Y-74179430D01*
X180378388Y-74082757D01*
X180557017Y-73904129D01*
X180653690Y-73670740D01*
X180653690Y-72929750D01*
X180494940Y-72771000D01*
X179346860Y-72771000D01*
X179092860Y-72771000D01*
X179072860Y-72771000D01*
X179072860Y-72517000D01*
X179092860Y-72517000D01*
X179092860Y-71267320D01*
X179346860Y-71267320D01*
X179346860Y-72517000D01*
X180494940Y-72517000D01*
X180653690Y-72358250D01*
X180653690Y-71617260D01*
X180557017Y-71383871D01*
X180378388Y-71205243D01*
X180144999Y-71108570D01*
X179505610Y-71108570D01*
X179346860Y-71267320D01*
X179092860Y-71267320D01*
X178934110Y-71108570D01*
X178294721Y-71108570D01*
X178061332Y-71205243D01*
X177882703Y-71383871D01*
X177797454Y-71589681D01*
X177782132Y-71508253D01*
X177643060Y-71292129D01*
X177430860Y-71147139D01*
X177178970Y-71096130D01*
X175581310Y-71096130D01*
X175345993Y-71140408D01*
X175129869Y-71279480D01*
X174984879Y-71491680D01*
X174933870Y-71743570D01*
X174933870Y-71834511D01*
X174926068Y-71815629D01*
X174494643Y-71383449D01*
X173930670Y-71149267D01*
X173320009Y-71148735D01*
X172755629Y-71381932D01*
X172323449Y-71813357D01*
X172089267Y-72377330D01*
X172088735Y-72987991D01*
X160510421Y-72987991D01*
X160520757Y-72963100D01*
X160521242Y-72407339D01*
X160309010Y-71893697D01*
X159916370Y-71500371D01*
X159403100Y-71287243D01*
X158847339Y-71286758D01*
X158333697Y-71498990D01*
X157983075Y-71849000D01*
X157491430Y-71849000D01*
X157491430Y-71560690D01*
X157332680Y-71401940D01*
X156083000Y-71401940D01*
X156083000Y-71421940D01*
X155829000Y-71421940D01*
X155829000Y-71401940D01*
X154579320Y-71401940D01*
X154420570Y-71560690D01*
X154420570Y-71849000D01*
X134072000Y-71849000D01*
X134020156Y-71859312D01*
X139149858Y-66729610D01*
X141212570Y-66729610D01*
X141212570Y-67368999D01*
X141309243Y-67602388D01*
X141487871Y-67781017D01*
X141721260Y-67877690D01*
X142462250Y-67877690D01*
X142621000Y-67718940D01*
X142621000Y-66570860D01*
X141371320Y-66570860D01*
X141212570Y-66729610D01*
X139149858Y-66729610D01*
X139655434Y-66224034D01*
X139699483Y-66158110D01*
X139836439Y-65953141D01*
X139900000Y-65633600D01*
X139900000Y-60148971D01*
X140696821Y-60148971D01*
X140854058Y-60529515D01*
X141144954Y-60820919D01*
X141525223Y-60978820D01*
X141936971Y-60979179D01*
X142317515Y-60821942D01*
X142320462Y-60819000D01*
X146045609Y-60819000D01*
X146381545Y-61155523D01*
X146317629Y-61181932D01*
X145885449Y-61613357D01*
X145651267Y-62177330D01*
X145650751Y-62769140D01*
X144289064Y-62769140D01*
X144251592Y-62569993D01*
X144112520Y-62353869D01*
X143900320Y-62208879D01*
X143648430Y-62157870D01*
X141847570Y-62157870D01*
X141612253Y-62202148D01*
X141396129Y-62341220D01*
X141251139Y-62553420D01*
X141200130Y-62805310D01*
X141200130Y-64402970D01*
X141244408Y-64638287D01*
X141383480Y-64854411D01*
X141595680Y-64999401D01*
X141697259Y-65019971D01*
X141487871Y-65106703D01*
X141309243Y-65285332D01*
X141212570Y-65518721D01*
X141212570Y-66158110D01*
X141371320Y-66316860D01*
X142621000Y-66316860D01*
X142621000Y-66296860D01*
X142875000Y-66296860D01*
X142875000Y-66316860D01*
X144124680Y-66316860D01*
X144283430Y-66158110D01*
X144283430Y-65518721D01*
X144186757Y-65285332D01*
X144008129Y-65106703D01*
X143802319Y-65021454D01*
X143883747Y-65006132D01*
X144099871Y-64867060D01*
X144244861Y-64654860D01*
X144288545Y-64439140D01*
X145750172Y-64439140D01*
X145651267Y-64677330D01*
X145650735Y-65287991D01*
X145790612Y-65626520D01*
X144283430Y-67133702D01*
X144283430Y-66729610D01*
X144124680Y-66570860D01*
X142875000Y-66570860D01*
X142875000Y-67718940D01*
X143033750Y-67877690D01*
X143539442Y-67877690D01*
X142856259Y-68560873D01*
X142797029Y-68560821D01*
X142416485Y-68718058D01*
X142125081Y-69008954D01*
X141967180Y-69389223D01*
X141966821Y-69800971D01*
X142124058Y-70181515D01*
X142414954Y-70472919D01*
X142795223Y-70630820D01*
X143206971Y-70631179D01*
X143587515Y-70473942D01*
X143711872Y-70349801D01*
X154420570Y-70349801D01*
X154420570Y-70989190D01*
X154579320Y-71147940D01*
X155829000Y-71147940D01*
X155829000Y-69999860D01*
X156083000Y-69999860D01*
X156083000Y-71147940D01*
X157332680Y-71147940D01*
X157491430Y-70989190D01*
X157491430Y-70349801D01*
X157394757Y-70116412D01*
X157216129Y-69937783D01*
X156982740Y-69841110D01*
X156241750Y-69841110D01*
X156083000Y-69999860D01*
X155829000Y-69999860D01*
X155670250Y-69841110D01*
X154929260Y-69841110D01*
X154695871Y-69937783D01*
X154517243Y-70116412D01*
X154420570Y-70349801D01*
X143711872Y-70349801D01*
X143878919Y-70183046D01*
X144036820Y-69802777D01*
X144036873Y-69741995D01*
X147259804Y-66519064D01*
X147489991Y-66519265D01*
X148054371Y-66286068D01*
X148486551Y-65854643D01*
X148578169Y-65634000D01*
X152788560Y-65634000D01*
X152788560Y-68134000D01*
X152832838Y-68369317D01*
X152971910Y-68585441D01*
X153184110Y-68730431D01*
X153436000Y-68781440D01*
X155936000Y-68781440D01*
X156171317Y-68737162D01*
X156387441Y-68598090D01*
X156532431Y-68385890D01*
X156583440Y-68134000D01*
X156583440Y-65634000D01*
X156539162Y-65398683D01*
X156467934Y-65287991D01*
X160150735Y-65287991D01*
X160383932Y-65852371D01*
X160815357Y-66284551D01*
X160851000Y-66299351D01*
X160851000Y-68458654D01*
X160751808Y-68557673D01*
X160609162Y-68901201D01*
X160608838Y-69273167D01*
X160750883Y-69616943D01*
X161013673Y-69880192D01*
X161357201Y-70022838D01*
X161729167Y-70023162D01*
X162072943Y-69881117D01*
X162336192Y-69618327D01*
X162371207Y-69534000D01*
X164726560Y-69534000D01*
X164726560Y-72034000D01*
X164770838Y-72269317D01*
X164909910Y-72485441D01*
X165122110Y-72630431D01*
X165374000Y-72681440D01*
X167874000Y-72681440D01*
X168109317Y-72637162D01*
X168325441Y-72498090D01*
X168470431Y-72285890D01*
X168521440Y-72034000D01*
X168521440Y-69534000D01*
X168477162Y-69298683D01*
X168338090Y-69082559D01*
X168125890Y-68937569D01*
X167874000Y-68886560D01*
X165374000Y-68886560D01*
X165138683Y-68930838D01*
X164922559Y-69069910D01*
X164777569Y-69282110D01*
X164726560Y-69534000D01*
X162371207Y-69534000D01*
X162478838Y-69274799D01*
X162479129Y-68940467D01*
X162491023Y-68872706D01*
X162521000Y-68722000D01*
X162521000Y-66299857D01*
X162554371Y-66286068D01*
X162986551Y-65854643D01*
X163220733Y-65290670D01*
X163221265Y-64680009D01*
X162988068Y-64115629D01*
X162556643Y-63683449D01*
X161992670Y-63449267D01*
X161382009Y-63448735D01*
X160817629Y-63681932D01*
X160385449Y-64113357D01*
X160151267Y-64677330D01*
X160150735Y-65287991D01*
X156467934Y-65287991D01*
X156400090Y-65182559D01*
X156187890Y-65037569D01*
X155936000Y-64986560D01*
X153436000Y-64986560D01*
X153200683Y-65030838D01*
X152984559Y-65169910D01*
X152839569Y-65382110D01*
X152788560Y-65634000D01*
X148578169Y-65634000D01*
X148720733Y-65290670D01*
X148721265Y-64680009D01*
X148488068Y-64115629D01*
X148106818Y-63733712D01*
X148486551Y-63354643D01*
X148720733Y-62790670D01*
X148721265Y-62180009D01*
X148488068Y-61615629D01*
X148056643Y-61183449D01*
X147989689Y-61155647D01*
X148369629Y-60776370D01*
X148572421Y-60287991D01*
X160150735Y-60287991D01*
X160383932Y-60852371D01*
X160815357Y-61284551D01*
X161379330Y-61518733D01*
X161989991Y-61519265D01*
X162459964Y-61325076D01*
X162629420Y-61440861D01*
X162881310Y-61491870D01*
X164478970Y-61491870D01*
X164714287Y-61447592D01*
X164930411Y-61308520D01*
X165075401Y-61096320D01*
X165095971Y-60994741D01*
X165182703Y-61204129D01*
X165361332Y-61382757D01*
X165594721Y-61479430D01*
X166234110Y-61479430D01*
X166392860Y-61320680D01*
X166392860Y-60071000D01*
X166646860Y-60071000D01*
X166646860Y-61320680D01*
X166805610Y-61479430D01*
X167444999Y-61479430D01*
X167678388Y-61382757D01*
X167857017Y-61204129D01*
X167953690Y-60970740D01*
X167953690Y-60388486D01*
X193322389Y-60388486D01*
X193858211Y-61685275D01*
X194849506Y-62678302D01*
X196145358Y-63216386D01*
X197548486Y-63217611D01*
X198845275Y-62681789D01*
X199838302Y-61690494D01*
X200376386Y-60394642D01*
X200377611Y-58991514D01*
X199841789Y-57694725D01*
X198850494Y-56701698D01*
X197554642Y-56163614D01*
X196151514Y-56162389D01*
X194854725Y-56698211D01*
X193861698Y-57689506D01*
X193323614Y-58985358D01*
X193322389Y-60388486D01*
X167953690Y-60388486D01*
X167953690Y-60229750D01*
X167794940Y-60071000D01*
X166646860Y-60071000D01*
X166392860Y-60071000D01*
X166372860Y-60071000D01*
X166372860Y-59817000D01*
X166392860Y-59817000D01*
X166392860Y-58567320D01*
X166646860Y-58567320D01*
X166646860Y-59817000D01*
X167794940Y-59817000D01*
X167953690Y-59658250D01*
X167953690Y-58917260D01*
X167857017Y-58683871D01*
X167678388Y-58505243D01*
X167444999Y-58408570D01*
X166805610Y-58408570D01*
X166646860Y-58567320D01*
X166392860Y-58567320D01*
X166234110Y-58408570D01*
X165594721Y-58408570D01*
X165361332Y-58505243D01*
X165182703Y-58683871D01*
X165097454Y-58889681D01*
X165082132Y-58808253D01*
X164943060Y-58592129D01*
X164730860Y-58447139D01*
X164478970Y-58396130D01*
X162881310Y-58396130D01*
X162645993Y-58440408D01*
X162429869Y-58579480D01*
X162402549Y-58619464D01*
X161992670Y-58449267D01*
X161382009Y-58448735D01*
X160817629Y-58681932D01*
X160385449Y-59113357D01*
X160151267Y-59677330D01*
X160150735Y-60287991D01*
X148572421Y-60287991D01*
X148582757Y-60263100D01*
X148583242Y-59707339D01*
X148371010Y-59193697D01*
X147978370Y-58800371D01*
X147465100Y-58587243D01*
X146909339Y-58586758D01*
X146395697Y-58798990D01*
X146045075Y-59149000D01*
X142400822Y-59149000D01*
X142319046Y-59067081D01*
X141938777Y-58909180D01*
X141527029Y-58908821D01*
X141146485Y-59066058D01*
X140855081Y-59356954D01*
X140697180Y-59737223D01*
X140696821Y-60148971D01*
X139900000Y-60148971D01*
X139900000Y-57979058D01*
X139989943Y-57941894D01*
X140450278Y-57482363D01*
X140699716Y-56881648D01*
X140699757Y-56834000D01*
X152788560Y-56834000D01*
X152788560Y-59334000D01*
X152832838Y-59569317D01*
X152971910Y-59785441D01*
X153184110Y-59930431D01*
X153436000Y-59981440D01*
X155936000Y-59981440D01*
X156171317Y-59937162D01*
X156387441Y-59798090D01*
X156532431Y-59585890D01*
X156583440Y-59334000D01*
X156583440Y-56834000D01*
X156539162Y-56598683D01*
X156400090Y-56382559D01*
X156187890Y-56237569D01*
X155936000Y-56186560D01*
X153436000Y-56186560D01*
X153200683Y-56230838D01*
X152984559Y-56369910D01*
X152839569Y-56582110D01*
X152788560Y-56834000D01*
X140699757Y-56834000D01*
X140700284Y-56231205D01*
X140451894Y-55630057D01*
X139992363Y-55169722D01*
X139391648Y-54920284D01*
X138741205Y-54919716D01*
X138140057Y-55168106D01*
X137679722Y-55627637D01*
X137430284Y-56228352D01*
X137429716Y-56878795D01*
X137678106Y-57479943D01*
X138137637Y-57940278D01*
X138230000Y-57978630D01*
X138230000Y-65287732D01*
X128560566Y-74957166D01*
X128565970Y-74930000D01*
X128456737Y-74380849D01*
X128145668Y-73915302D01*
X127680121Y-73604233D01*
X127581000Y-73584517D01*
X127581000Y-71084868D01*
X134575434Y-64090434D01*
X134589448Y-64069460D01*
X134756439Y-63819541D01*
X134820000Y-63500000D01*
X134820000Y-57979058D01*
X134909943Y-57941894D01*
X135370278Y-57482363D01*
X135619716Y-56881648D01*
X135620284Y-56231205D01*
X135371894Y-55630057D01*
X134912363Y-55169722D01*
X134311648Y-54920284D01*
X133661205Y-54919716D01*
X133060057Y-55168106D01*
X132599722Y-55627637D01*
X132350284Y-56228352D01*
X132349716Y-56878795D01*
X132598106Y-57479943D01*
X133057637Y-57940278D01*
X133150000Y-57978630D01*
X133150000Y-63154132D01*
X126155566Y-70148566D01*
X125974561Y-70419459D01*
X125911000Y-70739000D01*
X125911000Y-73584517D01*
X125811879Y-73604233D01*
X125346332Y-73915302D01*
X125035263Y-74380849D01*
X124926030Y-74930000D01*
X124803621Y-74930000D01*
X124812400Y-63526043D01*
X124812336Y-63525721D01*
X124812400Y-63525400D01*
X124780760Y-63366337D01*
X124749085Y-63206453D01*
X124748903Y-63206179D01*
X124748839Y-63205860D01*
X124658812Y-63071125D01*
X124568288Y-62935420D01*
X124568015Y-62935238D01*
X124567834Y-62934966D01*
X123329468Y-61696600D01*
X127236600Y-61696600D01*
X127322997Y-62130945D01*
X127569034Y-62499166D01*
X127937255Y-62745203D01*
X128371600Y-62831600D01*
X128805945Y-62745203D01*
X129174166Y-62499166D01*
X129707567Y-61965766D01*
X129953604Y-61597545D01*
X130040000Y-61163200D01*
X130040000Y-57732204D01*
X130290278Y-57482363D01*
X130539716Y-56881648D01*
X130540284Y-56231205D01*
X130291894Y-55630057D01*
X129832363Y-55169722D01*
X129231648Y-54920284D01*
X128581205Y-54919716D01*
X127980057Y-55168106D01*
X127519722Y-55627637D01*
X127270284Y-56228352D01*
X127269716Y-56878795D01*
X127518106Y-57479943D01*
X127770000Y-57732278D01*
X127770000Y-60693068D01*
X127569034Y-60894034D01*
X127322997Y-61262255D01*
X127236600Y-61696600D01*
X123329468Y-61696600D01*
X120503834Y-58870966D01*
X120369096Y-58780937D01*
X120233837Y-58690333D01*
X120233351Y-58690236D01*
X120232940Y-58689961D01*
X120073429Y-58658232D01*
X119914370Y-58626401D01*
X98472432Y-58601497D01*
X98230799Y-58501162D01*
X97858833Y-58500838D01*
X97515057Y-58642883D01*
X97251808Y-58905673D01*
X97109162Y-59249201D01*
X97108838Y-59621167D01*
X97250883Y-59964943D01*
X97410661Y-60125000D01*
X91440000Y-60125000D01*
X91120460Y-60188560D01*
X90849566Y-60369566D01*
X88055566Y-63163566D01*
X87874561Y-63434459D01*
X87811000Y-63754000D01*
X87811000Y-72009000D01*
X87874561Y-72328541D01*
X88022549Y-72550020D01*
X88055566Y-72599434D01*
X89081000Y-73624868D01*
X89081000Y-76240593D01*
X88826971Y-76410330D01*
X88502115Y-76896511D01*
X88388041Y-77470000D01*
X88502115Y-78043489D01*
X88826971Y-78529670D01*
X89150228Y-78745664D01*
X89027510Y-78803179D01*
X88633312Y-79235053D01*
X88461042Y-79650974D01*
X88582183Y-79883000D01*
X89789000Y-79883000D01*
X89789000Y-79863000D01*
X90043000Y-79863000D01*
X90043000Y-79883000D01*
X92329000Y-79883000D01*
X92329000Y-79863000D01*
X92583000Y-79863000D01*
X92583000Y-79883000D01*
X94869000Y-79883000D01*
X94869000Y-79863000D01*
X95123000Y-79863000D01*
X95123000Y-79883000D01*
X97409000Y-79883000D01*
X97409000Y-79863000D01*
X97663000Y-79863000D01*
X97663000Y-79883000D01*
X97683000Y-79883000D01*
X97683000Y-80137000D01*
X97663000Y-80137000D01*
X97663000Y-81344469D01*
X97895027Y-81464968D01*
X98424490Y-81216821D01*
X98806008Y-80798839D01*
X98986971Y-81069670D01*
X99322000Y-81293529D01*
X99322000Y-89137132D01*
X99002434Y-88817566D01*
X98731541Y-88636561D01*
X98412000Y-88573000D01*
X96928058Y-88573000D01*
X96890894Y-88483057D01*
X96431363Y-88022722D01*
X95830648Y-87773284D01*
X95180205Y-87772716D01*
X94579057Y-88021106D01*
X94512426Y-88087621D01*
X94428090Y-87956559D01*
X94215890Y-87811569D01*
X93964000Y-87760560D01*
X91964000Y-87760560D01*
X91728683Y-87804838D01*
X91512559Y-87943910D01*
X91367569Y-88156110D01*
X91316560Y-88408000D01*
X91316560Y-88573000D01*
X90750130Y-88573000D01*
X90750130Y-88507570D01*
X90705852Y-88272253D01*
X90566780Y-88056129D01*
X90354580Y-87911139D01*
X90102690Y-87860130D01*
X88505030Y-87860130D01*
X88269713Y-87904408D01*
X88053589Y-88043480D01*
X87908599Y-88255680D01*
X87888029Y-88357259D01*
X87801297Y-88147871D01*
X87622668Y-87969243D01*
X87389279Y-87872570D01*
X86749890Y-87872570D01*
X86591140Y-88031320D01*
X86337140Y-88031320D01*
X86178390Y-87872570D01*
X85539001Y-87872570D01*
X85305612Y-87969243D01*
X85126983Y-88147871D01*
X85030310Y-88381260D01*
X78232000Y-88381260D01*
X78232000Y-80369026D01*
X88461042Y-80369026D01*
X88633312Y-80784947D01*
X89027510Y-81216821D01*
X89556973Y-81464968D01*
X89789000Y-81344469D01*
X89789000Y-80137000D01*
X90043000Y-80137000D01*
X90043000Y-81344469D01*
X90275027Y-81464968D01*
X90804490Y-81216821D01*
X91186000Y-80798848D01*
X91567510Y-81216821D01*
X92096973Y-81464968D01*
X92329000Y-81344469D01*
X92329000Y-80137000D01*
X92583000Y-80137000D01*
X92583000Y-81344469D01*
X92815027Y-81464968D01*
X93344490Y-81216821D01*
X93726000Y-80798848D01*
X94107510Y-81216821D01*
X94636973Y-81464968D01*
X94869000Y-81344469D01*
X94869000Y-80137000D01*
X95123000Y-80137000D01*
X95123000Y-81344469D01*
X95355027Y-81464968D01*
X95884490Y-81216821D01*
X96266000Y-80798848D01*
X96647510Y-81216821D01*
X97176973Y-81464968D01*
X97409000Y-81344469D01*
X97409000Y-80137000D01*
X95123000Y-80137000D01*
X94869000Y-80137000D01*
X92583000Y-80137000D01*
X92329000Y-80137000D01*
X90043000Y-80137000D01*
X89789000Y-80137000D01*
X88582183Y-80137000D01*
X88461042Y-80369026D01*
X78232000Y-80369026D01*
X78232000Y-60388486D01*
X81562389Y-60388486D01*
X82098211Y-61685275D01*
X83089506Y-62678302D01*
X84385358Y-63216386D01*
X85788486Y-63217611D01*
X87085275Y-62681789D01*
X88078302Y-61690494D01*
X88616386Y-60394642D01*
X88617611Y-58991514D01*
X88087081Y-57707532D01*
X122852073Y-57707532D01*
X122950736Y-57974387D01*
X123560461Y-58200908D01*
X124210460Y-58176856D01*
X124699264Y-57974387D01*
X124797927Y-57707532D01*
X123825000Y-56734605D01*
X122852073Y-57707532D01*
X88087081Y-57707532D01*
X88081789Y-57694725D01*
X87090494Y-56701698D01*
X86100124Y-56290461D01*
X122179092Y-56290461D01*
X122203144Y-56940460D01*
X122405613Y-57429264D01*
X122672468Y-57527927D01*
X123645395Y-56555000D01*
X124004605Y-56555000D01*
X124977532Y-57527927D01*
X125244387Y-57429264D01*
X125470908Y-56819539D01*
X125446856Y-56169540D01*
X125244387Y-55680736D01*
X124977532Y-55582073D01*
X124004605Y-56555000D01*
X123645395Y-56555000D01*
X122672468Y-55582073D01*
X122405613Y-55680736D01*
X122179092Y-56290461D01*
X86100124Y-56290461D01*
X85794642Y-56163614D01*
X84391514Y-56162389D01*
X83094725Y-56698211D01*
X82101698Y-57689506D01*
X81563614Y-58985358D01*
X81562389Y-60388486D01*
X78232000Y-60388486D01*
X78232000Y-55402468D01*
X122852073Y-55402468D01*
X123825000Y-56375395D01*
X124797927Y-55402468D01*
X124699264Y-55135613D01*
X124089539Y-54909092D01*
X123439540Y-54933144D01*
X122950736Y-55135613D01*
X122852073Y-55402468D01*
X78232000Y-55402468D01*
X78232000Y-52832000D01*
X203708000Y-52832000D01*
X203708000Y-152908000D01*
M02*
